<?xml version="1.0" standalone="no"?>
<!DOCTYPE svg PUBLIC "-//W3C//DTD SVG 1.1//EN" "http://www.w3.org/Graphics/SVG/1.1/DTD/svg11.dtd" >
<svg xmlns="http://www.w3.org/2000/svg" xmlns:xlink="http://www.w3.org/1999/xlink" version="1.1">
<metadata></metadata>
<defs>
<font id="helveticaregular" horiz-adv-x="550" >
<font-face units-per-em="1000" ascent="800" descent="-200" />
<missing-glyph horiz-adv-x="275" />
<glyph horiz-adv-x="0" />
<glyph horiz-adv-x="333" />
<glyph unicode=" "  horiz-adv-x="275" />
<glyph unicode="&#x09;" horiz-adv-x="275" />
<glyph unicode="&#xa0;" horiz-adv-x="275" />
<glyph unicode="!" horiz-adv-x="275" d="M185 101v-101h-96v101h96zM161 169h-48l-24 307v235h96v-235z" />
<glyph unicode="&#x22;" horiz-adv-x="351" d="M69 458v253h73v-253h-73zM210 458v253h72v-253h-72z" />
<glyph unicode="#" d="M384 208l-29 -208h-65l29 208h-124l-29 -208h-65l29 208h-102l9 62h102l18 141h-102l9 62h102l29 208h66l-28 -208h122l29 208h66l-28 -208h102l-9 -62h-102l-20 -141h102l-9 -62h-102zM346 411h-122l-20 -141h124z" />
<glyph unicode="$" d="M250 405v227q-54 0 -85.5 -33.5t-31.5 -81.5q0 -49 33.5 -76.5t83.5 -35.5zM297 305v-252q63 0 97 36.5t34 88.5q0 27 -11 50t-28 38.5t-39 21.5zM498 516h-84q-6 47 -30 75.5t-87 40.5v-237q30 -9 44 -13t38 -12.5t35 -14t29 -15t26 -19t19 -23t15.5 -28.5t8 -34 t3.5 -42q0 -48 -15 -86.5t-38 -61.5t-53.5 -38t-57.5 -21t-54 -6v-95h-47v95q-48 3 -86 15.5t-68.5 37.5t-47 70t-16.5 107h87q4 -80 31 -113t100 -45v263q-29 7 -50 13.5t-47 17t-43.5 24.5t-33 33.5t-23 46.5t-7.5 60q0 81 58.5 137t145.5 56v63h47v-63q24 -2 45 -6 t50.5 -16.5t50.5 -31.5t37 -54t18 -80z" />
<glyph unicode="%" horiz-adv-x="880" d="M39 521q0 70 49.5 118.5t119.5 48.5q69 0 118.5 -49t49.5 -118q0 -70 -49 -120t-119 -50t-119.5 49.5t-49.5 120.5zM108 521q0 -45 29 -72.5t70 -27.5q42 0 71 29t29 71q0 27 -13.5 49.5t-36 35.5t-49.5 13q-28 0 -51 -13.5t-36 -36t-13 -48.5zM504 162q0 47 22.5 85.5 t61.5 60.5t85 22q70 0 119.5 -49t49.5 -119t-49.5 -119.5t-119.5 -49.5t-119.5 49t-49.5 120zM573 162q0 -44 29 -72t70 -28q43 0 71.5 29.5t28.5 71t-29 69.5t-70 28q-42 0 -71 -28.5t-29 -69.5zM662 696l-392 -715h-53l391 715h54z" />
<glyph unicode="&#x26;" horiz-adv-x="660" d="M413 140l-161 196q-33 -22 -51.5 -35.5t-36.5 -32.5t-25.5 -40.5t-7.5 -49.5q0 -31 14 -55.5t35 -37t41.5 -19t36.5 -6.5q97 0 155 80zM283 435q19 13 30.5 22t27.5 25t23.5 35t7.5 40q0 43 -24 61t-52 18q-26 0 -44 -8.5t-25.5 -22t-10.5 -24.5t-3 -23q0 -53 70 -123z M512 153l127 -153h-113l-67 81q-41 -47 -87.5 -71.5t-119.5 -24.5q-50 0 -89 14.5t-61 35.5t-36 47.5t-18 48t-4 40.5q0 76 32 123t128 101q-43 53 -59 84t-16 73q0 66 45 112.5t123 46.5q53 0 90.5 -22.5t53 -54.5t15.5 -70q0 -28 -9 -54.5t-20 -43.5t-31.5 -36t-32.5 -28 t-34 -24l129 -154q19 51 29 111h82q-7 -89 -57 -182z" />
<glyph unicode="'" horiz-adv-x="189" d="M58 458v253h73v-253h-73z" />
<glyph unicode="(" horiz-adv-x="329" d="M235 726h60q-32 -61 -47 -91t-36 -80.5t-29.5 -91.5t-15.5 -100t-7 -128q0 -112 32.5 -206.5t103.5 -233.5h-58q-44 65 -71.5 113t-52 105.5t-36 117.5t-11.5 127q0 126 41.5 236.5t126.5 231.5z" />
<glyph unicode=")" horiz-adv-x="329" d="M95 -205h-60q27 51 39.5 76t32 67.5t28 73.5t18 75t13 92.5t3.5 106.5q0 112 -32 206.5t-103 233.5h58q34 -52 57.5 -90.5t46.5 -85.5t36.5 -89.5t21.5 -93t8 -105.5q0 -125 -41.5 -236t-125.5 -231z" />
<glyph unicode="*" horiz-adv-x="385" d="M39 585l19 55l104 -38v109h60v-109l104 38l20 -55l-107 -34l66 -91l-49 -33l-64 93l-64 -93l-49 33l67 91z" />
<glyph unicode="+" horiz-adv-x="578" d="M253 286v214h73v-214h214v-72h-214v-214h-73v214h-214v72h214z" />
<glyph unicode="," horiz-adv-x="275" d="M86 0v105h103v-97q0 -38 -9 -67t-21 -44.5t-28.5 -25.5t-25.5 -12.5t-19 -4.5v46q53 5 53 100h-53z" />
<glyph unicode="-" horiz-adv-x="329" d="M286 319v-89h-242v89h242z" />
<glyph unicode="." horiz-adv-x="275" d="M189 105v-105h-103v105h103z" />
<glyph unicode="/" horiz-adv-x="275" d="M292 730l-242 -749h-67l244 749h65z" />
<glyph unicode="0" d="M421 339q0 134 -36 206.5t-109.5 72.5t-109.5 -72.5t-36 -206.5t36 -207t109.5 -73t109.5 73t36 207zM514 339q0 -49 -5.5 -93.5t-21.5 -94.5t-41 -86t-69 -60t-102 -24q-48 0 -86.5 16t-64 45t-43.5 63.5t-27 76.5t-13 79.5t-4 77.5q0 48 5 93t21 94.5t41.5 85.5 t69.5 60t101 24q48 0 87 -16t64 -45t43 -63.5t27.5 -76.5t13.5 -79.5t4 -76.5z" />
<glyph unicode="1" d="M355 696v-696h-93v494h-162v69q39 3 61 6.5t45 11.5t36.5 21.5t25 36.5t19.5 57h68z" />
<glyph unicode="2" d="M131 446h-87q0 65 18 113t44 73.5t61.5 40.5t62 19t54.5 4q93 0 155.5 -56.5t62.5 -151.5q0 -36 -10 -67t-25 -52.5t-41.5 -43.5t-50 -36t-59.5 -34l-72 -39q-63 -35 -89.5 -70t-30.5 -64h378v-82h-476q3 102 45 167t118 109l92 54q31 17 43 24.5t33 24t29.5 30t15.5 35 t7 48.5q0 49 -34 87.5t-104 38.5q-21 0 -39 -4.5t-31 -11.5t-24 -18.5t-17.5 -21t-12 -25t-8 -25t-5 -25t-3 -22t-0.5 -19.5z" />
<glyph unicode="3" d="M222 321v75q29 -2 45 -2q18 0 33.5 2.5t31 7.5t27.5 14t21.5 21.5t14.5 30t5 38.5q0 18 -6 35t-19 35t-40 29t-64 11q-35 0 -61 -12t-39 -26.5t-21.5 -38.5t-10.5 -37.5t-3 -35.5h-86q0 28 4.5 53t13.5 51.5t26 48t41 39t60 27t80 9.5q99 0 157 -51t58 -132 q0 -61 -27 -97t-62 -47v-2q116 -37 116 -162q0 -44 -14.5 -83t-44 -71t-79 -51t-113.5 -19q-70 0 -128 31q-53 28 -76 79.5t-28 121.5h90q1 -24 4 -42t12.5 -40t24.5 -36.5t42.5 -25t64.5 -10.5q67 0 109.5 37.5t42.5 97.5q0 128 -163 128q-6 0 -19.5 -0.5t-19.5 -0.5z" />
<glyph unicode="4" d="M518 169h-102v-169h-87v169h-304v85l319 442h72v-451h102v-76zM327 560l-222 -315h224v315h-2z" />
<glyph unicode="5" d="M175 596l-29 -191q56 43 134 43q43 0 83.5 -14.5t73 -42t52.5 -70.5t20 -95q0 -28 -5 -56t-21.5 -63.5t-43 -62t-74 -45t-109.5 -18.5q-29 0 -56.5 5t-56.5 18.5t-51.5 34t-38.5 55t-21 79.5h90q6 -58 46 -87.5t101 -29.5q44 0 78 22t51.5 58t17.5 80q0 72 -43.5 113 t-111.5 41q-77 0 -128 -66l-76 4l53 373h360v-85h-295z" />
<glyph unicode="6" d="M498 511h-85q-19 107 -120 107q-28 0 -52 -10.5t-40.5 -27.5t-29.5 -40.5t-21 -47t-13 -49t-7 -45.5t-2 -38l2 -2q20 35 60.5 60.5t104.5 25.5q27 0 55.5 -7t58 -23.5t52.5 -41t37.5 -63.5t14.5 -86q0 -54 -15.5 -95t-51.5 -79q-30 -35 -68.5 -51.5t-107.5 -16.5 q-47 0 -96 24t-83 77q-53 84 -53 242q0 50 6.5 97.5t24.5 98.5t45.5 89t74 62.5t106.5 24.5q21 0 42.5 -4t44 -12.5t42 -23t35.5 -34.5t26.5 -48.5t12.5 -62.5zM140 214q0 -39 14.5 -73t49 -58t82.5 -24q62 0 99.5 44.5t37.5 115.5q0 25 -7.5 49t-22.5 46.5t-43.5 36.5 t-67.5 14q-69 0 -105.5 -43t-36.5 -108z" />
<glyph unicode="7" d="M37 596v85h481v-76q-32 -33 -68.5 -83.5t-81 -127.5t-82 -181t-54.5 -213h-96q17 140 98.5 308t185.5 288h-383z" />
<glyph unicode="8" d="M487 517q0 -35 -8.5 -62t-25 -44t-27.5 -24.5t-28 -16.5q33 -14 57 -35t35.5 -45t16.5 -45.5t5 -43.5q0 -43 -14 -81.5t-42 -70t-74 -50t-106 -18.5q-38 0 -84 12.5t-83 41.5q-25 19 -41 43t-22 49t-7 39.5t-1 33.5q0 122 117 169q-45 18 -69.5 52.5t-24.5 83.5 q0 23 6 47.5t21 51t38 46.5t61 33t85 13q56 0 99 -16.5t67.5 -43t36.5 -57t12 -62.5zM274 327q-69 0 -106 -38t-37 -91q0 -23 6.5 -45.5t22 -44.5t46 -35.5t73.5 -13.5q27 0 49.5 6t44 19.5t34 40.5t12.5 66q0 67 -40.5 101.5t-104.5 34.5zM273 402q56 0 90 31.5t34 80.5 q0 17 -6.5 34t-20 33.5t-40 26.5t-63.5 10q-26 0 -47 -7.5t-33.5 -18.5t-21 -26t-11.5 -29t-3 -28q0 -48 36.5 -77.5t85.5 -29.5z" />
<glyph unicode="9" d="M260 233q-97 0 -157.5 61t-60.5 163q0 101 59 170t164 69q46 0 83.5 -12.5t62.5 -31.5t43.5 -47.5t28.5 -56.5t16 -62t8 -59.5t2 -53.5q0 -22 -1.5 -45.5t-7 -64t-15.5 -76t-29 -75t-44.5 -67t-65.5 -46t-90 -18.5q-46 0 -83.5 13t-60 33t-37 46t-20 49t-5.5 45h87 q3 -53 34 -83.5t83 -30.5q72 0 111.5 62.5t56.5 198.5l-2 2q-13 -26 -38.5 -45t-57 -28.5t-64.5 -9.5zM273 311q16 0 31.5 3t35 13t33.5 26.5t24 46.5t10 69q0 65 -35 107t-106 42q-60 0 -97 -43.5t-37 -113.5q0 -21 3 -40t8 -33t12.5 -25.5t16 -19t19 -13.5t20 -9.5t21 -6 t21.5 -3t20 -0.5z" />
<glyph unicode=":" horiz-adv-x="275" d="M189 105v-105h-103v105h103zM189 511v-105h-103v105h103z" />
<glyph unicode=";" horiz-adv-x="275" d="M86 0v105h103v-97q0 -38 -9 -67t-21 -44.5t-28.5 -25.5t-25.5 -12.5t-19 -4.5v46q53 5 53 100h-53zM189 406h-103v105h103v-105z" />
<glyph unicode="&#x3c;" horiz-adv-x="578" d="M531 90v-79l-483 205v69l483 205v-79l-386 -161z" />
<glyph unicode="=" horiz-adv-x="578" d="M540 386v-72h-501v72h501zM540 186v-72h-501v72h501z" />
<glyph unicode="&#x3e;" horiz-adv-x="578" d="M48 411v79l483 -205v-69l-483 -205v79l386 160z" />
<glyph unicode="?" d="M143 488h-88q2 33 4 51t9 45t23.5 48.5t42.5 41.5q58 46 143 46q88 0 149 -51.5t61 -142.5q0 -47 -19.5 -79.5t-73.5 -84.5q-25 -24 -34 -33t-23 -27.5t-18.5 -32.5t-8 -36.5t-2.5 -51.5h-87q0 42 4 70t17.5 53t27.5 41.5t45 48.5q52 54 65.5 75.5t13.5 62.5 q0 17 -5.5 35t-18 36.5t-37.5 29.5t-59 11q-131 0 -131 -156zM315 101v-101h-96v101h96z" />
<glyph unicode="@" horiz-adv-x="1004" d="M605 404q0 36 -24.5 63.5t-56.5 27.5t-60.5 -18.5t-47.5 -47t-30.5 -62.5t-11.5 -65q0 -43 23 -69.5t60 -26.5q40 0 75 33t54 78.5t19 86.5zM636 489l19 61h68q-14 -52 -38.5 -133.5t-37.5 -129.5t-13 -59q0 -29 20 -29q51 0 96 67.5t45 146.5q0 115 -80 185t-196 70 q-86 0 -155.5 -42.5t-107.5 -114.5t-38 -160q0 -131 89 -219.5t219 -88.5q69 0 133.5 30t106.5 82h67q-49 -80 -131.5 -127t-177.5 -47q-105 0 -191.5 50t-136.5 136.5t-50 189.5q0 102 50 188t136 135.5t187 49.5q91 0 169 -39.5t124.5 -110.5t46.5 -159q0 -64 -24 -120 t-61 -91t-77 -55t-74 -20q-27 0 -44.5 15.5t-19.5 46.5l-2 -1q-57 -61 -118 -61q-63 0 -104.5 46t-41.5 112q0 68 28 130t81.5 102.5t119.5 40.5q78 0 114 -77z" />
<glyph unicode="A" horiz-adv-x="660" d="M472 207h-285l-74 -207h-99l267 711h109l257 -711h-104zM217 292h221l-105 313h-2z" />
<glyph unicode="B" horiz-adv-x="660" d="M169 629v-219h174q73 0 110.5 26t37.5 89q0 51 -35 77.5t-112 26.5h-175zM73 0v711h313q96 0 148.5 -51.5t52.5 -127.5q0 -104 -95 -149q20 -8 32 -13.5t33 -20.5t32.5 -31.5t21.5 -44.5t10 -63q0 -90 -64 -150t-178 -60h-306zM169 332v-250h205q74 0 112.5 34.5 t38.5 95.5q0 120 -167 120h-189z" />
<glyph unicode="C" horiz-adv-x="714" d="M667 497h-93q-9 44 -31.5 75t-53 46t-57.5 20.5t-57 5.5q-49 0 -90.5 -18t-73.5 -52.5t-50 -88.5t-18 -123q0 -65 12 -117t39 -93t73.5 -63.5t110.5 -22.5q21 0 42 4.5t47 17.5t47 33.5t39.5 56.5t27.5 83h93q-8 -55 -27 -99.5t-42 -73t-53 -50t-56 -32t-55 -16.5 t-45.5 -7.5t-32.5 -1.5q-50 0 -95 13t-86.5 42t-72 72t-48 107.5t-17.5 143.5q0 167 89 269t242 102q66 0 120.5 -19.5t89.5 -52.5t56 -74t26 -87z" />
<glyph unicode="D" horiz-adv-x="714" d="M80 0v711h288q138 0 218.5 -95t80.5 -251q0 -51 -8.5 -99.5t-30.5 -97.5t-55.5 -85.5t-87 -59.5t-121.5 -23h-284zM176 629v-547h186q63 0 109 31.5t71.5 94.5t25.5 151q0 132 -56.5 201t-156.5 69h-179z" />
<glyph unicode="E" horiz-adv-x="660" d="M610 85v-85h-525v711h518v-85h-422v-218h389v-85h-389v-238h429z" />
<glyph unicode="F" horiz-adv-x="604" d="M181 323v-323h-96v711h492v-85h-396v-218h349v-85h-349z" />
<glyph unicode="G" horiz-adv-x="770" d="M385 298v82h312v-380h-62l-23 92q-37 -51 -100 -81t-135 -30q-135 0 -218 80q-38 37 -62.5 78t-34 84.5t-12 71.5t-2.5 66q0 54 12 105.5t39.5 99.5t66 84t95 58t123.5 22q51 0 100.5 -15t92 -42.5t72 -73.5t36.5 -104h-93q-11 44 -34.5 75t-54.5 46.5t-61 21.5t-63 6 q-100 0 -166 -76.5t-66 -211.5q0 -38 4.5 -72t14.5 -68t28 -60.5t43.5 -48t62.5 -33t83 -11.5q88 0 146 46q44 35 61 81t17 108h-222z" />
<glyph unicode="H" horiz-adv-x="714" d="M544 417v294h96v-711h-96v332h-372v-332h-96v711h96v-294h372z" />
<glyph unicode="I" horiz-adv-x="275" d="M186 711v-711h-96v711h96z" />
<glyph unicode="J" horiz-adv-x="495" d="M17 229h90v-50q0 -61 27.5 -88.5t79.5 -27.5q62 0 88 33t26 90v525h96v-519q0 -59 -18 -102.5t-49 -66t-65 -32.5t-73 -10q-48 0 -84.5 12.5t-58.5 31t-35.5 43t-18.5 46.5t-5 44v71z" />
<glyph unicode="K" horiz-adv-x="660" d="M171 249v-249h-96v711h96v-345l345 345h132l-296 -287l304 -424h-124l-249 356z" />
<glyph unicode="L" d="M171 711v-626h361v-85h-457v711h96z" />
<glyph unicode="M" horiz-adv-x="824" d="M753 0h-93v420q0 4 1 71t1 106h-2l-200 -597h-95l-200 596h-2q0 -38 1 -104.5t1 -71.5v-420h-93v711h138l203 -601h2l202 601h136v-711z" />
<glyph unicode="N" horiz-adv-x="714" d="M546 137v574h94v-711h-108l-362 574h-2v-574h-93v711h114l355 -574h2z" />
<glyph unicode="O" horiz-adv-x="770" d="M633 355q0 128 -67 208.5t-181 80.5q-76 0 -132.5 -37t-85.5 -102.5t-29 -149.5q0 -127 66.5 -208t180.5 -81q76 0 132.5 37.5t86 103t29.5 148.5zM732 355q0 -49 -10.5 -98t-36 -99.5t-63.5 -89t-99.5 -63t-137.5 -24.5t-137.5 24.5t-99.5 63t-63.5 89t-35.5 99.5 t-10 98t10 98t35.5 100t63.5 89.5t99.5 63t137.5 24.5t137.5 -24.5t99.5 -63t63.5 -89.5t36 -100t10.5 -98z" />
<glyph unicode="P" horiz-adv-x="660" d="M181 629v-247h191q69 0 107 29.5t38 98.5q0 119 -141 119h-195zM181 300v-300h-96v711h320q97 0 154 -56t57 -144q0 -39 -12 -75t-35.5 -67.5t-66 -50t-97.5 -18.5h-224z" />
<glyph unicode="Q" horiz-adv-x="770" d="M416 147l48 59l90 -70q79 78 79 219q0 128 -67 208.5t-181 80.5q-76 0 -132.5 -37t-85.5 -102.5t-29 -149.5q0 -127 66.5 -208t180.5 -81q60 0 105 23zM726 2l-49 -57l-109 84q-74 -48 -183 -48q-76 0 -137.5 24.5t-99.5 63t-63.5 89t-35.5 99.5t-10 98t10 98t35.5 100 t63.5 89.5t99.5 63t137.5 24.5t137.5 -24.5t99.5 -63t63.5 -89.5t36 -100t10.5 -98q0 -74 -25.5 -149t-77.5 -129z" />
<glyph unicode="R" horiz-adv-x="714" d="M183 305v-305h-96v711h329q37 0 69 -5.5t63 -19t53 -34.5t35 -55t13 -77q0 -38 -8 -67t-24.5 -48.5t-31 -31t-35.5 -24.5q20 -8 31 -14.5t25 -20.5t21 -38.5t9 -59.5l6 -129q0 -31 7 -45t28 -26v-16h-118q-16 53 -16 178q0 26 -4 45t-16 39.5t-39 31.5t-68 11h-233z M183 629v-242h223q30 0 53 5t45 17t34 37.5t12 63.5q0 119 -127 119h-240z" />
<glyph unicode="S" horiz-adv-x="660" d="M594 503h-90q-2 39 -18 68.5t-42 45.5t-55 23t-61 7q-21 0 -40.5 -2t-42.5 -10.5t-40 -21.5t-28.5 -36t-11.5 -54q0 -41 23 -61t61 -29l203 -47q162 -38 162 -190q0 -48 -17.5 -86.5t-45.5 -62t-65.5 -39t-74 -21.5t-75.5 -6q-61 0 -107.5 12.5t-66.5 25t-41 31.5 q-29 26 -45.5 56.5t-21.5 58.5t-5 65h90q0 -46 17 -80t46.5 -52t62.5 -26.5t70 -8.5q30 0 58.5 5t59.5 16.5t49.5 37t18.5 61.5q0 29 -7 47.5t-25.5 33t-46 24.5t-73.5 21l-145 34q-152 35 -152 167q0 28 6.5 54.5t19 51.5t32.5 45.5t46.5 36t62.5 24t78 8.5q51 0 93 -9 t70 -22.5t49 -34t32.5 -39.5t19 -43t10 -41.5t3.5 -37.5z" />
<glyph unicode="T" horiz-adv-x="604" d="M14 626v85h577v-85h-241v-626h-96v626h-240z" />
<glyph unicode="U" horiz-adv-x="714" d="M542 711h96v-462q0 -55 -18 -103t-52 -85t-90 -58.5t-127 -21.5q-69 0 -122.5 21t-85.5 57.5t-48.5 81t-16.5 96.5v474h96v-448q0 -55 15.5 -95t42.5 -61.5t57.5 -31t64.5 -9.5q36 0 67 9.5t59.5 30t45 60.5t16.5 95v450z" />
<glyph unicode="V" horiz-adv-x="660" d="M332 105l201 606h108l-260 -711h-102l-259 711h107l203 -606h2z" />
<glyph unicode="W" horiz-adv-x="934" d="M466 589l-164 -589h-101l-185 711h104l132 -578h2l160 578h105l159 -578h2l133 578h106l-187 -711h-101l-163 589h-2z" />
<glyph unicode="X" horiz-adv-x="660" d="M392 364l250 -364h-119l-191 292l-197 -292h-116l254 364l-238 347h120l181 -272l180 272h115z" />
<glyph unicode="Y" horiz-adv-x="660" d="M378 286v-286h-96v286l-268 425h112l204 -342l204 342h112z" />
<glyph unicode="Z" horiz-adv-x="604" d="M582 85v-85h-559v80l435 546h-403v85h527v-83l-437 -543h437z" />
<glyph unicode="[" horiz-adv-x="275" d="M141 644v-768h107v-70h-186v909h186v-71h-107z" />
<glyph unicode="\" horiz-adv-x="275" d="M226 -19l-243 749h66l243 -749h-66z" />
<glyph unicode="]" horiz-adv-x="275" d="M135 -124v768h-107v71h185v-909h-185v70h107z" />
<glyph unicode="^" horiz-adv-x="464" d="M478 261h-76l-169 341l-170 -341h-77l211 420h71z" />
<glyph unicode="_" d="M550 -124h-550v50h550v-50z" />
<glyph unicode="`" horiz-adv-x="329" d="M143 587l-129 140h107l88 -140h-66z" />
<glyph unicode="a" d="M142 360h-81q6 173 214 173q17 0 36.5 -2.5t49 -11t51.5 -23t38.5 -42.5t16.5 -66v-298q0 -31 29 -31q9 0 29 4v-63q-37 -10 -48 -10q-52 0 -70.5 21t-21.5 58q-21 -23 -41 -39t-59.5 -30.5t-86.5 -14.5q-72 0 -117 41.5t-45 108.5q0 13 1.5 26t6.5 31t16 33.5t27.5 30.5 t43.5 26t62 15l144 18q12 1 21 5t16.5 18t7.5 38q0 84 -122 84q-35 0 -59 -9t-35.5 -26.5t-16.5 -31t-7 -33.5zM380 179v85q-11 -9 -39.5 -16t-103.5 -16q-21 -3 -36.5 -7t-34.5 -13t-29.5 -25t-10.5 -39q0 -91 94 -91q62 0 111 35.5t49 86.5z" />
<glyph unicode="b" d="M140 0h-83v711h88v-259h2q54 79 149 81q67 0 116.5 -34.5t74.5 -92.5t25 -132q0 -39 -6.5 -77.5t-23 -77.5t-41.5 -68t-65.5 -47.5t-91.5 -18.5q-93 0 -142 79h-2v-64zM422 260q0 26 -1.5 46.5t-10 50t-22.5 49t-41.5 34t-66.5 14.5q-139 0 -139 -219q0 -49 13.5 -85 t36 -54.5t45.5 -27t46 -8.5q69 0 104.5 55.5t35.5 144.5z" />
<glyph unicode="c" horiz-adv-x="495" d="M472 344h-84q-17 110 -123 110q-38 0 -67 -17t-44.5 -46t-23 -62t-7.5 -70q0 -199 141 -199q45 0 79 32.5t45 90.5h84q-3 -27 -10.5 -52.5t-24 -52.5t-39 -47t-58 -33t-79.5 -13q-107 0 -169 72.5t-62 187.5q0 61 15 112.5t44.5 91t78 62t110.5 22.5q49 0 86.5 -16.5 t59.5 -45t33.5 -60.5t14.5 -67z" />
<glyph unicode="d" d="M494 711v-711h-82v71h-2q-46 -86 -148 -86q-50 0 -90.5 18.5t-65.5 47.5t-41.5 68t-23 77.5t-6.5 77.5q0 113 57.5 186t157.5 73q33 0 60 -9t46 -25.5t28 -26.5t21 -27l2 6v260h87zM125 260q0 -89 35.5 -144.5t103.5 -55.5q23 0 46 8.5t45.5 27t36.5 54.5t14 85 q0 219 -140 219q-38 0 -66 -14.5t-42 -34t-22 -49t-9.5 -50t-1.5 -46.5z" />
<glyph unicode="e" d="M417 162h87q-3 -28 -26 -70.5t-66 -70.5q-54 -36 -141 -36q-107 0 -169 72.5t-62 187.5q0 48 9 91t29 79t48.5 62t70 41t91.5 15q110 0 166.5 -80.5t56.5 -221.5h-378q0 -55 16.5 -92.5t50.5 -58t83 -20.5q24 0 45.5 7t36.5 18t27 24.5t18 27t7 25.5zM133 300h288 q-10 154 -145 154q-59 0 -101 -46.5t-42 -107.5z" />
<glyph unicode="f" horiz-adv-x="275" d="M259 446h-87v-446h-87v446h-71v72h71v89q0 114 135 114q12 0 39 -2v-78q-21 2 -35 2q-28 0 -40 -14.5t-12 -46.5v-64h87v-72z" />
<glyph unicode="g" d="M130 260q0 -89 35.5 -144.5t103.5 -55.5q23 0 46 8.5t45.5 27t36.5 54.5t14 85q0 219 -140 219q-38 0 -66 -14.5t-42 -34t-22 -49t-9.5 -50t-1.5 -46.5zM494 518v-475q0 -24 -0.5 -39t-5.5 -45t-13.5 -50.5t-26 -46.5t-42.5 -42t-64 -27t-89 -11q-22 0 -42.5 2.5 t-48 12.5t-48 25.5t-37.5 45t-22 69.5h88q15 -83 116 -83q25 0 45 5t34.5 11t26 18.5t18.5 21.5t12 25.5t7 26t3.5 28t1.5 24.5v23v21h-2v-4q-9 -14 -21.5 -26t-29.5 -22t-39.5 -15.5t-47.5 -5.5q-50 0 -90.5 18.5t-65.5 47.5t-41.5 68t-23 77.5t-6.5 77.5q0 113 57.5 186 t157.5 73q33 0 60 -9t46 -25.5t28 -26.5t21 -27h2v73h82z" />
<glyph unicode="h" d="M486 352v-352h-87v339q0 57 -22 86t-81 29q-61 0 -103 -40.5t-42 -131.5v-282h-87v711h87v-263h2q13 16 24 28t29.5 26.5t44 22.5t54.5 8q26 0 49.5 -4.5t48.5 -17t42.5 -32t29 -52t11.5 -75.5z" />
<glyph unicode="i" horiz-adv-x="219" d="M153 518v-518h-87v518h87zM153 612h-87v99h87v-99z" />
<glyph unicode="j" horiz-adv-x="219" d="M153 518v-594q0 -18 -1 -31.5t-8.5 -34t-20.5 -33.5t-39.5 -23t-62.5 -10q-18 0 -37 3v75h18q40 0 52 10.5t12 53.5v584h87zM153 711v-99h-87v99h87z" />
<glyph unicode="k" horiz-adv-x="495" d="M286 325l210 -325h-112l-161 261l-73 -65v-196h-84v711h84v-412l223 219h111z" />
<glyph unicode="l" horiz-adv-x="219" d="M153 711v-711h-87v711h87z" />
<glyph unicode="m" horiz-adv-x="824" d="M64 0v518h83v-73h1q60 88 157 88q33 0 58 -8.5t41 -24.5t23 -26t16 -26q20 23 32.5 35t32 25t42 19t51.5 6q19 0 38 -4t42 -16t40 -30.5t28.5 -50.5t11.5 -74v-358h-87v335q0 37 -8 62.5t-30 41t-58 15.5q-53 0 -87.5 -42t-34.5 -96v-316h-87v358q0 40 -18.5 68t-62.5 28 q-21 0 -42.5 -7.5t-44 -25t-36.5 -53.5t-14 -86v-282h-87z" />
<glyph unicode="n" d="M486 352v-352h-87v319q0 70 -24.5 102.5t-86.5 32.5q-21 0 -42.5 -7.5t-44 -25t-36.5 -53.5t-14 -86v-282h-87v518h83v-73h1q60 88 157 88q26 0 49.5 -4.5t48.5 -17t42.5 -32t29 -52t11.5 -75.5z" />
<glyph unicode="o" d="M35 259q0 34 6.5 67t19 63.5t32.5 56.5t46 45.5t61 30.5t75 11q60 0 107 -24t75.5 -63.5t43.5 -87t15 -99t-15 -99.5t-43.5 -87.5t-75.5 -63t-107 -23.5q-48 0 -88 15.5t-68 42t-47 62t-28 74t-9 79.5zM125 259.5q0 -23.5 3.5 -47.5t13.5 -52t26 -49t44 -35.5t63.5 -14.5 t63 14.5t43.5 35.5t26.5 49t14 52t3.5 47.5t-3.5 47.5t-14 52t-26.5 49t-43.5 35t-63 14t-63.5 -14t-44 -35t-26 -49t-13.5 -52t-3.5 -47.5z" />
<glyph unicode="p" d="M141 235q0 -49 13.5 -85t36 -54.5t45.5 -27t46 -8.5q69 0 104.5 55.5t35.5 144.5q0 26 -1.5 46.5t-10 50t-22.5 49t-41.5 34t-66.5 14.5q-139 0 -139 -219zM57 -205v723h83v-73h2q12 17 20.5 27t27.5 26.5t46 25.5t60 9q67 0 116.5 -34.5t74.5 -92.5t25 -132 q0 -39 -6.5 -77.5t-23 -77.5t-41.5 -68t-65.5 -47.5t-91.5 -18.5q-49 0 -84 19.5t-53 49.5h-2v-259h-88z" />
<glyph unicode="q" d="M489 518v-723h-87v259h-2q-19 -30 -54 -49.5t-84 -19.5q-50 0 -90.5 18.5t-65.5 47.5t-41.5 68t-23 77.5t-6.5 77.5q0 113 57.5 186t157.5 73q33 0 60 -9t46 -25.5t28 -26.5t21 -27h2v73h82zM406 235q0 219 -140 219q-38 0 -66 -14.5t-42 -34t-22 -49t-9.5 -50 t-1.5 -46.5q0 -89 35.5 -144.5t103.5 -55.5q23 0 46 8.5t45.5 27t36.5 54.5t14 85z" />
<glyph unicode="r" horiz-adv-x="329" d="M163 301v-301h-87v518h82v-86h2q58 101 146 101q12 0 23 -3v-90h-33q-59 0 -96 -40.5t-37 -98.5z" />
<glyph unicode="s" horiz-adv-x="495" d="M443 370h-85q-2 87 -122 87q-14 0 -28.5 -2.5t-33 -9.5t-30 -22.5t-11.5 -38.5q0 -30 19.5 -42.5t74.5 -26.5l87 -22q80 -20 112.5 -51.5t32.5 -85.5q0 -52 -27 -91t-73 -59.5t-105 -20.5q-37 0 -68 5t-52.5 15t-38.5 21t-27.5 26.5t-18 29t-11 30.5t-5 28.5t-1.5 25.5 h84q1 -15 3.5 -26.5t11 -27.5t22 -26.5t39.5 -18t61 -7.5q51 0 85 21t34 62q0 29 -22 44t-81 30l-101 25q-119 29 -119 125q0 81 56.5 123.5t139.5 42.5q52 0 91 -15t58.5 -34.5t31.5 -45t14.5 -41t2.5 -27.5z" />
<glyph unicode="t" horiz-adv-x="275" d="M254 446h-83v-337q0 -14 5.5 -23t15 -12.5t16 -4.5t16.5 -1h30v-68q-10 -1 -21.5 -2.5t-19.5 -2.5t-14.5 -1.5t-9.5 -0.5q-60 0 -82.5 29t-22.5 82v342h-70v72h70v144h87v-144h83v-72z" />
<glyph unicode="u" d="M484 0h-82v75l-2 2q-19 -31 -40.5 -50.5t-52.5 -30.5t-71 -11q-31 0 -59 8t-53.5 25.5t-41 50t-15.5 77.5v372h87v-344q0 -114 100 -114q40 0 69 16t44.5 42.5t22.5 55t7 59.5v285h87v-518z" />
<glyph unicode="v" horiz-adv-x="495" d="M246 96l146 422h95l-197 -518h-93l-189 518h101l135 -422h2z" />
<glyph unicode="w" horiz-adv-x="714" d="M354 401l-101 -401h-90l-149 518h95l99 -407h2l100 407h97l101 -407h2l105 407h87l-151 -518h-90l-105 401h-2z" />
<glyph unicode="x" horiz-adv-x="495" d="M303 266l182 -266h-111l-128 195l-125 -195h-110l182 266l-173 252h112l119 -182l120 182h107z" />
<glyph unicode="y" horiz-adv-x="495" d="M249 96l139 422h96q-131 -367 -186 -508l-28 -70t-23 -53t-20 -40t-19.5 -26t-21 -18.5t-24.5 -9t-29.5 -5t-37.5 -0.5q-9 0 -37 8v79q25 -9 53 -9q33 0 46 18.5t46 101.5l-192 532h99l138 -422h1z" />
<glyph unicode="z" horiz-adv-x="495" d="M455 446l-308 -374h317v-72h-433v68l312 378h-289v72h401v-72z" />
<glyph unicode="{" horiz-adv-x="330" d="M42 232v59q34 0 57 36t23 90v170q0 58 30 93t71 35h66v-65h-43q-46 0 -46 -81v-168q-2 -34 -13 -61.5t-25.5 -43t-27 -23.5t-21.5 -11v-2q10 -3 21.5 -10.5t26.5 -23t26 -43.5t13 -64v-168q0 -81 46 -81h43v-64h-66q-41 0 -71 35t-30 93v169q0 55 -23 92t-57 37z" />
<glyph unicode="|" horiz-adv-x="257" d="M93 -19v749h72v-749h-72z" />
<glyph unicode="}" horiz-adv-x="330" d="M289 291v-59q-22 0 -40.5 -16.5t-29 -46.5t-10.5 -66v-169q0 -58 -30.5 -93t-70.5 -35h-66v64h43q46 0 46 81v168q2 36 12.5 64t26 43.5t27 23t21.5 10.5v2q-6 2 -13.5 6t-17 11t-18.5 18.5t-17.5 25.5t-14 34.5t-6.5 43.5v168q0 81 -46 81h-43v65h66q40 0 70.5 -35 t30.5 -93v-170q0 -36 10.5 -64.5t29 -45t40.5 -16.5z" />
<glyph unicode="~" horiz-adv-x="578" d="M482 323l36 -56q-53 -85 -124 -85q-41 0 -101 33q-62 34 -114 34q-50 0 -83 -71l-36 56q45 85 124 85q39 0 110 -32q78 -36 101 -36q18 0 35.5 12t27 24.5t24.5 35.5z" />
<glyph unicode="&#xa1;" horiz-adv-x="329" d="M117 417v101h96v-101h-96zM141 348h48l24 -306v-235h-96v235z" />
<glyph unicode="&#xa2;" d="M210 77l107 377q-8 3 -29 3q-32 0 -59 -12.5t-47.5 -38t-32 -67.5t-11.5 -96t20 -100t52 -66zM504 342h-81q-4 16 -8 27t-11.5 27.5t-19.5 28t-29 18.5l-108 -383q13 -4 34 -4q53 0 89.5 27t53.5 98h84q-3 -24 -11 -48.5t-25 -52.5t-41 -49.5t-62 -35.5t-85 -14 q-16 0 -59 7l-31 -102h-41l34 113q-61 30 -99 91.5t-38 152.5q0 139 64 214.5t180 75.5q28 0 43 -6l25 90h39l-25 -99q12 -4 26 -11t31 -21t31 -33t25.5 -48t14.5 -63z" />
<glyph unicode="&#xa3;" d="M202 376h165v-62h-136q9 -34 9 -66q0 -45 -30.5 -94.5t-89.5 -89.5l2 2v-2q64 37 129 37q34 0 91 -17.5t76 -17.5t41 9.5t34 21.5l41 -65q-63 -48 -126 -48q-28 0 -98.5 22.5t-108.5 22.5q-52 0 -116 -40l-48 68q36 24 61.5 52.5t37.5 54t16.5 44.5t4.5 35q0 28 -18 71 h-106v62h68q0 1 -6.5 14t-8 15.5t-7 15t-7 17.5t-5 16t-5 18.5t-3 17.5t-1.5 19q0 26 7 52.5t24.5 54t44.5 48t70.5 34t98.5 13.5q54 0 96 -18.5t67 -49t37.5 -67t12.5 -76.5v-15h-87v9q0 62 -38 102t-98 40q-38 0 -67.5 -13.5t-44.5 -33.5t-22.5 -39t-7.5 -36q0 -27 12 -58 t39 -80z" />
<glyph unicode="&#xa4;" d="M475 597l48 -48l-55 -53q50 -57 50 -149q0 -88 -50 -149l54 -55l-45 -45l-54 57q-59 -54 -147.5 -54t-147.5 54l-55 -57l-44 45l53 55q-49 61 -49 149q0 92 49 149l-54 53l47 48l57 -55q58 50 143.5 50t143.5 -50zM105 347q0 -71 50 -124t120.5 -53t120.5 53t50 124 t-50.5 123.5t-120.5 52.5q-46 0 -85.5 -24.5t-62 -65t-22.5 -86.5z" />
<glyph unicode="&#xa5;" d="M42 324v56h152l-191 301h99l173 -292l173 292h99l-191 -301h154v-56h-191v-84h191v-57h-191v-183h-87v183h-190v57h190v84h-190z" />
<glyph unicode="&#xa6;" horiz-adv-x="257" d="M93 -19v291h72v-291h-72zM93 455v275h72v-275h-72z" />
<glyph unicode="&#xa7;" d="M455 548h-84q-1 15 -2 24t-7 26.5t-15 28t-28.5 19t-45.5 8.5q-34 0 -62.5 -19.5t-28.5 -60.5q0 -26 18 -46.5t54 -42.5l145 -85q34 -20 55.5 -39t37 -50t15.5 -69q0 -57 -27.5 -93.5t-74.5 -65.5q26 -27 38.5 -52.5t12.5 -60.5q0 -72 -55 -115.5t-124 -43.5 q-88 0 -141.5 46t-53.5 140h87q0 -13 1.5 -24.5t7 -28.5t15.5 -28.5t28.5 -20.5t43.5 -9q17 0 32.5 3t33 11t28 25.5t10.5 42.5q0 24 -13 42t-41 37l-208 138q-25 17 -40.5 41t-19.5 43t-4 37q0 58 25 93t74 63q-26 29 -36.5 50t-10.5 49q0 29 10 57.5t30 54t56 41.5t82 16 q26 0 50 -5t48.5 -17.5t42.5 -32t29.5 -52t11.5 -75.5zM363 318l-172 106q-66 -34 -66 -96q0 -57 44 -84l187 -121q34 22 51.5 43.5t17.5 56.5q0 57 -62 95z" />
<glyph unicode="&#xa8;" horiz-adv-x="329" d="M130 699v-101h-90v101h90zM290 699v-101h-90v101h90z" />
<glyph unicode="&#xa9;" horiz-adv-x="729" d="M366 -19q-102 0 -189 48t-139 135t-52 192t52 191.5t139 134.5t189 48t188.5 -48t138 -134.5t51.5 -191.5t-51.5 -192t-138 -135t-188.5 -48zM61 356q0 -134 88 -223t217 -89q63 0 119 23.5t96.5 64.5t64 99.5t23.5 124.5q0 133 -87.5 222t-215.5 89q-129 0 -217 -89 t-88 -222zM496 286h67q-9 -48 -35.5 -84.5t-64.5 -55.5t-84 -19q-99 0 -160 65.5t-61 164.5q0 101 59 165t158 64q74 0 125.5 -41t61.5 -114h-66q-9 41 -41 65.5t-79 24.5q-67 0 -104.5 -45.5t-37.5 -117.5q0 -69 40 -117.5t105 -48.5q47 0 78.5 26t38.5 68z" />
<glyph unicode="&#xaa;" horiz-adv-x="366" d="M343 449v-43q-25 -5 -32 -5q-34 0 -46 13t-14 37q-50 -50 -121 -50q-31 0 -55 11.5t-37.5 32t-13.5 46.5q0 88 111 101l87 10q11 2 17.5 9.5t6.5 28.5q0 16 -19 27t-57 11q-19 0 -33.5 -4t-22 -9.5t-12.5 -14t-6 -13.5t-2 -11h-53q4 104 139 104q15 0 32 -3t40.5 -10.5 t38.5 -27t15 -46.5v-177q0 -19 18 -19q5 0 19 2zM144 452q41 0 72.5 21.5t29.5 52.5v38q-10 -9 -92 -20q-68 -7 -68 -42q0 -50 58 -50zM35 348h293v-47h-293v47z" />
<glyph unicode="&#xab;" d="M251 194v-87l-155 122v91l155 122v-88l-103 -80zM454 194v-87l-155 122v91l155 122v-88l-104 -80z" />
<glyph unicode="&#xac;" horiz-adv-x="578" d="M467 107v207h-428v72h501v-279h-73z" />
<glyph unicode="&#xad;" horiz-adv-x="329" d="M286 319v-89h-242v89h242z" />
<glyph unicode="&#xae;" horiz-adv-x="729" d="M366 -19q-102 0 -189 48t-139 135t-52 192t52 191.5t139 134.5t189 48t188.5 -48t138 -134.5t51.5 -191.5t-51.5 -192t-138 -135t-188.5 -48zM61 356q0 -134 88 -223t217 -89q63 0 119 23.5t96.5 64.5t64 99.5t23.5 124.5q0 133 -87.5 222t-215.5 89q-129 0 -217 -89 t-88 -222zM287 327v-187h-65v431h164q77 0 115 -29.5t38 -93.5q0 -37 -15.5 -63t-39.5 -38.5t-57 -16.5l122 -190h-73l-114 187h-75zM287 382h78q17 0 27.5 0.5t24 3t22 7t16.5 12t11.5 19.5t3.5 28q0 64 -94 64h-89v-134z" />
<glyph unicode="&#xaf;" horiz-adv-x="329" d="M320 677v-56h-310v56h310z" />
<glyph unicode="&#xb0;" horiz-adv-x="396" d="M198 653q-26 0 -48.5 -14.5t-35.5 -38t-13 -49.5q0 -39 29 -70.5t68 -31.5q19 0 37 9t31 23t21 32.5t8 37.5q0 40 -29 71t-68 31zM343 551.5q0 -61.5 -41.5 -103t-103.5 -41.5t-103.5 41.5t-41.5 103t41.5 103t103.5 41.5t103.5 -41.5t41.5 -103z" />
<glyph unicode="&#xb1;" horiz-adv-x="578" d="M253 342v159h73v-159h214v-73h-214v-159h-73v159h-214v73h214zM39 0v72h501v-72h-501z" />
<glyph unicode="&#xb2;" horiz-adv-x="329" d="M78 546h-59q0 33 8 58.5t22 41t29.5 26.5t34.5 15.5t33.5 6.5t28.5 2q63 0 104 -34t41 -91q0 -51 -29.5 -81t-88.5 -59l-45 -23q-54 -29 -79 -69h242v-61h-316q3 62 29.5 101t73.5 65l59 32q3 1 7 4q23 12 33 18.5t22.5 17.5t17 24.5t4.5 32.5q3 26 -17 46t-66 20 q-23 0 -40.5 -8t-26 -17t-14 -25t-6.5 -23t-2 -20z" />
<glyph unicode="&#xb3;" horiz-adv-x="329" d="M5 406h67q1 -16 4 -28t11.5 -25.5t26 -20.5t43.5 -7q22 0 39.5 4t30 12.5t19 22t6.5 31.5q0 20 -7 34.5t-16.5 21.5t-26 10.5t-26.5 4t-26 0.5h-22v51h26q82 0 82 66q0 22 -17 39t-63 17q-75 0 -80 -80h-60q0 26 7 48t22.5 43t46.5 33.5t73 12.5q65 0 102.5 -30.5 t37.5 -79.5q0 -36 -18 -58t-40 -28v-2q75 -20 75 -96q0 -57 -41.5 -96t-124.5 -39q-45 0 -83 19q-60 29 -68 120z" />
<glyph unicode="&#xb4;" horiz-adv-x="329" d="M316 727l-129 -140h-66l88 140h107z" />
<glyph unicode="&#xb5;" d="M484 0h-82v75l-2 2q-19 -31 -40.5 -50.5t-52.5 -30.5t-71 -11q-54 0 -80 34h-2v-224h-87v351v372h87v-344q0 -114 100 -114q40 0 69 16t44.5 42.5t22.5 55t7 59.5v285h87v-518z" />
<glyph unicode="&#xb6;" horiz-adv-x="531" d="M230 -171v512q-94 0 -153 51.5t-59 130.5q0 95 60.5 141.5t168.5 46.5h245v-882h-72v822h-118v-822h-72z" />
<glyph unicode="&#xb7;" horiz-adv-x="275" d="M139 312q23 0 42 -18.5t19 -44.5q0 -24 -18 -42.5t-44 -18.5q-25 0 -43.5 18.5t-18.5 42.5q0 27 18.5 45t44.5 18z" />
<glyph unicode="&#xb8;" horiz-adv-x="329" d="M78 -85l64 85h46l-45 -61q21 4 30 4q44 0 63.5 -23t19.5 -52q0 -39 -31.5 -65t-84.5 -26q-44 0 -95 22l16 40q38 -15 65 -15q55 0 55 41q0 21 -16 30t-31 9q-11 0 -39 -8z" />
<glyph unicode="&#xb9;" horiz-adv-x="329" d="M149 571h-106v46q25 1 39 3t29.5 7t24 13t16 22t12.5 34h56v-418h-71v293z" />
<glyph unicode="&#xba;" horiz-adv-x="361" d="M338 565q0 -46 -14 -79.5t-37.5 -51t-49.5 -25.5t-56 -8t-56 8t-49.5 25.5t-37 51t-13.5 79.5t13.5 79.5t37 51.5t49.5 26t56 8t56 -8t49.5 -26t37.5 -51.5t14 -79.5zM271 565q0 19 -3 36t-12 35.5t-28 30t-47 11.5q-19 0 -34 -5.5t-24 -15t-16 -20.5t-10 -24.5 t-4.5 -24.5t-1.5 -23q0 -18 3.5 -35t12 -36t28 -30.5t46.5 -11.5q19 0 34 5.5t24.5 15t16 21t10 25t4.5 24.5t1 22zM35 348h293v-47h-293v47z" />
<glyph unicode="&#xbb;" d="M251 229l-155 -122v87l104 80l-104 80v88l155 -122v-91zM454 229l-155 -122v87l104 80l-104 80v88l155 -122v-91z" />
<glyph unicode="&#xbc;" horiz-adv-x="825" d="M415 93v59l204 266h63v-268h66v-57h-66v-93h-63v93h-204zM619 150v186h-2l-141 -186h143zM646 696l-437 -715h-57l438 715h56zM179 574h-107v43q61 4 85.5 17.5t36.5 61.5h53v-418h-68v296z" />
<glyph unicode="&#xbd;" horiz-adv-x="825" d="M611 696l-438 -715h-56l437 715h57zM149 571h-106v46q25 1 39 3t29.5 7t24 13t16 22t12.5 34h56v-418h-71v293zM524 268h-60q0 39 12 68t29 44t40 24t40.5 11.5t35.5 2.5q62 0 103 -34t41 -91q0 -51 -29.5 -81t-88.5 -60l-44 -22q-55 -29 -79 -70h241v-60h-316 q3 61 29.5 100t73.5 65l60 33q2 1 7 4q22 12 32.5 18.5t23 17.5t17 24.5t4.5 32.5q3 26 -17.5 45.5t-65.5 19.5q-24 0 -41 -7.5t-26 -17t-14 -25t-6 -22.5t-2 -20z" />
<glyph unicode="&#xbe;" horiz-adv-x="825" d="M468 93v59l204 266h64v-268h66v-57h-66v-93h-64v93h-204zM670 336l-140 -186h142v186h-2zM705 696l-438 -715h-56l437 715h57zM45 406h67q1 -13 2.5 -22.5t7 -21t14 -19.5t24.5 -13t37 -5q29 0 50 7t33 23t12 40q0 20 -7.5 34.5t-17 21.5t-25.5 10.5t-26 4t-26 0.5h-23 v51h27q81 0 81 66q0 22 -17 39t-62 17q-76 0 -80 -80h-61q0 26 7 48t23 43t47 33.5t73 12.5q64 0 102 -30.5t38 -79.5q0 -36 -18 -58t-41 -28v-2q75 -20 75 -96q0 -57 -41 -96t-124 -39q-46 0 -83 19q-61 29 -68 120z" />
<glyph unicode="&#xbf;" horiz-adv-x="604" d="M435 33h87q-2 -34 -4 -51.5t-9 -44.5t-23.5 -49t-41.5 -41q-59 -46 -144 -46q-88 0 -149 51.5t-61 142.5q0 47 19.5 79.5t73.5 83.5q25 24 34 33.5t23 27.5t18.5 32.5t8 36.5t2.5 52h87q0 -34 -3.5 -59.5t-9 -43.5t-19 -37.5t-25.5 -33.5t-37 -39q-38 -40 -51 -55.5 t-20.5 -34.5t-7.5 -48q0 -18 5.5 -35.5t18 -36t37.5 -30t59 -11.5q132 0 132 157zM262 419v101h96v-101h-96z" />
<glyph unicode="&#xc0;" horiz-adv-x="660" d="M472 207h-285l-74 -207h-99l267 711h109l257 -711h-104zM217 292h221l-105 313h-2zM308 780l-129 140h107l88 -140h-66z" />
<glyph unicode="&#xc1;" horiz-adv-x="660" d="M472 207h-285l-74 -207h-99l267 711h109l257 -711h-104zM217 292h221l-105 313h-2zM481 920l-129 -140h-66l88 140h107z" />
<glyph unicode="&#xc2;" horiz-adv-x="660" d="M472 207h-285l-74 -207h-99l267 711h109l257 -711h-104zM217 292h221l-105 313h-2zM330 872l-66 -92h-78l98 140h92l98 -140h-79z" />
<glyph unicode="&#xc3;" horiz-adv-x="660" d="M472 207h-285l-74 -207h-99l267 711h109l257 -711h-104zM217 292h221l-105 313h-2zM449 908h50q-5 -47 -31.5 -77.5t-67.5 -30.5q-20 0 -58 13l-26 9q-44 15 -61 15q-33 0 -46 -44h-48q15 106 103 106q29 0 68 -15l21 -9q31 -13 47 -13q14 0 23.5 4t14.5 12.5t7 14 t4 15.5z" />
<glyph unicode="&#xc4;" horiz-adv-x="660" d="M472 207h-285l-74 -207h-99l267 711h109l257 -711h-104zM217 292h221l-105 313h-2zM295 892v-101h-90v101h90zM455 892v-101h-90v101h90z" />
<glyph unicode="&#xc5;" horiz-adv-x="660" d="M472 207h-285l-74 -207h-99l267 711h109l257 -711h-104zM217 292h221l-105 313h-2zM330.5 922q39.5 0 65.5 -26t26 -65.5t-26 -65t-65.5 -25.5t-65 25.5t-25.5 65t25.5 65.5t65 26zM279 831q0 -22 15 -37t37 -15q10 0 19.5 4t16.5 11t11 16.5t4 20.5q0 21 -15 36t-36 15 q-14 0 -26 -7t-19 -18.5t-7 -25.5z" />
<glyph unicode="&#xc6;" horiz-adv-x="990" d="M190 207l-78 -207h-104l289 711h638v-85h-387v-218h353v-85h-353v-238h393v-85h-489v207h-262zM452 292v334h-96l-131 -334h227z" />
<glyph unicode="&#xc7;" horiz-adv-x="714" d="M667 497h-93q-9 44 -31.5 75t-53 46t-57.5 20.5t-57 5.5q-49 0 -90.5 -18t-73.5 -52.5t-50 -88.5t-18 -123q0 -65 12 -117t39 -93t73.5 -63.5t110.5 -22.5q21 0 42 4.5t47 17.5t47 33.5t39.5 56.5t27.5 83h93q-8 -55 -27 -99.5t-42 -73t-53 -50t-56 -32t-55 -16.5 t-45.5 -7.5t-32.5 -1.5q-50 0 -95 13t-86.5 42t-72 72t-48 107.5t-17.5 143.5q0 167 89 269t242 102q66 0 120.5 -19.5t89.5 -52.5t56 -74t26 -87zM271 -85l64 85h46l-45 -61q21 4 30 4q44 0 63.5 -23t19.5 -52q0 -39 -31.5 -65t-84.5 -26q-44 0 -95 22l16 40q38 -15 65 -15 q55 0 55 41q0 21 -16 30t-31 9q-11 0 -39 -8z" />
<glyph unicode="&#xc8;" horiz-adv-x="660" d="M610 85v-85h-525v711h518v-85h-422v-218h389v-85h-389v-238h429zM308 780l-129 140h107l88 -140h-66z" />
<glyph unicode="&#xc9;" horiz-adv-x="660" d="M610 85v-85h-525v711h518v-85h-422v-218h389v-85h-389v-238h429zM481 920l-129 -140h-66l88 140h107z" />
<glyph unicode="&#xca;" horiz-adv-x="660" d="M610 85v-85h-525v711h518v-85h-422v-218h389v-85h-389v-238h429zM330 872l-66 -92h-78l98 140h92l98 -140h-79z" />
<glyph unicode="&#xcb;" horiz-adv-x="660" d="M610 85v-85h-525v711h518v-85h-422v-218h389v-85h-389v-238h429zM295 892v-101h-90v101h90zM455 892v-101h-90v101h90z" />
<glyph unicode="&#xcc;" horiz-adv-x="275" d="M186 711v-711h-96v711h96zM116 780l-129 140h107l88 -140h-66z" />
<glyph unicode="&#xcd;" horiz-adv-x="275" d="M186 711v-711h-96v711h96zM289 920l-129 -140h-66l88 140h107z" />
<glyph unicode="&#xce;" horiz-adv-x="275" d="M186 711v-711h-96v711h96zM138 872l-66 -92h-78l98 140h92l98 -140h-79z" />
<glyph unicode="&#xcf;" horiz-adv-x="275" d="M186 711v-711h-96v711h96zM103 892v-101h-90v101h90zM263 892v-101h-90v101h90z" />
<glyph unicode="&#xd0;" horiz-adv-x="714" d="M366 408v-85h-190v-241h186q63 0 109 31.5t71.5 94.5t25.5 151q0 132 -56.5 201t-156.5 69h-179v-221h190zM0 323v85h80v303h288q138 0 218.5 -95t80.5 -251q0 -18 -1.5 -39.5t-8 -59t-18.5 -71t-35 -70.5t-53.5 -63.5t-79 -44t-107.5 -17.5h-284v323h-80z" />
<glyph unicode="&#xd1;" horiz-adv-x="714" d="M546 137v574h94v-711h-108l-362 574h-2v-574h-93v711h114l355 -574h2zM487 908h50q-6 -47 -32.5 -77.5t-66.5 -30.5q-20 0 -59 13l-26 9q-43 15 -60 15q-33 0 -46 -44h-48q14 106 103 106q28 0 67 -15l22 -9q31 -13 47 -13q14 0 23.5 4t14.5 12.5t7 14t4 15.5z" />
<glyph unicode="&#xd2;" horiz-adv-x="770" d="M633 355q0 128 -67 208.5t-181 80.5q-76 0 -132.5 -37t-85.5 -102.5t-29 -149.5q0 -127 66.5 -208t180.5 -81q76 0 132.5 37.5t86 103t29.5 148.5zM732 355q0 -49 -10.5 -98t-36 -99.5t-63.5 -89t-99.5 -63t-137.5 -24.5t-137.5 24.5t-99.5 63t-63.5 89t-35.5 99.5 t-10 98t10 98t35.5 100t63.5 89.5t99.5 63t137.5 24.5t137.5 -24.5t99.5 -63t63.5 -89.5t36 -100t10.5 -98zM363 780l-128 140h107l88 -140h-67z" />
<glyph unicode="&#xd3;" horiz-adv-x="770" d="M633 355q0 128 -67 208.5t-181 80.5q-76 0 -132.5 -37t-85.5 -102.5t-29 -149.5q0 -127 66.5 -208t180.5 -81q76 0 132.5 37.5t86 103t29.5 148.5zM732 355q0 -49 -10.5 -98t-36 -99.5t-63.5 -89t-99.5 -63t-137.5 -24.5t-137.5 24.5t-99.5 63t-63.5 89t-35.5 99.5 t-10 98t10 98t35.5 100t63.5 89.5t99.5 63t137.5 24.5t137.5 -24.5t99.5 -63t63.5 -89.5t36 -100t10.5 -98zM537 920l-129 -140h-66l88 140h107z" />
<glyph unicode="&#xd4;" horiz-adv-x="770" d="M633 355q0 128 -67 208.5t-181 80.5q-76 0 -132.5 -37t-85.5 -102.5t-29 -149.5q0 -127 66.5 -208t180.5 -81q76 0 132.5 37.5t86 103t29.5 148.5zM732 355q0 -49 -10.5 -98t-36 -99.5t-63.5 -89t-99.5 -63t-137.5 -24.5t-137.5 24.5t-99.5 63t-63.5 89t-35.5 99.5 t-10 98t10 98t35.5 100t63.5 89.5t99.5 63t137.5 24.5t137.5 -24.5t99.5 -63t63.5 -89.5t36 -100t10.5 -98zM385 872l-65 -92h-78l98 140h92l98 -140h-80z" />
<glyph unicode="&#xd5;" horiz-adv-x="770" d="M633 355q0 128 -67 208.5t-181 80.5q-76 0 -132.5 -37t-85.5 -102.5t-29 -149.5q0 -127 66.5 -208t180.5 -81q76 0 132.5 37.5t86 103t29.5 148.5zM732 355q0 -49 -10.5 -98t-36 -99.5t-63.5 -89t-99.5 -63t-137.5 -24.5t-137.5 24.5t-99.5 63t-63.5 89t-35.5 99.5 t-10 98t10 98t35.5 100t63.5 89.5t99.5 63t137.5 24.5t137.5 -24.5t99.5 -63t63.5 -89.5t36 -100t10.5 -98zM505 908h49q-3 -30 -15.5 -54.5t-34 -39t-49.5 -14.5q-19 0 -58 13l-26 9q-43 15 -60 15q-33 0 -47 -44h-47q14 106 103 106q28 0 67 -15l22 -9q30 -13 46 -13 q14 0 24 4t15 12.5t7 14t4 15.5z" />
<glyph unicode="&#xd6;" horiz-adv-x="770" d="M633 355q0 128 -67 208.5t-181 80.5q-76 0 -132.5 -37t-85.5 -102.5t-29 -149.5q0 -127 66.5 -208t180.5 -81q76 0 132.5 37.5t86 103t29.5 148.5zM732 355q0 -49 -10.5 -98t-36 -99.5t-63.5 -89t-99.5 -63t-137.5 -24.5t-137.5 24.5t-99.5 63t-63.5 89t-35.5 99.5 t-10 98t10 98t35.5 100t63.5 89.5t99.5 63t137.5 24.5t137.5 -24.5t99.5 -63t63.5 -89.5t36 -100t10.5 -98zM350 892v-101h-90v101h90zM511 892v-101h-90v101h90z" />
<glyph unicode="&#xd7;" horiz-adv-x="578" d="M239 250l-200 200l51 51l199 -199l200 199l51 -51l-199 -200l199 -200l-51 -50l-200 199l-200 -199l-50 50z" />
<glyph unicode="&#xd8;" horiz-adv-x="770" d="M584 538l-369 -401q65 -71 170 -71q76 0 132.5 37.5t86 103t29.5 148.5q0 110 -49 183zM188 169l370 403q-66 72 -173 72q-76 0 -132.5 -37t-85.5 -102.5t-29 -149.5q0 -108 50 -186zM733 700l-83 -90q42 -54 62 -121.5t20 -133.5q0 -49 -10.5 -98t-36 -99.5t-63.5 -89 t-99.5 -63t-137.5 -24.5q-144 0 -234 86l-79 -86l-31 28l82 89q-30 36 -49.5 82.5t-27 89t-7.5 85.5q0 49 10 98t35.5 100t63.5 89.5t99.5 63t137.5 24.5q149 0 237 -88l80 88z" />
<glyph unicode="&#xd9;" horiz-adv-x="714" d="M542 711h96v-462q0 -55 -18 -103t-52 -85t-90 -58.5t-127 -21.5q-69 0 -122.5 21t-85.5 57.5t-48.5 81t-16.5 96.5v474h96v-448q0 -55 15.5 -95t42.5 -61.5t57.5 -31t64.5 -9.5q36 0 67 9.5t59.5 30t45 60.5t16.5 95v450zM336 780l-129 140h107l88 -140h-66z" />
<glyph unicode="&#xda;" horiz-adv-x="714" d="M542 711h96v-462q0 -55 -18 -103t-52 -85t-90 -58.5t-127 -21.5q-69 0 -122.5 21t-85.5 57.5t-48.5 81t-16.5 96.5v474h96v-448q0 -55 15.5 -95t42.5 -61.5t57.5 -31t64.5 -9.5q36 0 67 9.5t59.5 30t45 60.5t16.5 95v450zM509 920l-129 -140h-66l88 140h107z" />
<glyph unicode="&#xdb;" horiz-adv-x="714" d="M542 711h96v-462q0 -55 -18 -103t-52 -85t-90 -58.5t-127 -21.5q-69 0 -122.5 21t-85.5 57.5t-48.5 81t-16.5 96.5v474h96v-448q0 -55 15.5 -95t42.5 -61.5t57.5 -31t64.5 -9.5q36 0 67 9.5t59.5 30t45 60.5t16.5 95v450zM357 872l-65 -92h-78l98 140h92l98 -140h-79z " />
<glyph unicode="&#xdc;" horiz-adv-x="714" d="M542 711h96v-462q0 -55 -18 -103t-52 -85t-90 -58.5t-127 -21.5q-69 0 -122.5 21t-85.5 57.5t-48.5 81t-16.5 96.5v474h96v-448q0 -55 15.5 -95t42.5 -61.5t57.5 -31t64.5 -9.5q36 0 67 9.5t59.5 30t45 60.5t16.5 95v450zM323 892v-101h-90v101h90zM483 892v-101h-90v101 h90z" />
<glyph unicode="&#xdd;" horiz-adv-x="660" d="M378 286v-286h-96v286l-268 425h112l204 -342l204 342h112zM481 920l-129 -140h-66l88 140h107z" />
<glyph unicode="&#xde;" horiz-adv-x="660" d="M181 511v-247h191q69 0 107 30t38 98q0 119 -141 119h-195zM85 0v711h96v-118h224q64 0 112.5 -26t73.5 -71t25 -103q0 -39 -12 -75t-35.5 -67t-66 -50t-97.5 -19h-224v-182h-96z" />
<glyph unicode="&#xdf;" horiz-adv-x="604" d="M66 0v527q0 87 60 140.5t169 53.5t173 -48.5t64 -129.5q0 -34 -8.5 -60.5t-25 -44.5t-25 -25t-23.5 -17q52 -14 83.5 -63t31.5 -97q0 -126 -68.5 -188.5t-180.5 -62.5q-20 0 -53 7v74q23 -3 44 -3q54 0 91.5 16.5t57 49.5t19.5 83q0 74 -43.5 106t-124.5 32q-23 0 -39 -4 v79q18 -2 23 -2q35 0 61.5 6t44 16t28.5 25t15.5 30.5t4.5 34.5q0 49 -39 79.5t-112 30.5q-41 0 -69 -9.5t-43.5 -29t-22 -44t-6.5 -57.5v-505h-87z" />
<glyph unicode="&#xe0;" d="M142 360h-81q6 173 214 173q17 0 36.5 -2.5t49 -11t51.5 -23t38.5 -42.5t16.5 -66v-298q0 -31 29 -31q9 0 29 4v-63q-37 -10 -48 -10q-52 0 -70.5 21t-21.5 58q-21 -23 -41 -39t-59.5 -30.5t-86.5 -14.5q-72 0 -117 41.5t-45 108.5q0 13 1.5 26t6.5 31t16 33.5t27.5 30.5 t43.5 26t62 15l144 18q12 1 21 5t16.5 18t7.5 38q0 84 -122 84q-35 0 -59 -9t-35.5 -26.5t-16.5 -31t-7 -33.5zM380 179v85q-11 -9 -39.5 -16t-103.5 -16q-21 -3 -36.5 -7t-34.5 -13t-29.5 -25t-10.5 -39q0 -91 94 -91q62 0 111 35.5t49 86.5zM253 587l-128 140h107l88 -140 h-67z" />
<glyph unicode="&#xe1;" d="M142 360h-81q6 173 214 173q17 0 36.5 -2.5t49 -11t51.5 -23t38.5 -42.5t16.5 -66v-298q0 -31 29 -31q9 0 29 4v-63q-37 -10 -48 -10q-52 0 -70.5 21t-21.5 58q-21 -23 -41 -39t-59.5 -30.5t-86.5 -14.5q-72 0 -117 41.5t-45 108.5q0 13 1.5 26t6.5 31t16 33.5t27.5 30.5 t43.5 26t62 15l144 18q12 1 21 5t16.5 18t7.5 38q0 84 -122 84q-35 0 -59 -9t-35.5 -26.5t-16.5 -31t-7 -33.5zM380 179v85q-11 -9 -39.5 -16t-103.5 -16q-21 -3 -36.5 -7t-34.5 -13t-29.5 -25t-10.5 -39q0 -91 94 -91q62 0 111 35.5t49 86.5zM427 727l-129 -140h-66l88 140 h107z" />
<glyph unicode="&#xe2;" d="M142 360h-81q6 173 214 173q17 0 36.5 -2.5t49 -11t51.5 -23t38.5 -42.5t16.5 -66v-298q0 -31 29 -31q9 0 29 4v-63q-37 -10 -48 -10q-52 0 -70.5 21t-21.5 58q-21 -23 -41 -39t-59.5 -30.5t-86.5 -14.5q-72 0 -117 41.5t-45 108.5q0 13 1.5 26t6.5 31t16 33.5t27.5 30.5 t43.5 26t62 15l144 18q12 1 21 5t16.5 18t7.5 38q0 84 -122 84q-35 0 -59 -9t-35.5 -26.5t-16.5 -31t-7 -33.5zM380 179v85q-11 -9 -39.5 -16t-103.5 -16q-21 -3 -36.5 -7t-34.5 -13t-29.5 -25t-10.5 -39q0 -91 94 -91q62 0 111 35.5t49 86.5zM275 679l-65 -92h-78l98 140 h92l98 -140h-79z" />
<glyph unicode="&#xe3;" d="M142 360h-81q6 173 214 173q17 0 36.5 -2.5t49 -11t51.5 -23t38.5 -42.5t16.5 -66v-298q0 -31 29 -31q9 0 29 4v-63q-37 -10 -48 -10q-52 0 -70.5 21t-21.5 58q-21 -23 -41 -39t-59.5 -30.5t-86.5 -14.5q-72 0 -117 41.5t-45 108.5q0 13 1.5 26t6.5 31t16 33.5t27.5 30.5 t43.5 26t62 15l144 18q12 1 21 5t16.5 18t7.5 38q0 84 -122 84q-35 0 -59 -9t-35.5 -26.5t-16.5 -31t-7 -33.5zM380 179v85q-11 -9 -39.5 -16t-103.5 -16q-21 -3 -36.5 -7t-34.5 -13t-29.5 -25t-10.5 -39q0 -91 94 -91q62 0 111 35.5t49 86.5zM385 715h50 q-6 -47 -32.5 -77.5t-66.5 -30.5q-20 0 -59 13l-26 9q-43 15 -60 15q-33 0 -46 -44h-48q14 106 103 106q28 0 67 -15l22 -9q31 -13 47 -13q11 0 19.5 3.5t13.5 7.5t8.5 11t4.5 11.5t3 12.5z" />
<glyph unicode="&#xe4;" d="M142 360h-81q6 173 214 173q17 0 36.5 -2.5t49 -11t51.5 -23t38.5 -42.5t16.5 -66v-298q0 -31 29 -31q9 0 29 4v-63q-37 -10 -48 -10q-52 0 -70.5 21t-21.5 58q-21 -23 -41 -39t-59.5 -30.5t-86.5 -14.5q-72 0 -117 41.5t-45 108.5q0 13 1.5 26t6.5 31t16 33.5t27.5 30.5 t43.5 26t62 15l144 18q12 1 21 5t16.5 18t7.5 38q0 84 -122 84q-35 0 -59 -9t-35.5 -26.5t-16.5 -31t-7 -33.5zM380 179v85q-11 -9 -39.5 -16t-103.5 -16q-21 -3 -36.5 -7t-34.5 -13t-29.5 -25t-10.5 -39q0 -91 94 -91q62 0 111 35.5t49 86.5zM241 699v-101h-91v101h91z M401 699v-101h-90v101h90z" />
<glyph unicode="&#xe5;" d="M142 360h-81q6 173 214 173q17 0 36.5 -2.5t49 -11t51.5 -23t38.5 -42.5t16.5 -66v-298q0 -31 29 -31q9 0 29 4v-63q-37 -10 -48 -10q-52 0 -70.5 21t-21.5 58q-21 -23 -41 -39t-59.5 -30.5t-86.5 -14.5q-72 0 -117 41.5t-45 108.5q0 13 1.5 26t6.5 31t16 33.5t27.5 30.5 t43.5 26t62 15l144 18q12 1 21 5t16.5 18t7.5 38q0 84 -122 84q-35 0 -59 -9t-35.5 -26.5t-16.5 -31t-7 -33.5zM380 179v85q-11 -9 -39.5 -16t-103.5 -16q-21 -3 -36.5 -7t-34.5 -13t-29.5 -25t-10.5 -39q0 -91 94 -91q62 0 111 35.5t49 86.5zM276.5 748q39.5 0 65 -25.5 t25.5 -65t-25.5 -65.5t-65 -26t-65.5 26t-26 65.5t26 65t65.5 25.5zM225 657.5q0 -21.5 15 -36.5t36.5 -15t36.5 15t15 36.5t-15 36.5t-36.5 15t-36.5 -15t-15 -36.5z" />
<glyph unicode="&#xe6;" horiz-adv-x="880" d="M460 300h288q-9 154 -144 154q-39 0 -72.5 -21.5t-52.5 -57t-19 -75.5zM744 162h88q-4 -28 -27 -70.5t-65 -70.5q-54 -36 -141 -36q-130 0 -190 108q-37 -56 -88.5 -82t-122.5 -26q-72 0 -117 41.5t-45 108.5q0 13 1.5 26t6.5 31t16 33.5t27.5 30.5t43.5 26t62 15l144 18 q12 1 21 5t16.5 18t7.5 38q0 84 -122 84q-35 0 -59 -9t-35.5 -26.5t-16.5 -31t-7 -33.5h-81q6 173 214 173q36 0 62.5 -5.5t46.5 -18t30.5 -22t29.5 -28.5q1 2 5 6q15 14 25.5 22.5t31 21t48 18.5t62.5 6q109 0 166 -80.5t57 -221.5h-379q0 -82 38.5 -126.5t112.5 -44.5 q20 0 38 5t32.5 13t26 18.5t19.5 22t12.5 23t4.5 20.5zM380 179v85q-11 -9 -39.5 -16t-103.5 -16q-21 -3 -36.5 -7t-34.5 -13t-29.5 -25t-10.5 -39q0 -91 94 -91q62 0 111 35.5t49 86.5z" />
<glyph unicode="&#xe7;" horiz-adv-x="495" d="M472 344h-84q-17 110 -123 110q-38 0 -67 -17t-44.5 -46t-23 -62t-7.5 -70q0 -199 141 -199q45 0 79 32.5t45 90.5h84q-3 -27 -10.5 -52.5t-24 -52.5t-39 -47t-58 -33t-79.5 -13q-107 0 -169 72.5t-62 187.5q0 61 15 112.5t44.5 91t78 62t110.5 22.5q49 0 86.5 -16.5 t59.5 -45t33.5 -60.5t14.5 -67zM161 -85l64 85h46l-45 -61q22 4 30 4q44 0 64 -23t20 -52q0 -39 -32 -65t-85 -26q-44 0 -95 22l17 40q37 -15 64 -15q55 0 55 41q0 21 -16 30t-31 9q-11 0 -39 -8z" />
<glyph unicode="&#xe8;" d="M417 162h87q-3 -28 -26 -70.5t-66 -70.5q-54 -36 -141 -36q-107 0 -169 72.5t-62 187.5q0 48 9 91t29 79t48.5 62t70 41t91.5 15q110 0 166.5 -80.5t56.5 -221.5h-378q0 -55 16.5 -92.5t50.5 -58t83 -20.5q24 0 45.5 7t36.5 18t27 24.5t18 27t7 25.5zM133 300h288 q-10 154 -145 154q-59 0 -101 -46.5t-42 -107.5zM253 587l-128 140h107l88 -140h-67z" />
<glyph unicode="&#xe9;" d="M417 162h87q-3 -28 -26 -70.5t-66 -70.5q-54 -36 -141 -36q-107 0 -169 72.5t-62 187.5q0 48 9 91t29 79t48.5 62t70 41t91.5 15q110 0 166.5 -80.5t56.5 -221.5h-378q0 -55 16.5 -92.5t50.5 -58t83 -20.5q24 0 45.5 7t36.5 18t27 24.5t18 27t7 25.5zM133 300h288 q-10 154 -145 154q-59 0 -101 -46.5t-42 -107.5zM427 727l-129 -140h-66l88 140h107z" />
<glyph unicode="&#xea;" d="M417 162h87q-3 -28 -26 -70.5t-66 -70.5q-54 -36 -141 -36q-107 0 -169 72.5t-62 187.5q0 48 9 91t29 79t48.5 62t70 41t91.5 15q110 0 166.5 -80.5t56.5 -221.5h-378q0 -55 16.5 -92.5t50.5 -58t83 -20.5q24 0 45.5 7t36.5 18t27 24.5t18 27t7 25.5zM133 300h288 q-10 154 -145 154q-59 0 -101 -46.5t-42 -107.5zM275 679l-65 -92h-78l98 140h92l98 -140h-79z" />
<glyph unicode="&#xeb;" d="M417 162h87q-3 -28 -26 -70.5t-66 -70.5q-54 -36 -141 -36q-107 0 -169 72.5t-62 187.5q0 48 9 91t29 79t48.5 62t70 41t91.5 15q110 0 166.5 -80.5t56.5 -221.5h-378q0 -55 16.5 -92.5t50.5 -58t83 -20.5q24 0 45.5 7t36.5 18t27 24.5t18 27t7 25.5zM133 300h288 q-10 154 -145 154q-59 0 -101 -46.5t-42 -107.5zM241 699v-101h-91v101h91zM401 699v-101h-90v101h90z" />
<glyph unicode="&#xec;" horiz-adv-x="275" d="M181 518v-518h-87v518h87zM116 587l-129 140h107l88 -140h-66z" />
<glyph unicode="&#xed;" horiz-adv-x="275" d="M181 518v-518h-87v518h87zM289 727l-129 -140h-66l88 140h107z" />
<glyph unicode="&#xee;" horiz-adv-x="275" d="M181 518v-518h-87v518h87zM138 679l-66 -92h-78l98 140h92l98 -140h-79z" />
<glyph unicode="&#xef;" horiz-adv-x="275" d="M181 518v-518h-87v518h87zM103 699v-101h-90v101h90zM263 699v-101h-90v101h90z" />
<glyph unicode="&#xf0;" d="M125 251.5q0 -19.5 3 -41t13.5 -49.5t26 -49.5t43.5 -36.5t64 -15t64 15t44 36.5t26 49.5t13.5 49.5t3.5 41t-3.5 41t-13.5 49.5t-26 49.5t-44 36.5t-64 15t-64 -15t-43.5 -36.5t-26 -49.5t-13.5 -49.5t-3 -41zM464 690l-106 -50q76 -70 117.5 -160t41.5 -185 q0 -68 -15 -123t-38 -89t-54.5 -57t-62.5 -32t-64 -9q-62 0 -111 23t-78.5 61.5t-44 85t-14.5 96.5q0 68 25 127.5t78 99.5t123 40q82 0 132 -55l2 2q-31 77 -110 141l-123 -62l-41 42l117 57q-41 31 -89 51l74 36q51 -20 90 -51l105 51z" />
<glyph unicode="&#xf1;" d="M486 352v-352h-87v319q0 70 -24.5 102.5t-86.5 32.5q-21 0 -42.5 -7.5t-44 -25t-36.5 -53.5t-14 -86v-282h-87v518h83v-73h1q60 88 157 88q26 0 49.5 -4.5t48.5 -17t42.5 -32t29 -52t11.5 -75.5zM385 715h50q-6 -47 -32.5 -77.5t-66.5 -30.5q-20 0 -59 13l-26 9 q-43 15 -60 15q-33 0 -46 -44h-48q14 106 103 106q28 0 67 -15l22 -9q31 -13 47 -13q11 0 19.5 3.5t13.5 7.5t8.5 11t4.5 11.5t3 12.5z" />
<glyph unicode="&#xf2;" d="M35 259q0 34 6.5 67t19 63.5t32.5 56.5t46 45.5t61 30.5t75 11q60 0 107 -24t75.5 -63.5t43.5 -87t15 -99t-15 -99.5t-43.5 -87.5t-75.5 -63t-107 -23.5q-48 0 -88 15.5t-68 42t-47 62t-28 74t-9 79.5zM125 259.5q0 -23.5 3.5 -47.5t13.5 -52t26 -49t44 -35.5t63.5 -14.5 t63 14.5t43.5 35.5t26.5 49t14 52t3.5 47.5t-3.5 47.5t-14 52t-26.5 49t-43.5 35t-63 14t-63.5 -14t-44 -35t-26 -49t-13.5 -52t-3.5 -47.5zM253 587l-128 140h107l88 -140h-67z" />
<glyph unicode="&#xf3;" d="M35 259q0 34 6.5 67t19 63.5t32.5 56.5t46 45.5t61 30.5t75 11q60 0 107 -24t75.5 -63.5t43.5 -87t15 -99t-15 -99.5t-43.5 -87.5t-75.5 -63t-107 -23.5q-48 0 -88 15.5t-68 42t-47 62t-28 74t-9 79.5zM125 259.5q0 -23.5 3.5 -47.5t13.5 -52t26 -49t44 -35.5t63.5 -14.5 t63 14.5t43.5 35.5t26.5 49t14 52t3.5 47.5t-3.5 47.5t-14 52t-26.5 49t-43.5 35t-63 14t-63.5 -14t-44 -35t-26 -49t-13.5 -52t-3.5 -47.5zM427 727l-129 -140h-66l88 140h107z" />
<glyph unicode="&#xf4;" d="M35 259q0 34 6.5 67t19 63.5t32.5 56.5t46 45.5t61 30.5t75 11q60 0 107 -24t75.5 -63.5t43.5 -87t15 -99t-15 -99.5t-43.5 -87.5t-75.5 -63t-107 -23.5q-48 0 -88 15.5t-68 42t-47 62t-28 74t-9 79.5zM125 259.5q0 -23.5 3.5 -47.5t13.5 -52t26 -49t44 -35.5t63.5 -14.5 t63 14.5t43.5 35.5t26.5 49t14 52t3.5 47.5t-3.5 47.5t-14 52t-26.5 49t-43.5 35t-63 14t-63.5 -14t-44 -35t-26 -49t-13.5 -52t-3.5 -47.5zM275 679l-65 -92h-78l98 140h92l98 -140h-79z" />
<glyph unicode="&#xf5;" d="M35 259q0 34 6.5 67t19 63.5t32.5 56.5t46 45.5t61 30.5t75 11q60 0 107 -24t75.5 -63.5t43.5 -87t15 -99t-15 -99.5t-43.5 -87.5t-75.5 -63t-107 -23.5q-48 0 -88 15.5t-68 42t-47 62t-28 74t-9 79.5zM125 259.5q0 -23.5 3.5 -47.5t13.5 -52t26 -49t44 -35.5t63.5 -14.5 t63 14.5t43.5 35.5t26.5 49t14 52t3.5 47.5t-3.5 47.5t-14 52t-26.5 49t-43.5 35t-63 14t-63.5 -14t-44 -35t-26 -49t-13.5 -52t-3.5 -47.5zM395 715h50q-6 -47 -32.5 -77.5t-66.5 -30.5q-20 0 -59 13l-26 9q-43 15 -60 15q-33 0 -47 -44h-47q14 106 103 106q28 0 67 -15 l22 -9q31 -13 47 -13q14 0 23.5 4t14.5 12.5t7 14t4 15.5z" />
<glyph unicode="&#xf6;" d="M35 259q0 34 6.5 67t19 63.5t32.5 56.5t46 45.5t61 30.5t75 11q60 0 107 -24t75.5 -63.5t43.5 -87t15 -99t-15 -99.5t-43.5 -87.5t-75.5 -63t-107 -23.5q-48 0 -88 15.5t-68 42t-47 62t-28 74t-9 79.5zM125 259.5q0 -23.5 3.5 -47.5t13.5 -52t26 -49t44 -35.5t63.5 -14.5 t63 14.5t43.5 35.5t26.5 49t14 52t3.5 47.5t-3.5 47.5t-14 52t-26.5 49t-43.5 35t-63 14t-63.5 -14t-44 -35t-26 -49t-13.5 -52t-3.5 -47.5zM241 699v-101h-91v101h91zM401 699v-101h-90v101h90z" />
<glyph unicode="&#xf7;" horiz-adv-x="578" d="M540 214h-501v72h501v-72zM222 451q0 28 20 48t47 20q18 0 33.5 -9t24.5 -25t9 -34q0 -16 -9 -31.5t-24.5 -25.5t-33.5 -10q-27 0 -47 20t-20 47zM222 49q0 27 20 47t47 20q28 0 47.5 -20t19.5 -47q0 -17 -9 -32.5t-24.5 -25.5t-33.5 -10q-27 0 -47 20t-20 48z" />
<glyph unicode="&#xf8;" horiz-adv-x="604" d="M532 514l-69 -77q53 -73 53 -178q0 -51 -15 -99t-43.5 -87.5t-75.5 -63t-107 -23.5q-96 0 -157 60l-60 -68l-30 26l63 71q-56 76 -56 184q0 34 6.5 67t19 63.5t32.5 56.5t46 45.5t61 30.5t75 11q100 0 163 -65l63 72zM149 142l234 264q-39 51 -108 51q-35 0 -63 -14 t-44 -35t-26 -49t-13.5 -52t-3.5 -48q0 -65 24 -117zM404 369l-232 -262q37 -46 103 -46q36 0 63.5 14.5t43.5 35.5t26.5 49t14 52t3.5 47q0 63 -22 110z" />
<glyph unicode="&#xf9;" d="M484 0h-82v75l-2 2q-19 -31 -40.5 -50.5t-52.5 -30.5t-71 -11q-31 0 -59 8t-53.5 25.5t-41 50t-15.5 77.5v372h87v-344q0 -114 100 -114q40 0 69 16t44.5 42.5t22.5 55t7 59.5v285h87v-518zM253 587l-128 140h107l88 -140h-67z" />
<glyph unicode="&#xfa;" d="M484 0h-82v75l-2 2q-19 -31 -40.5 -50.5t-52.5 -30.5t-71 -11q-31 0 -59 8t-53.5 25.5t-41 50t-15.5 77.5v372h87v-344q0 -114 100 -114q40 0 69 16t44.5 42.5t22.5 55t7 59.5v285h87v-518zM427 727l-129 -140h-66l88 140h107z" />
<glyph unicode="&#xfb;" d="M484 0h-82v75l-2 2q-19 -31 -40.5 -50.5t-52.5 -30.5t-71 -11q-31 0 -59 8t-53.5 25.5t-41 50t-15.5 77.5v372h87v-344q0 -114 100 -114q40 0 69 16t44.5 42.5t22.5 55t7 59.5v285h87v-518zM275 679l-65 -92h-78l98 140h92l98 -140h-79z" />
<glyph unicode="&#xfc;" d="M484 0h-82v75l-2 2q-19 -31 -40.5 -50.5t-52.5 -30.5t-71 -11q-31 0 -59 8t-53.5 25.5t-41 50t-15.5 77.5v372h87v-344q0 -114 100 -114q40 0 69 16t44.5 42.5t22.5 55t7 59.5v285h87v-518zM241 699v-101h-91v101h91zM401 699v-101h-90v101h90z" />
<glyph unicode="&#xfd;" horiz-adv-x="495" d="M249 96l139 422h96q-131 -367 -186 -508l-28 -70t-23 -53t-20 -40t-19.5 -26t-21 -18.5t-24.5 -9t-29.5 -5t-37.5 -0.5q-9 0 -37 8v79q25 -9 53 -9q33 0 46 18.5t46 101.5l-192 532h99l138 -422h1zM399 727l-129 -140h-66l88 140h107z" />
<glyph unicode="&#xfe;" d="M141 235q0 -49 13.5 -85t36 -54.5t45.5 -27t46 -8.5q69 0 104.5 55.5t35.5 144.5q0 26 -1.5 46.5t-10 50t-22.5 49t-41.5 34t-66.5 14.5q-139 0 -139 -219zM57 -205v916h88v-265h2q10 16 18.5 26.5t26.5 26.5t44.5 25t59.5 9q67 0 116.5 -34.5t74.5 -92.5t25 -132 q0 -39 -6.5 -77.5t-23 -77.5t-41.5 -68t-65.5 -47.5t-91.5 -18.5q-49 0 -84 19.5t-53 49.5h-2v-259h-88z" />
<glyph unicode="&#xff;" horiz-adv-x="495" d="M249 96l139 422h96q-131 -367 -186 -508l-28 -70t-23 -53t-20 -40t-19.5 -26t-21 -18.5t-24.5 -9t-29.5 -5t-37.5 -0.5q-9 0 -37 8v79q25 -9 53 -9q33 0 46 18.5t46 101.5l-192 532h99l138 -422h1zM213 699v-101h-90v101h90zM373 699v-101h-90v101h90z" />
<glyph unicode="&#x152;" horiz-adv-x="990" d="M512 228v259q0 37 -13 67t-35.5 50.5t-54 31.5t-68.5 11q-40 0 -72 -12.5t-53 -32t-36.5 -48t-24 -55.5t-13.5 -60t-6 -55.5t-1 -47.5q0 -86 24 -149q13 -32 29 -54t39 -38t54 -24t72 -8q26 0 52.5 9.5t51 28t40 51.5t15.5 76zM518 639v72h435v-85h-345v-218h330v-85 h-330v-238h347v-85h-438v74h-2q-17 -22 -28 -33.5t-33.5 -28t-54 -24t-73.5 -7.5q-92 0 -158 48.5t-99 131.5t-33 190q0 28 3 56.5t9.5 61.5t18 63.5t27.5 60t40 54t53 43.5t68 29.5t85 10.5q121 0 176 -91h2z" />
<glyph unicode="&#x153;" horiz-adv-x="934" d="M514 300h289q-10 154 -145 154q-59 0 -101.5 -46.5t-42.5 -107.5zM799 162h87q-3 -28 -26 -70.5t-66 -70.5q-53 -36 -141 -36q-124 0 -192 100q-16 -32 -42 -54t-54.5 -30.5t-49 -11.5t-40.5 -3q-48 0 -88 15.5t-68 42t-47 62t-28 74t-9 79.5q0 34 6.5 67t19 63.5 t32.5 56.5t46 45.5t61 30.5t75 11q132 -2 194 -105q36 55 84.5 80t116.5 25q74 0 124.5 -38t74.5 -105t24 -159h-379q0 -54 17 -92t51 -58.5t83 -20.5q57 0 94 34t40 68zM125 259.5q0 -23.5 3.5 -47.5t13.5 -52t26 -49t44 -35.5t63.5 -14.5t63 14.5t43.5 35.5t26.5 49t14 52 t3.5 47.5t-3.5 47.5t-14 52t-26.5 49t-43.5 35t-63 14t-63.5 -14t-44 -35t-26 -49t-13.5 -52t-3.5 -47.5z" />
<glyph unicode="&#x178;" horiz-adv-x="660" d="M378 286v-286h-96v286l-268 425h112l204 -342l204 342h112zM295 892v-101h-90v101h90zM455 892v-101h-90v101h90z" />
<glyph unicode="&#x2c6;" horiz-adv-x="329" d="M164 679l-65 -92h-78l98 140h92l98 -140h-79z" />
<glyph unicode="&#x2dc;" horiz-adv-x="329" d="M284 715h50q-6 -47 -32.5 -77.5t-66.5 -30.5q-20 0 -59 13l-26 9q-43 15 -60 15q-33 0 -46 -44h-48q14 106 103 106q28 0 67 -15l22 -9q31 -13 47 -13q14 0 23.5 4t14.5 12.5t7 14t4 15.5z" />
<glyph unicode="&#x2000;" horiz-adv-x="461" />
<glyph unicode="&#x2001;" horiz-adv-x="922" />
<glyph unicode="&#x2002;" horiz-adv-x="461" />
<glyph unicode="&#x2003;" horiz-adv-x="922" />
<glyph unicode="&#x2004;" horiz-adv-x="307" />
<glyph unicode="&#x2005;" horiz-adv-x="230" />
<glyph unicode="&#x2006;" horiz-adv-x="153" />
<glyph unicode="&#x2007;" horiz-adv-x="153" />
<glyph unicode="&#x2008;" horiz-adv-x="115" />
<glyph unicode="&#x2009;" horiz-adv-x="184" />
<glyph unicode="&#x200a;" horiz-adv-x="51" />
<glyph unicode="&#x2010;" horiz-adv-x="329" d="M286 319v-89h-242v89h242z" />
<glyph unicode="&#x2011;" horiz-adv-x="329" d="M286 319v-89h-242v89h242z" />
<glyph unicode="&#x2012;" horiz-adv-x="329" d="M286 319v-89h-242v89h242z" />
<glyph unicode="&#x2013;" d="M550 310v-72h-550v72h550z" />
<glyph unicode="&#x2014;" horiz-adv-x="990" d="M990 310v-72h-990v72h990z" />
<glyph unicode="&#x2018;" horiz-adv-x="219" d="M167 570v-105h-103v97q0 63 23.5 102.5t79.5 53.5v-47q-18 -3 -29.5 -13.5t-16 -28t-5.5 -29.5t-1 -30h52z" />
<glyph unicode="&#x2019;" horiz-adv-x="219" d="M52 606v105h103v-97q0 -41 -8.5 -70.5t-32 -53t-62.5 -32.5v47q19 3 30.5 13.5t16 28t5.5 29.5t1 30h-53z" />
<glyph unicode="&#x201a;" horiz-adv-x="219" d="M52 0v105h103v-97q0 -63 -23 -102.5t-80 -53.5v47q19 3 30.5 13.5t16 28t5.5 29.5t1 30h-53z" />
<glyph unicode="&#x201c;" horiz-adv-x="329" d="M304 570v-105h-103v97q0 63 23 102.5t80 53.5v-47q-18 -3 -29.5 -13.5t-16 -28t-6 -29.5t-1.5 -30h53zM141 570v-105h-103v97q0 63 23 102.5t80 53.5v-47q-19 -3 -30.5 -13.5t-16 -28t-5.5 -29.5t-1 -30h53z" />
<glyph unicode="&#x201d;" horiz-adv-x="329" d="M26 606v105h103v-97q0 -63 -23.5 -102.5t-79.5 -53.5v47q14 2 24.5 10.5t16 18t8 25t3 24.5t0.5 23h-52zM189 606v105h103v-97q0 -41 -8.5 -70.5t-32 -53t-62.5 -32.5v47q18 3 29.5 13.5t16 28t6 29.5t1.5 30h-53z" />
<glyph unicode="&#x201e;" horiz-adv-x="329" d="M26 0v105h103v-97q0 -63 -23.5 -102.5t-79.5 -53.5v47q18 3 29.5 13.5t16 28t5.5 29.5t1 30h-52zM189 0v105h103v-97q0 -63 -23 -102.5t-80 -53.5v47q18 3 29.5 13.5t16 28t6 29.5t1.5 30h-53z" />
<glyph unicode="&#x2022;" horiz-adv-x="346" d="M330 355.5q0 -64.5 -46 -110t-111 -45.5t-110 45t-45 110t45 111t110 46t111 -46t46 -110.5z" />
<glyph unicode="&#x2026;" horiz-adv-x="990" d="M217 105v-105h-103v105h103zM546 105v-105h-102v105h102zM876 105v-105h-103v105h103z" />
<glyph unicode="&#x202f;" horiz-adv-x="184" />
<glyph unicode="&#x2039;" horiz-adv-x="329" d="M243 194v-87l-156 122v91l156 122v-88l-104 -80z" />
<glyph unicode="&#x203a;" horiz-adv-x="329" d="M87 107v87l104 80l-104 80v88l156 -122v-91z" />
<glyph unicode="&#x205f;" horiz-adv-x="230" />
<glyph unicode="&#x2122;" horiz-adv-x="990" d="M551 711l117 -300l115 300h111v-408h-72v332h-2l-128 -332h-49l-128 332h-2v-332h-72v408h110zM369 711v-60h-125v-348h-73v348h-125v60h323z" />
<glyph unicode="&#x25fc;" horiz-adv-x="519" d="M0 520h520v-520h-520v520z" />
<glyph unicode="&#xfb01;" horiz-adv-x="495" d="M259 446h-87v-446h-87v446h-71v72h71v89q0 114 135 114q12 0 39 -2v-78q-21 2 -35 2q-28 0 -40 -14.5t-12 -46.5v-64h87v-72zM430 518v-518h-87v518h87zM430 612h-87v99h87v-99z" />
<glyph unicode="&#xfb02;" horiz-adv-x="495" d="M259 446h-87v-446h-87v446h-71v72h71v89q0 114 135 114q12 0 39 -2v-78q-21 2 -35 2q-28 0 -40 -14.5t-12 -46.5v-64h87v-72zM428 711v-711h-87v711h87z" />
</font>
</defs>
</svg>
