<?xml version="1.0" standalone="no"?>
<!DOCTYPE svg PUBLIC "-//W3C//DTD SVG 1.1//EN" "http://www.w3.org/Graphics/SVG/1.1/DTD/svg11.dtd" >
<svg xmlns="http://www.w3.org/2000/svg" xmlns:xlink="http://www.w3.org/1999/xlink" version="1.1">
<metadata></metadata>
<defs>
<font id="nicolas_cochin_efregular" horiz-adv-x="925" >
<font-face units-per-em="1000" ascent="800" descent="-200" />
<missing-glyph horiz-adv-x="392" />
<glyph horiz-adv-x="0" />
<glyph horiz-adv-x="333" />
<glyph d="M664 801q-15 -33 -33.5 -63.5t-42.5 -54.5t-54.5 -39t-71.5 -15q-40 0 -70.5 15t-54.5 39t-42.5 54.5t-33.5 63.5l24 13q35 -56 73 -82.5t104 -26.5q67 0 105 26.5t73 82.5l24 -13v0z" />
<glyph d="M533 720q0 -30 -20.5 -50.5t-50.5 -20.5q-29 0 -49.5 20.5t-20.5 50.5q0 29 20.5 49.5t49.5 20.5q30 0 50.5 -20.5t20.5 -49.5z" />
<glyph d="M610 738q0 -29 -12.5 -54t-33 -43.5t-47.5 -29t-55 -10.5q-27 0 -54 10.5t-48 29t-33.5 43.5t-12.5 54q0 59 43.5 101t103.5 42q29 0 56 -11.5t47.5 -30.5t33 -45t12.5 -56zM548 747q0 37 -23.5 70.5t-63.5 33.5q-23 0 -38.5 -10t-25 -27t-14 -37t-4.5 -39 q0 -37 19.5 -73t62.5 -36q22 0 38.5 11t27.5 28.5t16 38t5 40.5z" />
<glyph unicode="&#xa;" d="M703 834q-50 -63 -117.5 -118.5t-135.5 -99.5l-19 15q57 48 104.5 102.5t78.5 123.5l89 -23v0zM494 834q-48 -61 -118.5 -117.5t-135.5 -100.5l-18 15q56 48 105 102.5t76 123.5l91 -23v0z" />
<glyph d="M549 0q-37 -26 -67.5 -60t-30.5 -82q0 -24 13 -43t39 -19q8 0 15 1t15 1l9 -22q-52 -18 -100 -18q-31 0 -48.5 19t-17.5 51q0 28 14.5 53t36 47t46.5 40.5t45 31.5h31v0z" />
<glyph d="M646 860q-21 -22 -46.5 -52.5t-50.5 -65.5t-44.5 -68.5t-27.5 -61.5h-61q2 6 2 12.5v11.5q0 28 -15 57.5t-36 58.5t-44 54t-42 45l37 26q17 -13 41 -32.5t47 -41.5t42.5 -45.5t26.5 -41.5q8 6 14.5 14t11.5 16q30 35 61.5 67t62.5 64l21 -17v0z" />
<glyph unicode="&#xd;" horiz-adv-x="392" />
<glyph horiz-adv-x="135" d="M-135 0h-93l498 1234h93z" />
<glyph horiz-adv-x="806" d="M692 866q0 -32 -22 -54t-54 -22q-31 0 -53.5 22t-22.5 54q0 31 22.5 53.5t53.5 22.5q32 0 54 -22.5t22 -53.5zM544 1195q0 -5 -10 -13.5t-22 -15t-25 -12t-19 -5.5q-15 0 -22.5 11t-14.5 25t-16.5 26t-27.5 12q-35 0 -58.5 -27t-37 -65t-20 -77.5t-6.5 -65.5l-6 -254 l141 12v-43q-43 0 -71.5 -2t-69.5 -18q-2 -41 -3 -80t-1 -79v-76l4 -204q0 -31 1 -61.5t5 -62.5q1 -9 2 -19t1 -20q0 -13 2 -17.5t15 -9.5q20 -10 46 -13.5t50 -7.5v-33h-375v33q25 4 50 7t49 10q19 6 24.5 15t5.5 27v25l7 551h-85v33l82 19q11 100 28.5 199.5t60.5 194.5 q29 63 89 110t133 47q37 0 64 -28q8 -7 19 -22t11 -26zM461 0v33h20t27 1t26 5t17 11q6 7 8.5 28.5t3.5 45.5t1 46v32v203q0 9 -2.5 17.5t-13.5 8.5q-21 0 -42 -7.5t-42 -12.5l-7 27q59 21 113.5 43t110.5 54l20 -21q-17 -46 -20.5 -80t-3.5 -82q0 -65 3.5 -129t3.5 -129 q0 -9 1 -24.5t9 -25.5q3 -5 14.5 -8t24.5 -3h25h17v-33h-314z" />
<glyph horiz-adv-x="786" d="M398 0v33q22 4 43 9.5t42 11.5q29 9 31 27.5t4 44.5q4 76 6.5 151t2.5 150v563q0 22 -1.5 62.5t-11 80.5t-29 68.5t-54.5 28.5q-22 0 -45 -17.5t-36 -34.5q-32 -44 -50.5 -98.5t-27.5 -114t-11 -119.5t-2 -112l141 12v-43q-43 0 -71.5 -2t-69.5 -18q-2 -41 -3 -80t-1 -79 q0 -71 1 -140.5t3 -139.5q0 -31 1 -61.5t5 -62.5q1 -9 2 -19t1 -20q0 -13 2 -17.5t15 -9.5q20 -10 41.5 -13.5t41.5 -7.5v-33h-362v33q25 4 50 7t49 10q19 6 24.5 15t5.5 27v25l7 551h-85v33l82 19q9 77 21 151t38 147q13 40 39 84.5t60 81.5t76.5 61t90.5 24q43 0 82.5 -22 t63.5 -59q28 -43 30 -86.5t2 -93.5v-468q0 -20 1 -40.5t1 -40.5q2 -95 1 -188t10 -188q4 -20 8.5 -25.5t24.5 -9.5q21 -4 41 -7.5t41 -7.5v-33h-372z" />
<glyph horiz-adv-x="1141" d="M1095 -63h-55q0 30 -1 46.5t-36 16.5h-960v43l151 7q21 2 49.5 6.5t37.5 24.5q8 17 12.5 50.5t7 69.5t2.5 69v54v181l-227 -146v70l227 146v335v53t-2.5 75t-7 73t-14.5 49q-5 9 -29 15.5t-52 9.5t-54 4.5t-35 1.5v43h616v-43l-133 -7q-18 -2 -48 -6.5t-39 -23.5 q-9 -16 -13 -49.5t-6.5 -70.5t-2.5 -71v-53v-253l394 249v-70l-394 -250v-299q0 -54 6.5 -105t15.5 -104q44 -13 91 -13h255q65 0 108.5 15.5t73 45t50.5 73t42 101.5h28z" />
<glyph horiz-adv-x="410" d="M266 524q4 -54 3 -106t-1 -105q0 -11 1 -52t3 -85.5t5.5 -80.5t11.5 -38q7 -3 21 -7t29.5 -7.5t30.5 -5.5t24 -4v-33h-383v33q9 2 29.5 5t41 7.5t37 13t20.5 21.5q5 24 5 54.5v56.5q4 61 6 122t2 122v35l-132 -83v55l132 83v246q0 60 -1 118t-3 117q0 30 1 61.5t-3 60.5 q-2 13 -3.5 22.5t-16.5 9.5t-42 -14t-40 -21l-11 28q58 31 115 61.5t117 61.5l18 -16q-15 -26 -16 -47.5t-1 -50.5v-583l143 91v-56z" />
<glyph horiz-adv-x="1324" d="M988 1550l-40.5 -40.5t-61 -63.5t-55.5 -65.5t-26 -44.5h-71v14q0 25 -17.5 52.5t-41.5 53.5t-50 48t-42 37l42 24q17 -9 43 -26.5t52 -39t48 -42.5t31 -36q41 39 82.5 74t84.5 70l22 -15v0zM1271 1202q-54 -42 -102 -93t-92 -104l-777 -931q66 -6 132 -7.5t132 -1.5 q87 0 174 8t168 45q69 32 118 90t92 118l18 -12q-35 -99 -68.5 -198t-68.5 -199h-55q2 50 -5.5 66.5t-59.5 16.5h-859l12 54q31 13 60.5 46t50.5 59l836 1005h-289q-42 0 -73.5 -4t-59.5 -12t-55.5 -22t-62.5 -36q-58 -36 -108 -78.5t-96 -90.5h-26l161 352l61 7 q0 -20 1 -31t27 -15q24 -4 55.5 -3t57.5 1q57 -2 114.5 -2h114.5h132q81 0 160.5 2t160.5 8l19 -38v0z" />
<glyph horiz-adv-x="538" d="M512 860q-11 -13 -38.5 -47t-56.5 -74t-51 -76t-20 -51h-61v24q0 28 -15 57.5t-36 58.5t-44.5 54.5t-41.5 44.5l39 26q17 -11 40 -30.5t47 -42.5t42.5 -46.5t25.5 -41.5q8 6 14.5 14t11.5 16q30 35 62 67l64 64l18 -17v0zM538 498q-96 -100 -188.5 -201t-184.5 -205 l168 6q48 2 80.5 17t69.5 48h20q-13 -48 -39 -99t-59 -88l-24 4q0 11 -7 14q-8 4 -37.5 6t-64.5 2h-65.5h-40.5h-82.5t-83.5 -2q105 105 206 209.5t203 210.5q-22 2 -44.5 2h-44.5h-72q-43 0 -65 -2t-36 -12t-27 -29.5t-37 -52.5l-16 7q13 48 25 93.5t23 93.5h410l13 -22v0z " />
<glyph unicode=" "  horiz-adv-x="392" />
<glyph unicode="&#x09;" horiz-adv-x="392" />
<glyph unicode="&#xa0;" horiz-adv-x="392" />
<glyph unicode="!" horiz-adv-x="530" d="M426 1147q0 -39 -5 -86t-11.5 -95t-14 -95.5t-14.5 -86.5l-55 -320q-8 -40 -14.5 -82.5t-6.5 -85.5q0 -20 2 -39.5t6 -40.5l-28 -3l-9 20q-15 57 -16 119t-1 122q0 96 3.5 193t9.5 193q4 58 7.5 114t3.5 114v29.5t-4.5 32.5t-14 26t-27.5 10q-15 0 -28 -4.5t-26 -10.5 l-13 24q52 35 119.5 52.5t128.5 17.5q4 -29 6 -58.5t2 -59.5zM368 70q0 -37 -25 -62t-62 -25t-62 25t-25 62t25 62t62 25t62 -25t25 -62z" />
<glyph unicode="&#x22;" horiz-adv-x="518" d="M394 736h-55l-12 498h80zM179 736h-55l-13 498h81z" />
<glyph unicode="#" horiz-adv-x="1110" d="M1027 779h-211l-46 -300h212l-11 -70h-213l-61 -409h-75l62 409h-303l-61 -409h-76l61 409h-216l9 70h218l45 300h-217l10 68h218l57 387h76l-57 -387h301l59 387h76l-59 -387h213zM437 779l-45 -300h304l44 300h-303z" />
<glyph unicode="$" horiz-adv-x="1061" d="M947 361q0 -104 -43.5 -180t-114.5 -125t-161 -70t-182 -14l-26 -135h-61l28 141q-52 7 -102 23.5t-98 37.5q-6 2 -16 6.5t-22 8t-22 7.5t-16 4q-20 0 -37 -18.5t-26 -33.5l-31 13l131 401l22 -5q0 -48 -1 -92.5t5.5 -85t26 -77t60.5 -69.5q35 -28 64.5 -39t72.5 -20 l109 533q-43 24 -85.5 50t-78.5 59t-58 74.5t-22 95.5t15.5 108.5t45 104.5t68.5 90.5t87 66.5q46 26 80.5 32.5t86.5 10.5l29 155h61l-31 -163q31 -7 69 -23t64 -16q15 0 23.5 6.5t17.5 19.5l33 2l24 -398l-26 -2q-15 71 -33.5 139.5t-58.5 129.5q-26 39 -52 55.5t-72 29.5 l-95 -463q58 -31 112.5 -64.5t108.5 -70.5q72 -50 99.5 -100.5t27.5 -139.5zM633 1201q-28 -4 -48.5 -7.5t-46.5 -15.5q-59 -27 -98.5 -89t-39.5 -127q0 -35 13 -63t33 -50t47 -41.5t53 -36.5l87 430v0zM764 274q0 57 -16.5 96t-44.5 66.5t-65 51t-79 50.5l-100 -505h31 q58 0 108 15t87 44.5t58 75t21 106.5z" />
<glyph unicode="%" horiz-adv-x="1435" d="M1380 240q0 -61 -24 -108t-64.5 -79.5t-93.5 -49t-108 -16.5q-113 0 -184.5 68.5t-71.5 183.5q0 57 24 104t63 80.5t90 52t106 18.5q115 0 189 -68.5t74 -185.5zM514 -124h-92l497 1234h93zM599 746q0 -62 -24 -108t-63.5 -78.5t-92.5 -49t-108 -16.5q-52 0 -98.5 15.5 t-81.5 45.5t-55 72.5t-20 95.5v21q0 57 23 104t61.5 80.5t89.5 52t107 18.5q114 0 188 -68.5t74 -184.5zM1262 224q0 37 -8.5 78.5t-27 77.5t-49 59t-76.5 23q-41 0 -69.5 -16.5t-46 -44t-26 -63t-8.5 -70.5q0 -37 9 -79.5t28.5 -79.5t51 -62t76.5 -25q40 0 68 18.5 t45.5 47.5t25 65t7.5 71zM481 729q0 37 -8.5 78.5t-27 77.5t-49 59.5t-74.5 23.5q-41 0 -69.5 -17t-46 -44.5t-26 -63t-8.5 -70.5q0 -37 8.5 -79.5t28 -79.5t50.5 -62t76 -25q41 0 68.5 18.5t45 48t25 66t7.5 69.5z" />
<glyph unicode="&#x26;" horiz-adv-x="1431" d="M966 0l-56 144q-83 -83 -183 -133t-220 -50q-81 0 -154.5 26t-130.5 74t-90.5 116.5t-33.5 153.5q0 93 45.5 173.5t117.5 133.5q53 41 112.5 70.5t120.5 59.5q-24 20 -52.5 48t-53.5 59t-42 66.5t-17 70.5q0 46 29 97t60 82q35 36 82.5 53.5t95.5 17.5t91.5 -12t76.5 -37 t52.5 -64t19.5 -91q0 -90 -45 -154t-121 -110q57 -50 103.5 -99t87 -101t76.5 -108.5t73 -122.5q20 35 42.5 77.5t40 87t29.5 89.5t12 88q0 9 -1 20t-6 21q-11 5 -29.5 9.5t-40 6.5t-41 4t-30.5 2v33h409v-33q-33 -2 -66.5 -5t-64.5 -8q-30 -6 -38.5 -32t-17.5 -50 q-33 -94 -71 -189.5t-97 -178.5l118 -240q65 -9 128.5 -16.5t128.5 -15.5v-33h-449zM729 1034q0 35 -8.5 69.5t-27 60.5t-47 41.5t-69.5 15.5q-63 0 -108 -31.5t-45 -99.5q0 -41 21 -76t52.5 -66.5t66.5 -60.5t61 -55q56 43 80 86.5t24 115.5zM884 200q-33 79 -68 148.5 t-76 132.5t-90 122t-112 120q-55 -24 -105 -47t-87 -56.5t-58.5 -80.5t-21.5 -117t28 -136t75 -117t110 -82t135 -31q89 0 150 41.5t120 102.5z" />
<glyph unicode="'" horiz-adv-x="303" d="M179 736h-55l-13 498h81z" />
<glyph unicode="(" horiz-adv-x="606" d="M581 1240q-37 -26 -71.5 -51t-61.5 -61q-52 -61 -84.5 -139.5t-52 -163.5t-26.5 -171t-7 -164q0 -85 6 -173t22 -174.5t43 -170t65 -159.5q26 -48 56.5 -89.5t67.5 -84.5l-16 -18q-45 37 -84.5 75.5t-76.5 83.5q-115 139 -168.5 302.5t-53.5 343.5q0 90 12 183.5 t39.5 182.5t72 170t107.5 150q26 28 47 49t44.5 38.5t49 33.5t61.5 32l9 -25v0z" />
<glyph unicode=")" horiz-adv-x="606" d="M468 461q0 -58 -6.5 -122.5t-19.5 -130.5t-32.5 -128t-43.5 -113q-26 -54 -59 -102t-72 -91q-26 -27 -47.5 -48.5t-43.5 -38t-48 -32.5t-61 -34l-11 26q37 26 72 51.5t63 59.5q24 27 40.5 58.5t31.5 63.5q58 124 78 252.5t20 263.5q0 78 -7.5 167.5t-24 180t-42.5 176 t-63 155.5q-26 48 -56.5 89.5t-67.5 82.5l17 18q191 -153 287 -355.5t96 -448.5z" />
<glyph unicode="*" horiz-adv-x="902" d="M492 906l189 -209l-85 -62l-145 242l-138 -244l-87 63l187 210l-276 58l31 102l259 -113l-29 281h105l-26 -281l257 116l34 -101z" />
<glyph unicode="+" d="M500 574v-335h-74v335h-365v70h365v335h74v-335h364v-70h-364z" />
<glyph unicode="," horiz-adv-x="482" d="M337 54q0 -43 -25 -83.5t-62 -76.5t-78.5 -66t-73.5 -48l-15 16q54 43 92 89.5t38 120.5q0 11 -4 26.5t-10.5 31.5t-17.5 26t-24 10q-15 0 -27.5 -7.5t-25.5 -11.5l-15 15q37 22 76.5 41.5t82.5 19.5q41 0 65 -33t24 -70z" />
<glyph unicode="-" horiz-adv-x="477" d="M381 224h-276l-49 -65l-32 20l76 143h268l52 63l33 -22z" />
<glyph unicode="." horiz-adv-x="482" d="M327 70q0 -37 -24.5 -62t-62.5 -25q-36 0 -60.5 26t-24.5 61t24.5 61t60.5 26q38 0 62.5 -25t24.5 -62z" />
<glyph unicode="/" horiz-adv-x="799" d="M81 -346h-125l651 1580h124z" />
<glyph unicode="0" horiz-adv-x="690" d="M636 253q0 -64 -25.5 -114t-69 -84.5t-99 -53t-115.5 -18.5q-55 0 -104 17t-87 48.5t-60 76.5t-22 104v23q0 61 25 111.5t66.5 87t96 55.5t113.5 19q61 0 113 -19t89 -54.5t58 -86.5t21 -112zM511 237q0 39 -8.5 84t-29 83t-53.5 63t-81 25q-45 0 -75.5 -18.5t-50 -48 t-27.5 -66.5t-8 -76t9 -85t30.5 -85t54.5 -66t81 -27q45 0 74.5 20.5t48 52t27 69.5t8.5 75z" />
<glyph unicode="1" horiz-adv-x="625" d="M115 0v33q37 0 75 2t75 8q5 1 9.5 2t8.5 5q6 6 7.5 21.5t1.5 32v32.5v23q0 65 -1 129t-8 128q-2 8 -3.5 17t-11.5 9q-5 0 -27.5 -6.5t-48.5 -14.5t-51.5 -16.5t-38.5 -10.5l-8 19q65 25 123.5 53t117.5 65h57l19 -17q-2 -27 -3 -54t-1 -55v-159q0 -44 1 -90.5t6 -90.5 q2 -11 4 -15t13 -7q24 -6 47 -7t49 -3v-33h-412z" />
<glyph unicode="2" horiz-adv-x="634" d="M583 157q-22 -26 -37 -45.5t-26 -38.5t-21.5 -41.5t-21.5 -53.5l-37 -6q-9 26 -20 27t-33 1h-335l-13 46q37 11 65.5 21.5t54.5 23.5t51 31.5t53 45.5q22 23 46 49.5t43.5 58t32.5 64t13 65.5q0 43 -33.5 69.5t-74.5 26.5q-29 0 -55 -16.5t-26 -47.5q0 -17 5.5 -33.5 t5.5 -31.5q0 -26 -21 -39t-44 -13q-63 0 -63 61q0 32 24.5 59.5t59.5 48t72 31.5t65 11q33 0 72 -11t72 -31.5t55.5 -50t22.5 -68.5q0 -41 -22.5 -72.5t-51.5 -57.5q-48 -42 -102 -80t-107 -71h218q24 20 48 39.5t50 39.5l15 -11v0z" />
<glyph unicode="3" horiz-adv-x="697" d="M235 501q17 2 33.5 2h33.5q57 0 114.5 -12t103.5 -39.5t74.5 -74t28.5 -112.5q0 -67 -30.5 -120t-79.5 -89t-109 -54.5t-121 -18.5q-30 0 -72.5 8.5t-82 26t-67.5 44.5t-28 66q0 22 9.5 45t37.5 23q35 0 53.5 -27.5t39.5 -61t52.5 -61.5t92.5 -28q46 0 77.5 19t52 49.5 t30 69t9.5 77.5q0 46 -16 87t-44.5 72.5t-68.5 50t-86 18.5q-37 0 -65 -10.5t-61 -28.5l-20 24l377 418h-201q-23 0 -56 -1t-52 -14q-31 -20 -57 -59t-41 -70l-22 7l94 237h476z" />
<glyph unicode="4" horiz-adv-x="699" d="M144 100h313v296l118 137v-914l-118 -65v446h-424l-11 28l666 780l43 -42z" />
<glyph unicode="5" horiz-adv-x="684" d="M633 964q-34 -46 -69 -74t-74.5 -43t-85 -20.5t-99.5 -5.5l-146 -383q54 37 110.5 62t122.5 25q106 0 166 -65.5t60 -169.5q0 -66 -28.5 -122.5t-76 -97t-107.5 -64t-125 -23.5q-50 0 -101.5 17t-92.5 48q-17 15 -33.5 34.5t-16.5 43.5q0 22 15.5 36t36.5 14 q20 0 39.5 -25t42.5 -55.5t55.5 -55.5t80.5 -25q45 0 76 22t52.5 56.5t30.5 76t9 78.5q0 39 -11 77t-32 66.5t-53.5 47t-75.5 18.5q-51 0 -95.5 -29.5t-72.5 -72.5l-41 8l211 616q39 -24 67.5 -32.5t73.5 -8.5q54 0 89 10t83 36l15 -20v0z" />
<glyph unicode="6" horiz-adv-x="721" d="M827 1141q0 -11 -5.5 -19t-18.5 -8q-11 0 -27 5.5t-27 8.5q-53 15 -105 15q-82 0 -147.5 -36t-115.5 -93.5t-85 -128.5t-54 -139q-38 -134 -38 -272q44 22 85.5 32t91.5 10q56 0 107.5 -16.5t90.5 -48t63 -78t24 -105.5q0 -61 -27 -113.5t-70.5 -90.5t-99 -59.5 t-114.5 -21.5q-79 0 -135.5 34.5t-92.5 90t-53.5 125t-17.5 137.5q0 85 18 171t52.5 167.5t81.5 155.5t106 135q36 37 78.5 71t89.5 61t99 43t105 16q11 0 34.5 -1t46.5 -6.5t41.5 -15t18.5 -26.5zM520 255q0 41 -9.5 81t-30.5 72t-54.5 51.5t-79.5 19.5q-78 0 -118.5 -42.5 t-40.5 -118.5q0 -39 11 -91.5t35 -100.5t60 -81.5t86 -33.5q45 0 71.5 26t42.5 64t21.5 79.5t5.5 74.5z" />
<glyph unicode="7" horiz-adv-x="690" d="M270 -200q-42 -68 -70 -128t-39 -142h-139q37 100 99 192.5t121 181.5l348 501h-200q-13 0 -42.5 -1t-62.5 -2t-62 -4.5t-40 -9.5q-11 -5 -26.5 -30t-32.5 -55.5t-30.5 -57.5t-19.5 -38h-24q24 91 52 179t59 176h28q0 -9 1 -19t10 -18q5 -3 18 -5t28 -3t29 -1h19h407z " />
<glyph unicode="8" horiz-adv-x="719" d="M666 279q0 -68 -29.5 -122.5t-77 -93.5t-109.5 -59.5t-124 -20.5q-50 0 -99 14t-87 42.5t-62 70.5t-24 97q0 48 20 90t50.5 77t68.5 64.5t75 55.5q-31 20 -60.5 43.5t-53.5 51t-38 61t-14 73.5q0 58 25 107t65.5 84t92.5 55.5t107 20.5q50 0 94.5 -17t78 -47.5t52.5 -74 t19 -94.5q0 -43 -19 -74.5t-48 -55.5t-64 -42.5t-67 -35.5q36 -24 76.5 -50.5t74 -58t55.5 -71.5t22 -90zM546 751q0 39 -12 76t-35.5 65.5t-56.5 47t-74 18.5q-35 0 -64.5 -13.5t-52 -37t-34.5 -54t-12 -65.5q0 -42 17 -75.5t43.5 -59.5t60 -45.5t68.5 -35.5 q32 13 59.5 28.5t48 37t32.5 49t12 64.5zM544 191q0 57 -21.5 98.5t-55.5 74t-77.5 56.5t-86.5 50q-68 -37 -114.5 -86t-46.5 -132q0 -48 16 -91.5t44.5 -75t69.5 -50t91 -18.5q77 0 129 46t52 128z" />
<glyph unicode="9" horiz-adv-x="691" d="M636 161q0 -187 -83 -341.5t-250 -245.5q-61 -33 -130 -53.5t-140 -20.5q-20 0 -42 2t-43 6l8 28q14 -2 30 -3t31 -1q211 0 346 168q31 39 50.5 76t32.5 75t20.5 79.5t12.5 89.5q-44 -18 -82 -27.5t-86 -9.5q-128 0 -192.5 75t-64.5 197q0 72 19 119.5t73 95.5 q37 37 81.5 56.5t98.5 19.5q81 0 139.5 -33.5t96 -87t56 -123t18.5 -141.5zM490 187q0 70 -11 136.5t-53 126.5q-21 25 -47.5 45.5t-62.5 20.5q-38 0 -64 -18.5t-43 -46t-24 -62t-7 -65.5q0 -45 9 -96.5t31 -96t59 -73t93 -28.5q33 0 60 11t53 31q4 30 5.5 57.5t1.5 57.5z " />
<glyph unicode=":" horiz-adv-x="482" d="M327 450q0 -37 -24.5 -62t-62.5 -25q-36 0 -60.5 25.5t-24.5 61.5q0 35 25 60t60 25q38 0 62.5 -24t24.5 -61zM327 70q0 -37 -24.5 -62t-62.5 -25q-36 0 -60.5 26t-24.5 61t24.5 61t60.5 26q38 0 62.5 -25t24.5 -62z" />
<glyph unicode=";" horiz-adv-x="482" d="M327 450q0 -32 -19 -59.5t-55 -27.5q-37 0 -62 25t-25 62t25 61t62 24q36 0 55 -27t19 -58zM337 54q0 -43 -25 -83.5t-62 -76.5t-78.5 -66t-73.5 -48l-15 16q54 43 92 89.5t38 120.5q0 11 -4 26.5t-10.5 31.5t-17.5 26t-24 10q-15 0 -27.5 -7.5t-25.5 -11.5l-15 15 q33 22 75.5 41.5t83.5 19.5t65 -33t24 -70z" />
<glyph unicode="&#x3c;" d="M61 574v68l803 355v-76l-722 -314l722 -317v-74z" />
<glyph unicode="=" d="M61 731v66h803v-66h-803zM61 470v66h803v-66h-803z" />
<glyph unicode="&#x3e;" d="M61 216v76l722 315l-722 316v74l803 -357v-68z" />
<glyph unicode="?" horiz-adv-x="736" d="M660 979q0 -50 -16.5 -93.5t-41.5 -84.5t-55.5 -79t-59.5 -73q-39 -48 -75 -98t-64 -105q-11 -22 -24 -56.5t-13 -60.5q0 -24 10 -49t21 -45l-20 -20q-26 35 -50 78.5t-24 89.5q0 30 11 69.5t27.5 79.5t35 76t33.5 62q26 42 54 85.5t52 90t38.5 95.5t14.5 101q0 37 -8 71 t-26 60t-47.5 41.5t-69.5 15.5q-49 0 -85 -26t-36 -77q0 -30 11.5 -57.5t11.5 -50.5q0 -14 -12.5 -23.5t-28 -15t-32 -7.5t-26.5 -2q-25 0 -31.5 26t-6.5 46q0 50 20 92t53.5 70.5t78 44t92.5 15.5q59 0 111.5 -23t91.5 -62t62 -90.5t23 -110.5zM403 70q0 -37 -25 -62 t-62 -25t-61 26t-24 61t24 61t61 26t62 -25t25 -62z" />
<glyph unicode="@" horiz-adv-x="1356" d="M1282 699q0 -89 -26 -177q-15 -45 -39 -92t-59 -85t-78.5 -63t-95.5 -25q-61 0 -96 37t-35 98q-41 -65 -97.5 -102t-133.5 -37q-65 0 -113 25t-80.5 67t-49 96.5t-16.5 113.5q0 70 22 137.5t63.5 121.5t101.5 86t136 32q89 0 141 -42.5t78 -125.5l27 144h60l-80 -410 q-4 -23 -8.5 -46t-4.5 -45q0 -43 23 -70.5t68 -27.5q42 0 78 24t63 60t46.5 78.5t28.5 77.5q21 76 21 147q0 112 -42 204t-114 156.5t-168 99.5t-206 35q-122 0 -227.5 -44t-183 -122t-122 -183.5t-44.5 -227.5q0 -113 40 -218.5t118 -188.5q92 -98 204 -137t245 -39 q115 0 212 26t199 78l22 -54q-100 -53 -212 -79t-223 -26q-142 0 -263.5 45.5t-211 129.5t-140.5 202.5t-51 262.5q0 135 50 249.5t136 200t202.5 133.5t249.5 48q119 0 225.5 -39t187 -111t126.5 -173t46 -225zM871 666q0 43 -11 80.5t-34 66.5t-57.5 45.5t-80.5 16.5 q-61 0 -110 -28.5t-82.5 -75t-51 -103t-17.5 -111.5q0 -46 12 -89.5t37 -78t63 -55.5t90 -21q67 0 113 35t74.5 87.5t41.5 114.5t13 116z" />
<glyph unicode="A" horiz-adv-x="1307" d="M710 0v43l95 5q16 0 34 2t32.5 8.5t24.5 18.5t10 32v11q0 8 -7 33.5t-11 33.5l-78 237q-48 2 -97 3.5t-97 1.5t-97 -1.5t-97 -3.5l-74 -217q-9 -24 -15 -50.5t-6 -52.5q0 -10 2 -18t8 -16q9 -11 35 -16.5t54.5 -8t56.5 -2.5h41v-43h-524v43q54 1 94.5 4t71 16t53.5 42.5 t46 85.5q20 53 40.5 107t38.5 107l235 698l-39 116l37 33q8 -1 13.5 -2t12.5 -1q26 0 54.5 9t52.5 18l333 -998q8 -21 18 -49.5t24 -57.5t29.5 -54t32.5 -37q30 -21 78 -25.5t83 -11.5v-43h-598zM614 1005l-168 -513q37 -2 72 -3t70 -1h58q35 0 70 1t70 3z" />
<glyph unicode="B" horiz-adv-x="1289" d="M1178 339q0 -61 -22 -116t-61 -97.5t-90.5 -73t-109.5 -41.5q-46 -9 -94 -10t-96 -1h-705v43q9 0 49 0.5t85 3.5t84 7.5t50 12.5q11 7 16.5 40.5t8.5 72t4 74t1 49.5v626q0 53 -2 108.5t-18 107.5q-4 15 -7 19.5t-18 8.5q-24 7 -57 10t-69 5t-69.5 2h-57.5v44h505 q28 0 54.5 -1t54.5 -1q45 0 89 -1t86 -8.5t81.5 -22t76.5 -44.5q46 -37 76.5 -94t30.5 -118q0 -45 -16.5 -79t-44 -62t-63 -48.5t-72.5 -32.5q63 -26 121.5 -61.5t103 -81.5t70 -105.5t25.5 -134.5zM845 936q0 67 -29.5 114t-75.5 75.5t-104.5 42.5t-115.5 14h-20 q-10 -48 -12.5 -97t-6.5 -97q-2 -32 -4 -62.5t-2 -61.5v-122q25 -4 48 -6t47 -2q50 0 99 9.5t88 33.5t63.5 62t24.5 97zM958 355q0 63 -28.5 125t-71.5 108q-27 30 -54 48.5t-56.5 27t-63 11t-72.5 2.5q-35 0 -68 -2t-69 -3v-335q0 -24 1 -47.5t3 -47.5q2 -31 2 -52.5t2 -39 t4.5 -38t10.5 -51.5q33 -4 67 -6.5t68 -2.5q59 0 122 12t109 56q42 41 68 108.5t26 126.5z" />
<glyph unicode="C" horiz-adv-x="1270" d="M1212 222q-26 -39 -50 -68.5t-50 -53.5t-58.5 -44.5t-76.5 -38.5q-61 -26 -127 -38t-132 -12q-117 0 -217 34t-188 110q-121 100 -173.5 225t-52.5 280q0 146 44.5 265.5t127.5 204.5t201.5 132t266.5 47q54 0 107.5 -6.5t107.5 -15.5q18 -3 36.5 -6t37.5 -3q20 0 34 6.5 t25 24.5h28q22 -107 39.5 -211.5t32.5 -213.5h-28q-13 28 -28 66t-33.5 75.5t-37.5 73t-42 57.5q-26 26 -59 44.5t-70 30.5t-75 17.5t-73 5.5q-115 0 -196.5 -41t-135 -111t-78.5 -163.5t-25 -197.5q0 -114 33.5 -228t100 -204.5t163.5 -147t225 -56.5q87 0 164 35 q34 15 58 30.5t45 34t39.5 41t39.5 50.5l50 -30v0z" />
<glyph unicode="D" horiz-adv-x="1509" d="M1423 607q0 -133 -53 -259t-153 -217q-51 -46 -108.5 -73t-119.5 -39.5t-127 -15.5t-131 -3h-733v43q8 0 48.5 0.5t86.5 2.5t86 6.5t49 14.5q11 9 17.5 45t9.5 77.5t4 80.5t1 54v584v56.5t-2 63t-6.5 63t-12.5 54.5q-3 15 -7 19.5t-19 8.5q-48 15 -104.5 15t-105.5 2v44 h593q89 0 178 -4.5t176 -28.5q100 -28 180.5 -85.5t136.5 -137t86 -174.5t30 -197zM1202 618q0 115 -32 223t-108 197q-41 46 -86 74.5t-96 44.5t-106.5 20.5t-114.5 4.5q-39 0 -79 -3.5t-79 -7.5q-9 -31 -14.5 -80t-7.5 -103t-2 -105v-84v-366q0 -37 1 -72t3 -72 q2 -56 2 -113.5t15 -110.5q53 -4 108.5 -6t109.5 -2q50 0 94.5 3t84 14t77.5 32.5t73 58.5q83 90 120 210.5t37 242.5z" />
<glyph unicode="E" horiz-adv-x="1250" d="M1208 268q-46 -83 -86 -163.5t-77 -167.5h-37q-3 19 -6 32t-9.5 19t-17.5 9t-31 3h-846v43q7 0 32 1.5t54 4.5t54 7.5t30 10.5q11 11 16.5 43t8.5 71t4 75t1 51v618q0 54 -2 110.5t-17 109.5q-3 15 -13.5 22.5t-22.5 11t-26.5 3.5t-27.5 2l-61 6v44h816l64 31l24 -31 q-26 -65 -45 -128.5t-38 -130.5h-20q-8 37 -15.5 73t-27.5 69q-15 24 -33.5 37t-40.5 18.5t-47 5.5h-49h-120q-52 0 -102 -5q-9 -46 -13 -89.5t-4 -90.5v-312h145q44 0 72 7.5t45.5 24t30.5 43.5t29 64h46q-11 -100 -15.5 -197.5t-0.5 -196.5h-35q-4 12 -12.5 38t-18.5 54 t-22 51t-21 32q-8 6 -32 9.5t-51.5 5.5t-52.5 3t-35 1h-72v-367q0 -46 5 -90.5t12 -90.5q46 -13 91.5 -15.5t93.5 -2.5q89 0 157.5 13.5t126.5 42.5t111 73.5t112 106.5l22 -22v0z" />
<glyph unicode="F" horiz-adv-x="1032" d="M988 934q-8 22 -17 54.5t-22 65t-28 61t-31 43.5q-9 8 -43.5 11.5t-74 6t-76.5 3.5t-48 1q-38 0 -75 -1.5t-73 -5.5q-10 -57 -17.5 -114.5t-7.5 -116.5v-261q17 0 33 -1t32 -1q9 0 27 1t37 2.5t35 5.5t23 9q10 8 18 38.5t14.5 68.5t11 73t8.5 50h46v-46 q0 -128 -2.5 -255.5t-6.5 -255.5h-44q0 15 -3 49t-8.5 70t-13 66.5t-18.5 42.5q-9 7 -28.5 12.5t-41.5 7.5t-43.5 3t-32.5 1h-21t-22 -2v-309q0 -52 3 -112t18 -110q4 -15 7.5 -19.5t18.5 -8.5q40 -11 83 -13t83 -5v-43h-631v43q6 0 36.5 0.5t66.5 3.5t67.5 7.5t40.5 12.5 q11 9 16.5 41.5t8.5 69.5t4 71t1 49v636q0 46 -2 106.5t-17 104.5q-3 13 -7 18.5t-19 9.5q-42 11 -87.5 12t-89.5 5v44h736h58h23t23 3t18.5 10t7.5 22h37q18 -78 24.5 -153.5t6.5 -153.5v-28h-22z" />
<glyph unicode="G" horiz-adv-x="1400" d="M1415 370q-9 -2 -37.5 -4.5t-61 -7.5t-60.5 -11.5t-35 -11.5q-15 -15 -17 -40t-2 -43q0 -30 5 -49.5t14 -47.5q-54 -48 -105.5 -83t-106 -59t-116.5 -35t-135 -11q-114 0 -234.5 35t-210.5 107q-56 45 -98.5 103t-70 124.5t-42.5 138t-15 141.5q0 141 51 260t139.5 205 t210 135t259.5 49q89 0 173.5 -18.5t171.5 -42.5q9 -3 18 -5t18 -2q26 0 49 26h24l51 -418h-20q-30 65 -61 131.5t-74 121.5q-30 39 -70.5 67.5t-87.5 47t-97 28t-98 9.5q-122 0 -204.5 -49t-132.5 -127.5t-72 -180.5t-22 -207q0 -111 25.5 -222t82 -199t147.5 -143.5 t218 -55.5q21 0 52.5 3.5t62.5 11t58 20.5t40 31q7 12 13 29.5t8.5 37.5t3.5 38.5t1 31.5q0 19 -1 36.5t-3 36.5q-2 22 -4.5 29.5t-28.5 12.5q-13 4 -26 5t-26 4l-194 34v31l673 -9v-39v0z" />
<glyph unicode="H" horiz-adv-x="1607" d="M910 0v43q6 0 33.5 1.5t60 4.5t61 7.5t36.5 10.5q11 9 16.5 41.5t8 70t3.5 73t1 50.5v288h-655v-279q0 -52 3 -112t18 -110q4 -13 7.5 -18.5t16.5 -9.5q37 -11 76.5 -13t76.5 -5v-43h-593v43q5 0 32 1.5t59.5 4.5t61 7.5t35.5 10.5q10 7 16 40.5t9 72t4 74t1 48.5v630 q0 50 -3 107.5t-17 105.5q-4 13 -8 18.5t-17 9.5q-42 11 -86.5 12t-86.5 5v44h593v-44q-9 0 -33 -1t-51 -4t-52 -7.5t-32 -11.5q-9 -10 -15.5 -42t-9.5 -71t-4 -74t-1 -48v-276h655v266q0 50 -1.5 113t-16.5 111q-4 13 -8.5 18.5t-17.5 9.5q-43 11 -87 12t-89 5v44h648v-44 q-8 0 -39.5 -1t-67.5 -3t-69 -7.5t-43 -12.5q-11 -10 -17.5 -42t-9 -70t-2.5 -73.5v-49.5v-631q0 -48 2 -106.5t16 -104.5q4 -13 8.5 -18.5t17.5 -9.5q45 -15 102 -15t102 -3v-43h-648z" />
<glyph unicode="I" horiz-adv-x="775" d="M43 0v43q1 0 33.5 0.5t72.5 3.5t75 7.5t44 12.5q11 9 16.5 40.5t8.5 69.5t4 71t1 48v636q0 52 -2 108.5t-17 104.5q-3 13 -8 18.5t-18 9.5q-51 15 -104 15t-106 2v44h712v-44h-41t-77.5 -3t-80.5 -7.5t-49 -13.5q-9 -10 -14 -31t-6 -32q-8 -43 -9 -83.5t-1 -83.5v-636 q0 -50 2 -106.5t17 -104.5q4 -15 7.5 -19.5t18.5 -8.5q18 -7 50.5 -11t67.5 -5t66.5 -1.5t48.5 -0.5v-43h-712z" />
<glyph unicode="J" horiz-adv-x="910" d="M899 1190q-9 0 -36 -1t-57.5 -4t-57 -7.5t-36.5 -11.5q-15 -13 -21.5 -66t-8 -114t-0.5 -114.5t1 -68.5q0 -26 -1 -50t-1 -50q0 -33 -1 -85t-3 -107.5t-7.5 -109t-16.5 -90.5q-9 -32 -28.5 -67t-44.5 -67.5t-52 -62t-53 -49.5q-59 -47 -130 -72.5t-147 -25.5 q-35 0 -70.5 8t-64 26.5t-46 47.5t-17.5 69q0 47 29.5 82t77.5 35q52 0 78 -33.5t26 -81.5q0 -26 -6.5 -46t-15.5 -44q15 -6 27 -7t28 -1q58 0 107 24t89 63q28 24 41 54q7 18 12 54t6.5 77t1.5 78v57q2 128 3 252t1 251q0 48 -2 107.5t-16 105.5q-4 15 -8 19.5t-18 8.5 q-48 15 -99 15t-99 2v44h636v-44v0z" />
<glyph unicode="K" horiz-adv-x="1463" d="M1001 0l-353 609q-26 44 -58 85l-113 -119v-264q0 -48 2 -112t17 -110q4 -13 8.5 -18.5t17.5 -9.5q39 -13 82.5 -14t81.5 -4v-43h-632v43q5 0 35.5 0.5t67.5 3.5t69.5 7.5t41.5 12.5q11 7 16.5 40.5t8.5 72t4 74t1 49.5v629q0 48 -2 106.5t-17 106.5q-3 13 -8 18.5 t-18 9.5q-42 11 -84.5 12t-85.5 5v44h585v-44q-9 0 -32.5 -1t-49 -4t-49 -7.5t-30.5 -11.5q-11 -10 -17.5 -42t-9.5 -70t-3 -73.5v-49.5v-276l276 296q11 13 39 41.5t55.5 60t49 61t21.5 44.5q0 17 -18 24.5t-40 8t-43 0t-29 -0.5v44h551v-44q-27 0 -67 0.5t-80.5 -2 t-79.5 -10t-65 -24.5q-18 -11 -35 -24.5t-32 -28.5q-11 -9 -21 -20.5t-21 -22.5l-115 -116q-5 -6 -20 -21.5t-30 -32.5t-26 -32.5t-11 -23.5q0 -3 5.5 -18t14 -32.5t16 -33t11.5 -21.5l307 -509q37 -61 73 -95t77.5 -52.5t92.5 -23t117 -4.5v-43h-449z" />
<glyph unicode="L" horiz-adv-x="1206" d="M1090 -63h-56q0 32 -1 47.5t-38 15.5h-958v43q4 0 37 0.5t73 3.5t76 7.5t45 12.5q11 9 16.5 39.5t8.5 66.5t4 69.5t1 47.5v642q0 48 -2 106.5t-17 106.5q-3 13 -8 18.5t-18 9.5q-37 9 -74.5 11t-74.5 6v44h614v-44q-2 0 -32.5 -1t-68.5 -3t-71.5 -7.5t-38.5 -12.5 q-11 -8 -17.5 -42t-9.5 -76t-4 -79t-1 -50v-627q0 -55 7.5 -108t17.5 -106q20 -6 40.5 -9.5t42.5 -3.5h270q63 0 105.5 16.5t71 48t49 74t40.5 96.5h28z" />
<glyph unicode="M" horiz-adv-x="1953" d="M1252 0v43h45.5h65t65 2.5t45.5 8.5q24 7 24 31q0 32 -7.5 64t-15.5 64q-38 175 -77 349t-72 352l-352 -881q-111 235 -219 465.5t-227 459.5l-77 -642q-4 -37 -8.5 -76.5t-4.5 -76.5q0 -21 5.5 -46t19.5 -39q13 -13 42 -19.5t62 -10.5t65.5 -4.5t49.5 -0.5v-43h-681v43 q68 3 138.5 8t135.5 29q22 7 37 33t24 58.5t13.5 63.5t8.5 52l80 527q7 43 12.5 87t5.5 87q0 42 -16.5 82t-48.5 71q-26 26 -48 32.5t-55 10.5q-65 6 -130 6l8 44q90 -6 183 -6q55 0 111.5 4t112.5 8q61 -100 115.5 -204t108.5 -209l238 -472q43 107 82.5 214.5t80.5 214.5 q43 115 87 227t83 229q32 -2 60.5 -2h59.5q61 0 122.5 4.5t122.5 9.5l11 -42q-47 -8 -92 -16t-90 -19q-25 -6 -51 -13.5t-26 -38.5v-2q0 -22 4.5 -59t10 -77t13 -77.5l12.5 -62.5q23 -101 44 -201t43 -202q4 -15 16 -71.5t28.5 -121t35 -120t33.5 -68.5q11 -9 44.5 -13.5 t71.5 -5.5t70 0t44 1v-43h-702z" />
<glyph unicode="N" horiz-adv-x="1605" d="M1606 1190q-54 -4 -109.5 -8.5t-108.5 -10.5q-28 -4 -37.5 -22.5t-14.5 -42.5q-6 -26 -8.5 -51t-4.5 -50q-6 -78 -7.5 -154t-3.5 -154l-8 -508q-2 -111 0 -220h-46q-18 35 -40.5 61t-48.5 55l-692 779l-6 -270t-3 -270v-108.5t20 -104.5q17 -41 43 -49t67 -12 q25 -2 48.5 -3t49.5 -4v-43h-607v43h50.5t57.5 1.5t55.5 5.5t49.5 13q27 11 44 36t25 55.5t11 62t3 57.5q3 150 8 296t5 296v43.5t-4 32t-13 29.5t-28 35l-75 87q-25 26 -42.5 41t-48.5 28q-45 18 -92 22t-95 6v44h403q206 -237 408.5 -467.5t415.5 -459.5q3 135 6 268.5 t3 268.5v64.5t-3 79.5t-7.5 78.5t-11.5 60.5q-10 26 -22 33t-38 13q-42 9 -86.5 12t-87.5 5v44h626v-44v0z" />
<glyph unicode="O" horiz-adv-x="1552" d="M1465 609q0 -137 -59 -254.5t-156 -203.5t-222 -135t-257 -49q-133 0 -257 47t-219 132t-151.5 201.5t-56.5 255.5t54.5 260t147 211t215.5 140.5t262 50.5q135 0 261 -50.5t223 -138.5t156 -208.5t59 -258.5zM1234 653q0 102 -31.5 202t-90.5 180.5t-147 130t-199 49.5 q-118 0 -201.5 -58t-136 -148t-77.5 -197t-25 -207t25 -204.5t77.5 -189.5t136 -139.5t201.5 -54.5q79 0 147.5 29.5t124 79.5t95.5 114.5t64 136.5q20 60 28.5 120t8.5 121v35z" />
<glyph unicode="P" horiz-adv-x="1202" d="M1138 871q0 -61 -30 -124q-29 -63 -74.5 -103.5t-102 -63.5t-120.5 -31.5t-127 -8.5q-51 0 -103 3l-104 6v-244v-50.5t2 -58.5t5.5 -58.5t11.5 -48.5q4 -15 7.5 -19.5t18.5 -8.5q20 -7 47 -10t55.5 -5t55.5 -2t47 -1v-43h-684v43q7 0 40.5 1.5t72 4.5t72 6.5t40.5 11.5 q11 11 17.5 46t9.5 76.5t4 80.5t1 54v603q0 48 -3 110t-18 108q-3 15 -7 19.5t-19 8.5q-44 15 -93 15t-95 2v44h534q71 0 137.5 -4.5t134.5 -25.5q58 -16 106 -46.5t84 -74t56.5 -97.5t20.5 -115zM931 881q0 66 -27 122.5t-72.5 96.5t-104.5 62t-124 22q-29 0 -57 -3t-58 -6 q-3 -58 -7 -115t-4 -115v-342q28 -4 56 -5.5t55 -1.5q65 0 124 12t113 54q48 39 77 97.5t29 121.5z" />
<glyph unicode="Q" horiz-adv-x="1554" d="M1467 610q0 -61 -15 -122.5t-40.5 -120t-62.5 -111t-82 -93.5q-85 -80 -181 -119.5t-209 -58.5q9 -2 17.5 -2.5t15.5 -4.5q39 -15 78 -51t77 -79.5t75.5 -87t74.5 -71.5q28 -20 56 -24.5t61 -4.5q26 0 49 3.5t47 9.5l21 -21q-65 -28 -134.5 -43.5t-139.5 -15.5 q-45 0 -77 10t-57 28.5t-47.5 44.5t-49.5 58q-38 42 -74 79t-78 74q-32 28 -59.5 44.5t-55.5 28.5t-59.5 23t-69.5 26q-97 35 -181 94.5t-146 137t-98 173t-36 200.5q0 137 61 255.5t161 206.5t226.5 138.5t258.5 50.5q137 0 259 -49.5t214.5 -138.5t146 -208.5t53.5 -258.5 zM1228 616q0 118 -38 229q-23 69 -63.5 135.5t-96 118.5t-124 84t-146.5 32q-112 0 -193.5 -55.5t-134.5 -140.5t-79 -187.5t-26 -198.5q0 -59 8.5 -119.5t27.5 -117.5q20 -70 57 -136t89 -118.5t117.5 -84t143.5 -31.5q112 0 198 54.5t144.5 140.5t87 190.5t28.5 204.5z " />
<glyph unicode="R" horiz-adv-x="1457" d="M1474 115q-25 -26 -52 -52t-56.5 -47.5t-63 -35t-72.5 -13.5q-50 0 -100 13.5t-92 39.5q-65 37 -105.5 88t-69.5 108.5t-48 117.5t-39.5 115.5t-45.5 102.5t-66 77t-90 30.5t-97 0.5v-353v-50.5t2 -59.5t5.5 -59.5t11.5 -48.5q4 -15 7.5 -19.5t18.5 -8.5q37 -13 91.5 -14 t93.5 -4v-43h-668v43q7 0 40.5 1.5t72.5 4.5t73 6.5t43 11.5q11 9 16.5 42t8.5 72t4 75t1 51v618q0 48 -2 110t-17 110q-3 15 -7 19.5t-19 8.5q-46 13 -93 14t-93 3v44h532q63 0 128 -6.5t124 -23.5q94 -26 150.5 -94t56.5 -168q0 -56 -19.5 -112.5t-61.5 -93.5 q-48 -42 -112 -56t-125 -21q43 -10 77 -22t65 -43q39 -41 75 -100t59 -111l57 -131q15 -34 39 -66t55.5 -58t67.5 -42t75 -16q37 0 74 27t63 51l27 -33v0zM857 940q0 57 -28 102.5t-72.5 76t-98 46t-103.5 15.5q-19 0 -35.5 -1.5t-34.5 -3.5q0 -34 -3 -68t-3 -67l-2 -330 q45 0 88.5 2t85.5 11q83 17 144.5 70.5t61.5 146.5z" />
<glyph unicode="S" horiz-adv-x="1065" d="M951 370q0 -100 -37 -176t-101 -126t-148 -75.5t-177 -25.5q-77 0 -153 17.5t-146 48.5q-13 6 -40 18t-40 12q-20 0 -36 -19.5t-25 -34.5l-31 13l131 404l22 -6q0 -63 -1 -129.5t29 -124.5q18 -36 49.5 -62t69.5 -42t79.5 -23.5t80.5 -7.5q61 0 114 14t92 43.5t61 77 t22 113.5q0 39 -11 76t-37 69q-15 16 -40 35.5t-52.5 38t-54.5 35t-46 28.5q-50 31 -102.5 61.5t-95.5 73.5q-31 31 -47.5 72.5t-16.5 86.5q0 76 29.5 149t80.5 131t119.5 94t147.5 36q32 0 67 -6.5t63 -17.5q18 -7 34.5 -14.5t37.5 -7.5q15 0 23 9.5t16 18.5h33l24 -398 h-24q-11 54 -27 117t-44.5 115.5t-74 87.5t-115.5 35q-50 0 -95.5 -18.5t-80.5 -50.5t-56 -76.5t-21 -94.5q0 -32 11 -58.5t31 -50.5q17 -19 43.5 -40t56.5 -40.5t59.5 -37t51.5 -30.5q59 -35 125.5 -75t113.5 -90q33 -37 46 -80.5t13 -91.5z" />
<glyph unicode="T" horiz-adv-x="1230" d="M1217 1254q-16 -83 -24.5 -159t-12.5 -159l-20 -7q-13 59 -31.5 111.5t-64.5 95.5q-34 31 -72.5 36.5t-81.5 5.5h-205q-9 -72 -15 -144t-6 -144v-583q0 -48 2 -109t17 -109q4 -15 7.5 -19.5t18.5 -8.5q46 -15 109 -15t111 -3v-43h-690v43q7 0 39.5 1.5t68.5 4.5t67.5 6.5 t40.5 11.5q12 7 17.5 38.5t8 69.5t3.5 71t1 48v585q0 76 -3.5 150t-9.5 149h-203q-39 0 -70.5 -3.5t-63.5 -27.5q-50 -37 -74.5 -90.5t-41.5 -111.5l-26 10q11 77 23 153t27 154l42 14q17 -16 28 -24.5t22 -13t25 -4.5h38h790q17 0 34.5 1t34.5 1q20 0 33 1t24 5.5t21.5 12 t24.5 21.5l37 -22v0z" />
<glyph unicode="U" horiz-adv-x="1385" d="M1473 1190q-21 0 -52.5 0.5t-65.5 0t-63.5 -7t-46.5 -21.5q-13 -11 -18.5 -37t-7.5 -55.5t-2 -56.5v-44v-397v-49t-2 -49q-3 -110 -37.5 -202.5t-96.5 -160.5t-151.5 -106t-202.5 -38q-91 0 -173 30.5t-145 96.5q-45 48 -70.5 103t-37.5 113t-15 120t-3 125v353 q0 60 -2 120t-18 117q-4 15 -7 19.5t-17 8.5q-48 15 -98 15t-98 2v44h660v-44q-11 0 -41.5 -1t-64 -4t-63 -7.5t-38.5 -11.5q-9 -10 -14 -31t-7 -32q-7 -43 -8 -86.5t-1 -85.5v-441q0 -44 3 -90.5t12 -90.5q22 -109 100 -171t189 -62q70 0 144 28.5t124 78.5 q35 35 56.5 79.5t32.5 91.5t13.5 97t2.5 98v385q0 43 -1.5 87.5t-11.5 86.5q-13 58 -54.5 70t-91.5 12h-89v44h578v-44v0z" />
<glyph unicode="V" horiz-adv-x="1594" d="M1595 1190q-67 0 -130 -12q-39 -5 -62 -15t-49 -42q-37 -48 -64.5 -107t-53.5 -113q-41 -85 -80 -170t-76 -172l-249 -589h-48l-404 936q-11 26 -27.5 61.5t-36 69.5t-41.5 64.5t-45 49.5q-20 16 -48.5 23.5t-60 10.5t-63 3t-57.5 2v44h731v-44q-17 -2 -53 -4t-72 -9.5 t-63 -22t-27 -42.5q0 -24 17.5 -78t40 -114t45.5 -113.5t34 -79.5l207 -475l268 605q10 22 25.5 57t30.5 72t25 72t10 56q0 31 -18.5 47t-44.5 21.5t-55.5 5.5t-51.5 2v44h546v-44v0z" />
<glyph unicode="W" horiz-adv-x="2088" d="M2089 1190q-21 0 -48.5 -2t-56.5 -6t-55.5 -9.5t-43.5 -16.5q-26 -15 -52 -57.5t-50 -92.5t-44 -98t-33 -77l-359 -861h-15l-281 709l-311 -709h-13l-370 944q-17 42 -35.5 83t-38.5 82q-15 31 -28 46.5t-46 30.5q-48 21 -101.5 25.5t-107.5 8.5v44h705v-44 q-56 -2 -115 -12q-39 -3 -66.5 -17t-27.5 -60q0 -26 7.5 -51t16.5 -49l277 -705l307 709h21l275 -709l215 555q7 20 18.5 49t21.5 58.5t16.5 59t6.5 51.5q0 30 -9.5 49.5t-26 31.5t-38.5 18.5t-50 9.5q-56 8 -113 12v44h648v-44v0z" />
<glyph unicode="X" horiz-adv-x="1391" d="M758 0v43q8 0 29 2.5t43.5 7t39 13t16.5 21.5t-16.5 49t-40.5 83t-53 98t-54.5 94.5t-43.5 73t-19 33.5l-172 -276q-21 -31 -46 -75.5t-25 -81.5q0 -17 17 -26t39 -12t43 -3.5t33 -0.5v-43h-537v43l94 5q21 2 39.5 4t38.5 4q32 3 47.5 7t39.5 28q35 33 64.5 70t55.5 78 l217 329q-8 13 -33.5 57.5t-62 104.5t-80 128.5t-85 128.5t-77.5 104.5t-60 57.5q-18 9 -43 16.5t-53 12t-55 7.5t-47 5v44h603v-44h-25.5t-42 -1t-38 -6.5t-16.5 -16.5q0 -15 8.5 -39t20.5 -49t24 -48.5t21 -36.5l163 -268q37 59 73 116.5t73 116.5q6 10 22.5 36.5t34 57 t30.5 58.5t13 41t-6.5 20t-16.5 10t-21.5 4t-22.5 1l-38 4v44h512v-44q-24 0 -53.5 -1t-60 -4t-59.5 -8.5t-51 -16.5q-28 -15 -61 -46.5t-63.5 -69.5t-58.5 -75.5t-44 -65.5l-156 -241q4 -5 29 -46.5t62 -101t81.5 -129t87 -131.5t78.5 -108t58 -59q20 -13 48 -21.5 t58.5 -13t60 -7t53.5 -2.5v-43h-633z" />
<glyph unicode="Y" horiz-adv-x="1307" d="M1308 1190q-15 0 -38 -1t-48 -4t-47 -6.5t-35 -9.5q-21 -9 -52.5 -51.5t-67.5 -102t-75 -127.5t-72 -132t-57 -116t-33 -74q-12 -31 -15.5 -60t-3.5 -60v-137v-51.5t2 -59.5t5.5 -58.5t11.5 -50.5q3 -13 7 -18.5t18 -9.5q37 -13 81.5 -14t83.5 -4v-43h-616v43q7 0 36 1.5 t62 4.5t63 6.5t37 11.5q11 11 16.5 44t8.5 72t4 75t1 51v150q0 52 -19.5 92.5t-45.5 83.5l-183 309q-13 20 -26 41t-28 42q-35 52 -59 84t-52 49t-66.5 22.5t-105.5 7.5v44h620v-44q-11 0 -40 -2t-57.5 -7.5t-50.5 -16t-22 -28.5q0 -20 19 -63t43 -87t47.5 -83t32.5 -54 l131 -227q37 68 74 136.5t74 136.5q11 23 29.5 52.5t35.5 62.5t29 66.5t12 61.5q0 18 -9.5 28.5t-24 15t-31.5 5.5t-31 1l-67 2v44h494v-44v0z" />
<glyph unicode="Z" horiz-adv-x="1328" d="M1275 1202q-56 -44 -103 -93t-93 -104l-776 -931q67 -4 132.5 -6.5t132.5 -2.5q94 0 193 10t183 62q53 33 94.5 86t78.5 103l21 -12l-139 -397h-54v39.5t-5.5 25t-19.5 14t-39 4.5h-859l9 54q37 16 61.5 46t49.5 59l838 1005h-288q-26 0 -46.5 -1t-40 -4t-38.5 -8.5 t-43 -16.5q-84 -37 -155 -92.5t-134 -120.5h-24l159 352l63 5q0 -22 3.5 -31t13 -12t23.5 -3h34t41.5 -1t41.5 -1h379q73 0 144 2t141 6l21 -36v0z" />
<glyph unicode="[" horiz-adv-x="606" d="M218 -344v1578l304 31v-31l-183 -37v-1506l183 -35v-35z" />
<glyph unicode="\" d="M762 -154l-716 1542h74l716 -1542h-74z" />
<glyph unicode="]" horiz-adv-x="606" d="M83 -379v33l185 37v1506l-185 35v33l304 -33v-1578z" />
<glyph unicode="^" d="M770 707l-309 470l-307 -470h-86l346 527h98l345 -527h-87z" />
<glyph unicode="_" d="M0 -213v67h925v-67h-925z" />
<glyph unicode="`" d="M594 612q-78 54 -151 113t-132 132l100 24q33 -76 86.5 -137t116.5 -113z" />
<glyph unicode="a" horiz-adv-x="649" d="M644 28q-37 -17 -80.5 -31t-84.5 -14q-46 0 -63.5 25t-21.5 68q-44 -37 -98 -65t-113 -28q-52 0 -89.5 25t-37.5 83q0 39 17.5 65.5t45 45t61 31.5t64.5 22q37 13 75 24t75 21v79q0 24 -2 46.5t-9 40t-23 28.5t-46 11q-61 0 -84 -25t-33 -55.5t-20.5 -55.5t-46.5 -25 q-21 0 -35.5 15t-14.5 35q0 11 5.5 20.5t12.5 18.5q19 20 46.5 38.5t60 32.5t65 22.5t59.5 8.5q32 0 63.5 -7.5t57 -23.5t43.5 -41t19 -60q2 -16 2 -32v-32q2 -67 3 -133.5t5 -133.5q2 -22 7.5 -32t29.5 -10q16 0 38.5 10t38.5 16l8 -28v0zM394 270q-30 -5 -67 -16.5 t-70 -30.5t-55.5 -46t-22.5 -66q0 -31 17 -51.5t50 -20.5q39 0 79.5 24t68.5 50v157z" />
<glyph unicode="b" horiz-adv-x="732" d="M683 278q0 -73 -24 -127.5t-67 -92.5t-101 -56.5t-127 -18.5q-83 0 -143 25t-129 70q15 37 18 73t5 77q2 29 2.5 57.5t0.5 58.5v439v164.5t-3 164.5q-2 13 -3 30.5t-20 17.5q-14 0 -40 -14t-41 -21l-11 28q118 64 231 123l19 -16q-13 -22 -15 -38t-2 -42v-582 q0 -36 1 -69t3 -68q52 33 99 53.5t110 20.5q116 0 176.5 -73.5t60.5 -183.5zM549 220q0 39 -7 85.5t-26.5 87t-52 68t-80.5 27.5q-31 0 -63.5 -14.5t-54.5 -35.5q-26 -22 -31.5 -53.5t-5.5 -62.5q0 -26 0.5 -53t0.5 -53q0 -25 -0.5 -50t2.5 -49q6 -58 50.5 -78.5t94.5 -20.5 q98 0 135.5 56.5t37.5 145.5z" />
<glyph unicode="c" horiz-adv-x="617" d="M579 44q-48 -29 -98 -45t-107 -16q-58 0 -115 18.5t-102.5 53t-74 84.5t-28.5 113q0 62 25 114t66.5 89t96 58.5t115.5 21.5q24 0 60 -5.5t71.5 -19.5t60.5 -35.5t25 -54.5q0 -20 -12.5 -29.5t-30.5 -9.5q-26 0 -43.5 19.5t-37 42.5t-45.5 42.5t-66 19.5 q-87 0 -124 -54.5t-37 -134.5q0 -51 13.5 -103t43.5 -93.5t72.5 -67.5t101.5 -26q44 0 83 13t80 31l7 -26v0z" />
<glyph unicode="d" horiz-adv-x="749" d="M723 107q-14 -15 -38.5 -36t-52 -40.5t-54.5 -33.5t-49 -14q-17 0 -25 12t-11 29t-2 34.5t1 28.5q-39 -44 -94.5 -74t-114.5 -30q-55 0 -98 23.5t-71.5 61t-43 87t-14.5 98.5q0 134 82 208.5t212 74.5q44 0 72 -7t68 -26q4 65 6 127t2 127q0 88 -1 177t-5 178 q0 13 -2 30.5t-20 17.5q-15 0 -41 -14t-41 -21l-12 28q59 31 117 61.5t117 61.5l19 -16q-17 -32 -17 -60.5v-63.5l-7 -705v-196q0 -31 1 -62t6 -62q2 -9 5 -18.5t14 -9.5q5 0 15.5 5.5t21.5 14t20 17t13 11.5l22 -24v0zM496 261q0 37 -1 88.5t-20 87.5q-14 29 -44.5 46.5 t-64.5 17.5q-48 0 -80.5 -25t-52.5 -62.5t-28.5 -82t-8.5 -83.5q0 -33 7.5 -70t24 -68.5t44.5 -52t68 -20.5q17 0 32.5 4.5t30.5 12.5q34 16 52.5 37.5t27.5 48t11 57.5t2 64z" />
<glyph unicode="e" horiz-adv-x="597" d="M179 309q0 -50 11.5 -99t36.5 -88t64.5 -63t98.5 -24q43 0 80 15t74 39l15 -21q-54 -37 -111.5 -61t-123.5 -24q-54 0 -103 18.5t-86 52t-59 79.5t-22 102q0 52 20 105.5t56 97t85.5 70.5t104.5 27q104 0 167.5 -65t82.5 -163zM435 353q-4 26 -13 53t-24 49t-37 37 t-52 15q-37 0 -61 -16t-40 -40.5t-22.5 -56t-6.5 -63.5q128 8 256 22z" />
<glyph unicode="f" horiz-adv-x="414" d="M544 1195q0 -5 -10 -13.5t-22 -15t-25 -12t-19 -5.5q-15 0 -22.5 11t-14.5 25t-16.5 26t-27.5 12q-35 0 -58.5 -27t-37 -65t-20 -77.5t-6.5 -65.5l-6 -254l141 12v-43q-43 0 -71.5 -2t-69.5 -18q-2 -41 -3 -80t-1 -79v-76l4 -204q0 -31 1 -61.5t5 -62.5q1 -9 2 -19t1 -20 q0 -13 2 -17.5t15 -9.5q20 -10 46 -13.5t50 -7.5v-33h-375v33q25 4 50 7t49 10q19 6 24.5 15t5.5 27v25l7 551h-85v33l82 19q11 100 28.5 199.5t60.5 194.5q29 63 89 110t133 47q37 0 64 -28q8 -7 19 -22t11 -26z" />
<glyph unicode="g" horiz-adv-x="616" d="M577 429q-9 13 -24 36t-31 23q-11 0 -23 -10t-20 -17q28 -32 38 -61.5t10 -72.5q0 -98 -60 -153.5t-156 -55.5q-46 0 -75 8.5t-71 28.5q-4 -7 -8.5 -15.5t-4.5 -17.5q0 -17 41.5 -36t97 -40.5t109 -43.5t77.5 -45q15 -14 27 -39t20.5 -54t13 -56.5t4.5 -47.5 q0 -49 -27 -85t-58 -71q-41 -46 -81.5 -79.5t-105.5 -33.5q-42 0 -101.5 14t-112 41.5t-89.5 68.5t-37 95q0 53 34 104t71 86l22 -18q-20 -23 -36.5 -48t-16.5 -56q0 -26 15.5 -47t34.5 -38q53 -48 120.5 -76t139.5 -28q34 0 63.5 9.5t53.5 28t38 46t14 62.5q0 67 -43.5 102 t-102 59t-115 50t-83.5 74q-4 6 -8.5 17t-10 23t-9.5 23t-4 17q0 17 11.5 36t14.5 36q-42 32 -59 66t-17 88q0 101 64 155t162 54q50 0 90 -13t82 -39q7 9 19.5 23t25 26t27.5 21t28 9q31 0 51.5 -27.5t31.5 -51.5zM413 355q0 28 -6 54t-18.5 46t-34 33t-52.5 13 q-39 0 -65 -22t-40 -54.5t-19.5 -70.5t-5.5 -67q0 -54 27 -93.5t86 -39.5q35 0 59 21t40 51.5t22.5 65.5t6.5 63z" />
<glyph unicode="h" horiz-adv-x="793" d="M446 0v33q48 6 71 10.5t31.5 18.5t6.5 43.5t-2 83.5q0 20 -1 50.5t-3.5 64t-8 63t-13.5 47.5q-11 24 -36 41t-51 17q-20 0 -45 -14t-50 -32.5t-48 -39t-38 -33.5v-159v-60.5t7 -59.5q4 -15 19 -22.5t34.5 -11t38.5 -5.5t30 -2v-33h-384v33q55 11 84.5 17t41.5 21.5t13 45 t1 87.5q0 162 1 321t1 322q0 65 1 146.5t-8 146.5q-2 9 -5 14.5t-14 5.5q-15 0 -41.5 -14t-39.5 -21l-13 28l233 123l17 -16q-15 -26 -16 -60t-1 -64v-746q26 24 53.5 46.5t55.5 44.5q32 26 58.5 39t69.5 13q76 0 126 -47.5t50 -124.5q0 -43 -2 -82.5t-2 -82.5v-65.5 t4 -65.5q1 -13 13 -18.5t27 -8.5t30.5 -4t25.5 -1v-33h-322z" />
<glyph unicode="i" horiz-adv-x="392" d="M278 866q0 -32 -22.5 -54t-53.5 -22q-32 0 -54 22t-22 54q0 31 22 53.5t54 22.5q31 0 53.5 -22.5t22.5 -53.5zM46 0v33h21t26.5 1t25.5 5t18 11q5 7 8 28.5t4 45.5t1 46v32v203q0 9 -3 17.5t-14 8.5q-20 0 -41.5 -7.5t-41.5 -12.5l-7 27q59 21 113.5 43t109.5 54l21 -21 q-17 -46 -20.5 -80t-3.5 -82q0 -65 3.5 -129t3.5 -129q0 -9 1 -24.5t8 -25.5q4 -5 15 -8t24 -3h25h18v-33h-315z" />
<glyph unicode="j" horiz-adv-x="358" d="M278 866q0 -32 -22.5 -54t-53.5 -22q-32 0 -54 22t-22 54q0 31 22 53.5t54 22.5q31 0 53.5 -22.5t22.5 -53.5zM263 522q-6 -67 -6 -135v-328q0 -24 -1 -46t-3 -46q-1 -48 -2 -84.5t-6 -69.5t-16 -67.5t-31 -74.5q-15 -30 -33.5 -61.5t-41.5 -56.5t-53.5 -40.5 t-67.5 -15.5q-9 0 -19.5 1.5t-10.5 13.5q0 16 10.5 40t32.5 22l20 -1q4 -2 9 -2q19 0 33.5 10t27.5 21q32 32 39.5 65t7.5 76v129q0 32 -2 65t-2 65l-2 353q0 6 1 16t-1 19.5t-5.5 16.5t-12.5 7q-13 0 -30.5 -10t-29.5 -17l-16 24l179 124l32 -13v0z" />
<glyph unicode="k" horiz-adv-x="723" d="M413 0v33q5 0 15 1t21.5 4t19.5 7.5t8 11.5q0 10 -22 47.5t-48 79.5t-48 75t-24 35q-21 -20 -40 -39.5t-40 -38.5v-111q0 -13 1 -25t1 -24q0 -4 11 -8t25 -6.5t26 -5.5t16 -3v-33h-320v33q5 0 21 3t32.5 5.5t31.5 6.5t18 8q8 9 8 22q7 74 8 148t3 148q2 81 3.5 160.5 t1.5 161.5v440q0 9 -1.5 25t-16.5 16q-9 0 -33 -13t-34 -17l-13 24l202 105l32 -16q-15 -45 -15 -90v-93l-8 -809q11 10 39 39.5t56.5 62.5t51 63.5t22.5 43.5q0 8 -10.5 12.5t-24 6.5t-25.5 2h-18v33h311v-33q-63 -2 -93.5 -3t-49 -11t-37 -32.5t-59.5 -68.5l161 -257 q19 -32 35.5 -50.5t36 -27.5t44.5 -12t62 -3v-33h-344z" />
<glyph unicode="l" horiz-adv-x="403" d="M6 0v33q24 4 48 9.5t48 11.5q29 7 31 26.5t4 45.5q4 52 5.5 102.5t1.5 102.5q0 130 1 258.5t1 257.5q0 37 -1 71.5t-1 71.5t-1 75t-4 75q-2 9 -5 14.5t-14 5.5q-15 0 -41.5 -14t-39.5 -21l-13 28l233 123l17 -16q-15 -26 -16 -60t-1 -64q0 -170 2 -338.5t2 -338.5 q0 -95 -1 -188t10 -188q4 -20 9.5 -25.5t23.5 -9.5q21 -4 42 -7.5t41 -7.5v-33h-382z" />
<glyph unicode="m" horiz-adv-x="1084" d="M747 0v33q13 0 40 1t36 14q6 9 9.5 36t4.5 58.5t2 60t1 41.5q0 26 1 66t-5.5 77t-25 63.5t-57.5 26.5q-24 0 -46.5 -15.5t-38.5 -30.5q-11 -9 -21.5 -20t-19.5 -23q-15 -14 -17.5 -26t-2.5 -33q0 -46 -3 -91.5t-3 -91.5v-61t7.5 -32t27 -14t60.5 -6v-33h-287v33 q11 0 35 2t33 8q6 3 8.5 21.5t4.5 41t2 41.5v25v187q0 18 -2 39.5t-8.5 41t-21 32.5t-40.5 13t-48 -14t-41 -29q-20 -18 -32 -28.5t-19.5 -21.5t-9.5 -26.5t-4 -43.5q-1 -20 -1 -39.5v-40.5v-83v-25t0.5 -32.5t2.5 -32t6 -23.5q7 -13 25.5 -13h31.5v-33h-303v33q20 2 51.5 3 t48.5 16q9 9 14.5 41.5t8.5 70.5t3 73v48q0 41 -3 79.5t-3 79.5q0 7 -3 15.5t-12 8.5q-3 0 -16 -3.5t-28 -9t-29 -10.5t-17 -7l-8 26l131 63l106 8v-106q46 41 88.5 73.5t107.5 32.5q63 0 102 -29t39 -95l41.5 41.5t39.5 35t45 25t57 9.5q164 0 164 -161v-61 q0 -43 -1.5 -82.5t-1.5 -82.5v-59t8 -29.5t27.5 -11.5t60.5 -2v-33h-302z" />
<glyph unicode="n" horiz-adv-x="760" d="M427 0v33q15 0 43 1t37 16q5 9 9 38t6 62t2 63.5v43.5q0 28 -2 64t-13 69.5t-32.5 55.5t-60.5 22q-18 0 -38.5 -8.5t-41 -20.5t-38 -26.5t-30.5 -25.5q-5 -109 -5 -217v-23.5t1 -38t2.5 -37t5.5 -21.5t15 -6.5t24 -4.5t24 -4t17 -2v-33h-309v33q20 2 37.5 3t37.5 3 q19 2 23.5 9.5t6.5 23.5q6 91 6 185q0 37 0.5 87t-4.5 85q-2 6 -4 13.5t-9 7.5q-15 0 -43.5 -12t-43.5 -18l-7 26q49 22 98.5 44t98.5 45l26 -24v-82q47 35 97.5 70.5t111.5 35.5q76 0 118.5 -50t42.5 -122v-49q0 -16 -1.5 -32.5t-1.5 -33.5v-69q0 -20 1 -41t1 -42 q0 -29 5.5 -42t16.5 -18t28.5 -4t43.5 1v-33h-302z" />
<glyph unicode="o" horiz-adv-x="690" d="M636 261q0 -67 -25 -118t-67.5 -87t-98 -54.5t-118.5 -18.5q-55 0 -105 17t-87 48.5t-59 76.5t-22 104v28q0 63 24 115t65.5 88t96 55.5t115.5 19.5q124 0 202.5 -73.5t78.5 -200.5zM511 240q0 39 -8.5 85.5t-28 85.5t-53 64.5t-82.5 25.5q-45 0 -76.5 -18.5t-50 -49 t-26.5 -68.5t-8 -76q0 -39 9 -86.5t29.5 -87t53.5 -67.5t83 -28q45 0 75.5 20.5t48 52t26 71.5t8.5 76z" />
<glyph unicode="p" horiz-adv-x="782" d="M727 259q0 -126 -76.5 -201t-200.5 -75q-52 0 -93 14t-87 38q-2 -42 -3 -85.5t-1 -86.5q0 -72 3 -147t12 -147q4 -28 31 -29.5t49 -3.5q18 -2 35 -3t35 -3v-33h-420v33q7 0 26 2t39 4t37 4.5t20 6.5q8 7 11.5 58t4.5 111t0 108t-1 50q0 32 2 65t2 65v157q0 9 -1 48 t-2 83.5t-2 81.5t-3 40q-3 13 -14 13q-10 0 -22 -5.5t-25 -13t-25 -14.5t-19 -11l-15 24l211 128q5 -4 15.5 -8.5t14.5 -10.5q7 -11 8 -38t1 -40q0 -35 -2 -70t-2 -70v-90t11 -88.5t41 -68.5t89 -27q50 0 83 21.5t54.5 55.5t30.5 76.5t9 85.5q0 29 -6.5 69t-23 75t-42.5 60 t-65 25q-31 0 -60.5 -17.5t-55.5 -32.5l-13 19q37 27 76.5 51t88.5 24q55 0 99.5 -24t76 -63.5t48 -89.5t16.5 -100z" />
<glyph unicode="q" horiz-adv-x="736" d="M296 -503v33h38t47 2t46.5 4.5t34.5 6.5q26 7 28 34t4 47q2 23 3 46t1 45v348q-39 -37 -90 -58.5t-105 -21.5q-57 0 -103 22.5t-78.5 60.5t-50 88t-17.5 103q0 65 26.5 117t71 88t102 54.5t118.5 18.5q44 0 79.5 -9.5t77.5 -24.5l83 34l23 -13q-2 -8 -3 -13.5t-3 -12.5 q-9 -39 -9 -83.5v-85.5q-2 -68 -3 -136.5t-1 -136.5v-280v-43.5t1 -63.5t2 -63.5t4 -41.5q4 -12 7 -13.5t14 -5.5q26 -9 56.5 -10t57.5 -3v-33h-462zM503 205q0 54 -1 108.5t-15 106.5q-13 41 -43 61t-72 20q-43 0 -77 -19.5t-57 -50t-36 -68t-13 -76.5t12 -82.5t35 -80.5 t58 -61t82 -24q37 0 61.5 14t39.5 37t20.5 52.5t5.5 62.5z" />
<glyph unicode="r" horiz-adv-x="530" d="M512 453q0 -16 -23 -35.5t-39 -19.5q-12 0 -19 8t-13.5 18.5t-16 18.5t-22.5 8q-11 0 -24 -8t-24 -21t-21 -26t-16 -20q-28 -39 -30.5 -82.5t-2.5 -89.5q0 -32 1 -68t10 -68q4 -12 17.5 -19.5t30.5 -10.5t33.5 -4t27.5 -1v-33h-355v33q24 2 46 4t46 9q32 10 33 32t3 50 l2 58t1 58q0 32 -1 61.5t-1 60.5q0 17 -1.5 41t-25.5 24q-15 0 -29 -5.5t-27 -11.5l-11 24l205 97l13 -21q-14 -29 -15 -62.5t-1 -64.5q13 16 30.5 40t38 46.5t42.5 37t46 14.5q13 0 29.5 -5.5t30.5 -15.5t23 -23t9 -28z" />
<glyph unicode="s" horiz-adv-x="495" d="M433 148q0 -37 -18.5 -70.5t-44.5 -57.5q-30 -26 -57.5 -31.5t-66.5 -5.5q-57 0 -99 7.5t-95 27.5l-9 182l24 4q11 -32 24 -59.5t29 -55.5q22 -37 44.5 -56.5t66.5 -19.5q32 0 64 18.5t32 55.5q0 43 -31 72.5t-70 56t-70.5 55.5t-31.5 71q0 21 7.5 46t20.5 48t27.5 44 t31.5 32q15 13 46.5 18t51.5 5q30 0 53 -5t51 -14l1 -155l-20 -6q-4 22 -10.5 48t-18.5 49t-31.5 39t-46.5 16q-39 0 -55 -31.5t-16 -64.5q0 -48 31.5 -73t66.5 -51q17 -13 37.5 -27t39 -31.5t30.5 -37t12 -43.5z" />
<glyph unicode="t" horiz-adv-x="395" d="M387 472q-43 3 -85.5 5t-85.5 4q-5 -98 -5 -192v-63.5t5.5 -85t21 -76t47.5 -33.5q20 0 37 10.5t31 19.5l15 -18q-41 -28 -72 -44t-83 -16q-45 0 -66 11.5t-30.5 32.5t-9.5 49.5v64.5q0 11 1 23t1 23q0 44 -1 89.5t-3 89.5v61.5t-3 60.5h-80v24l80 15q0 26 1 52t12 48 q15 28 45.5 51t55.5 40l21 -30q-9 -40 -13 -79t-4 -82h92.5t92.5 -3z" />
<glyph unicode="u" horiz-adv-x="758" d="M727 80q-9 -8 -27.5 -22t-40 -27.5t-41.5 -24t-30 -10.5h-26q-20 0 -31 4t-15.5 12t-5.5 20t-3 31q0 5 -1 11t-1 11q-43 -48 -85.5 -75t-108.5 -27q-43 0 -74.5 5t-53.5 20.5t-33 43.5t-11 72q0 68 6.5 135.5t6.5 136.5q0 20 -5 37t-30 17q-15 0 -29 -5t-29 -12l-11 18 l174 84l59 -11q-11 -93 -19.5 -184.5t-8.5 -185.5q0 -49 19.5 -86t79.5 -37q33 0 62.5 18t51.5 42q39 42 41 83.5t2 97.5q0 39 -2 77t-2 77q0 44 7.5 64.5t24 27.5t43.5 6.5t66 -0.5q-13 -80 -20.5 -157t-7.5 -158v-31t2 -49t8.5 -45.5t20.5 -20.5q15 0 34.5 14t28.5 21 l15 -18v0z" />
<glyph unicode="v" horiz-adv-x="699" d="M699 487q-48 -2 -73 -5t-40.5 -13t-28.5 -33t-33 -66l-150 -309q-10 -20 -17 -38.5t-15 -39.5l-37 21q-37 111 -80.5 221t-96.5 215q-11 22 -24 32.5t-28 13t-33.5 2t-42.5 -0.5v33h313v-33q-6 0 -17 0.5t-24 0t-22.5 -3.5t-9.5 -9q0 -9 11.5 -33t14.5 -31 q32 -67 59 -133.5t51 -136.5l98 222q7 16 19 45t12 47q0 13 -9 20.5t-23 9.5t-28 2h-23v33h277v-33v0z" />
<glyph unicode="w" horiz-adv-x="1026" d="M1027 487q-21 -2 -50.5 -4t-47.5 -13q-26 -17 -46.5 -57.5t-31.5 -68.5l-144 -361h-43l-157 330l-128 -330h-37l-140 326q-17 39 -37 79q-15 32 -22.5 48.5t-17.5 25t-28.5 11t-53.5 8.5q-12 2 -22 3t-21 3v33h339v-33q-21 -2 -46 -7t-25 -30q0 -10 3 -17t7 -17l116 -296 l135 361h28q9 -30 21 -55.5t25 -53.5l115 -252l96 248q7 17 15.5 41t8.5 42q0 13 -12 20.5t-27.5 10.5t-31.5 4t-25 1v33h285v-33v0z" />
<glyph unicode="x" horiz-adv-x="666" d="M342 0v33q4 0 14 -1t20.5 0t18.5 3t8 8q0 5 -16.5 31t-37 53.5t-37 51t-18.5 25.5q-2 -2 -19.5 -23.5t-38.5 -49t-39 -52.5t-18 -33q0 -7 8.5 -10t18.5 -4t20.5 0t15.5 1v-33h-225v33q31 0 54 8.5t41.5 22.5t34.5 33.5t34 41.5l84 105l-111 144q-28 38 -58.5 67.5 t-78.5 31.5v33h286v-33q-5 0 -14.5 0.5t-19.5 0t-17.5 -3.5t-7.5 -10q0 -6 2 -8q2 -11 16 -31.5t28.5 -40.5t29.5 -37.5t20 -25.5q2 2 19.5 23.5t37 47t36.5 49t17 26.5q0 10 -18.5 10h-26.5v33h231v-33h-48.5t-39 -5t-33 -17t-34.5 -34l-113 -139l111 -155q26 -37 62 -70.5 t84 -33.5h30v-33h-313z" />
<glyph unicode="y" horiz-adv-x="799" d="M799 487q-52 0 -77.5 -6.5t-41.5 -21.5t-27 -42t-33 -71l-289 -594q-5 -11 -16.5 -35t-23.5 -52t-20 -53t-8 -36q0 -14 19.5 -22.5t44.5 -11.5t49 -3h33v-31h-396v31q52 6 109 17q35 7 51 23t32 47q26 48 53 98t53 98q7 15 21 38t27 48t22 50t9 44q0 16 -7 32t-17 31 l-164 307q-23 41 -42 64t-42.5 34t-55 14t-75.5 3v33h405v-33q-7 0 -23 0.5t-32.5 -1t-28.5 -7t-12 -18.5q0 -10 4.5 -22.5t11 -27.5t14 -28t11.5 -20l131 -239l102 244q7 19 17.5 44.5t10.5 46.5q0 13 -12 19.5t-28 8t-31.5 1t-25.5 -0.5v33h298v-33v0z" />
<glyph unicode="z" horiz-adv-x="538" d="M538 496q-48 -58 -101.5 -110.5t-105.5 -107.5q-42 -47 -84 -92t-82 -94l168 6q50 2 81.5 17t68.5 48h20q-26 -102 -98 -187l-24 4q2 11 -3.5 14.5t-14.5 5.5q-28 4 -59.5 3t-59.5 -1h-122t-122 -2q50 52 100 103t100 101l64.5 64.5t64.5 66.5q21 20 41 41.5t39 43.5 h-124h-42.5t-42.5 -2q-28 -2 -41 -6.5t-29 -24.5q-13 -15 -24.5 -31t-22.5 -30l-16 7q13 48 25 93.5t23 93.5h410l13 -24v0z" />
<glyph unicode="{" d="M757 -379q-26 2 -64 2t-78 2.5t-77 8t-59 18.5q-33 19 -53.5 49.5t-31.5 66.5t-14 74t-3 71q0 67 1 132.5t3 132.5q0 31 2 59.5t2 60.5q0 50 -14 79.5t-40 47t-61 24t-78 10.5v26q48 2 84.5 10t59.5 26.5t35 51t12 84.5q0 53 -2 105t-2 106q0 38 -1 81t4 85.5t16 82 t33 73.5q19 25 42 40t49.5 22.5t55.5 9.5t58 2q32 1 60.5 1h60.5v-40q-60 -2 -107 -10.5t-80.5 -31.5t-51.5 -64.5t-18 -110.5v-100v-119t-2 -119q-2 -71 -31 -123.5t-101 -71.5v-7q41 -9 68 -31.5t40.5 -53t19.5 -67.5t6 -74v-235q0 -33 -2 -70t0.5 -74t12 -72t31.5 -63 q19 -24 43.5 -37t54.5 -19.5t59.5 -7.5t57.5 -1v-42v0z" />
<glyph unicode="|" d="M426 -462v1850h74v-1850h-74z" />
<glyph unicode="}" d="M733 459q-43 -4 -78 -10.5t-60 -23t-39 -48t-14 -81.5q0 -96 3 -191.5t3 -191.5q0 -48 -6.5 -95t-25 -87t-53 -67t-91.5 -34q-50 -7 -102 -6.5t-102 -2.5v42q100 0 153 20.5t76 63t26 107.5t3 153v132q0 44 -1 97t10 100t38.5 83t85.5 49v7q-58 15 -85.5 47.5t-37.5 76 t-9.5 92.5t0.5 95q0 32 -0.5 61.5t-0.5 60.5v100q0 43 -13 90t-47 77q-39 35 -93.5 41.5t-104.5 8.5v40h47q18 0 36.5 -0.5t37.5 -0.5q29 0 58 -2t55.5 -9.5t49.5 -22.5t42 -40q22 -32 33 -72.5t16 -84t4 -87t-1 -80.5q0 -52 -2 -104t-2 -103q0 -52 11 -84.5t35 -52 t60 -27.5t85 -10v-26v0z" />
<glyph unicode="~" horiz-adv-x="1233" d="M1058 1293q-20 -37 -43 -70t-53 -59t-67 -41t-81 -15q-54 0 -105.5 21.5t-102.5 48t-100 48t-95 21.5q-35 0 -63 -13t-50 -33.5t-40 -46.5t-32 -53l-50 31q18 37 41 71.5t52 60t64 41.5t81 16q52 0 104 -22.5t102 -48t100 -48t100 -22.5q70 0 112.5 43.5t75.5 99.5 l50 -30v0z" />
<glyph unicode="&#xa1;" horiz-adv-x="530" d="M324 450q0 -37 -25 -62t-62 -25t-61 25.5t-24 61.5q0 35 25 60t60 25q37 0 62 -24t25 -61zM350 -675q-21 -13 -47.5 -26t-56.5 -23t-58.5 -16.5t-52.5 -6.5q-9 0 -16.5 0.5t-16.5 0.5q-4 30 -6 59.5t-2 59.5q0 91 15 181.5t30 179.5l55 320q8 42 13.5 84.5t5.5 85.5 q0 42 -8 78l30 5q20 -63 23 -129.5t3 -131.5q0 -96 -4 -193t-9 -193q-4 -58 -7.5 -114.5t-3.5 -113.5v-29.5t3.5 -32.5t13 -26t27.5 -10q15 0 28 4.5t28 8.5l13 -22v0z" />
<glyph unicode="&#xa2;" horiz-adv-x="612" d="M568 54q-50 -30 -92.5 -43t-101.5 -17v-129h-56v133q-50 9 -98 29.5t-85 52t-59 76t-22 101.5q0 59 20 107.5t56 83.5t84.5 57t103.5 30v142h56v-142q22 -2 54.5 -8.5t62 -18.5t50.5 -33.5t21 -50.5q0 -39 -38 -39q-21 0 -37.5 14.5t-34 35t-37 39t-41.5 27.5v-464 q9 0 15.5 -1t15.5 -1q43 0 81 14t75 31l7 -26v0zM318 507q-81 -13 -111.5 -60t-30.5 -125q0 -37 8 -77.5t26 -78.5t44.5 -68.5t63.5 -45.5v455z" />
<glyph unicode="&#xa3;" horiz-adv-x="1043" d="M955 -65h-56q0 32 -2 48.5t-40 16.5h-835v33q48 10 97 17t97 22q13 4 15 6.5t4 15.5q4 30 5.5 58.5t5.5 58.5q7 118 11 239h-203v48h203q4 61 8.5 131t13 140.5t23 138t37.5 126.5q40 104 129 155t196 51q45 0 77 -7.5t75 -22.5q13 -4 27.5 -9.5t29.5 -5.5q26 0 43 22h22 l28 -285h-32q-3 23 -9 48t-13 49t-18.5 46t-27.5 39q-32 31 -79 46t-90 15q-88 0 -149 -50t-80 -139q-15 -68 -18.5 -139.5t-7.5 -141.5q-4 -52 -4.5 -104t-4.5 -103h292v-48h-292q0 -60 -2 -118t-2 -117q0 -37 2 -73.5t9 -73.5q39 -3 78 -5t78 -2q90 0 149.5 3.5t102 27 t74 72.5t64.5 138l26 -4z" />
<glyph unicode="&#xa4;" horiz-adv-x="1233" d="M1054 168l-168 169q-59 -50 -124.5 -76t-143.5 -26t-142.5 25t-125.5 73l-167 -167l-44 47l166 164q-50 60 -76.5 126.5t-26.5 144.5q0 77 25 141t73 123l-167 167l45 44l166 -165q61 50 126.5 77t145.5 27t145.5 -27t126.5 -77l166 165l45 -44l-167 -167q48 -59 74 -124 t26 -142q0 -78 -26.5 -142t-74.5 -123l168 -168zM962 648q0 72 -27 134.5t-74 110t-110 74t-135 26.5t-134 -27.5t-109 -74.5t-74 -110t-27 -133q0 -73 27 -135.5t74 -110t109 -74t134 -26.5t135 26.5t110 74t74 110t27 135.5z" />
<glyph unicode="&#xa5;" horiz-adv-x="1307" d="M1308 1190q-15 0 -38 -1t-48 -4t-47 -6.5t-35 -9.5q-21 -9 -52.5 -50.5t-67.5 -101t-75 -128t-72 -132t-57 -115.5t-33 -76q-10 -22 -11.5 -43.5t-3.5 -43.5h318l-57 -78h-265v-77q0 -54 1 -119.5t18 -115.5q9 -30 36.5 -33.5t53.5 -5.5l100 -7v-43h-616v43q7 0 36 0.5 t63 3.5t63 7.5t36 12.5q11 11 17.5 47t9.5 76.5t3.5 78.5t0.5 55v77h-303l54 78h246q0 39 -21.5 81.5t-41.5 74.5l-183 309q-11 20 -30.5 50.5t-42 63t-45.5 59t-41 39.5q-37 22 -87 27t-91 7v44h620v-44q-11 0 -40 -2t-57.5 -7.5t-50.5 -16t-22 -28.5q0 -20 19 -62t43 -87 t47.5 -85t32.5 -53l131 -227l150 273q11 21 28.5 51.5t34.5 64.5t29 67.5t12 59.5q0 18 -10.5 28.5t-24 15t-31 5.5t-30.5 1l-67 2v44h494v-44v0z" />
<glyph unicode="&#xa6;" d="M420 620v614h85v-614h-85zM420 -309v592h85v-592h-85z" />
<glyph unicode="&#xa7;" horiz-adv-x="828" d="M718 -26q0 -57 -27 -108t-66 -90q-53 -54 -114 -75t-137 -21q-67 0 -112.5 17.5t-96.5 58.5q-15 9 -34.5 29.5t-19.5 38.5q0 11 10 23t25 20.5t30 14t26 5.5q20 0 34 -26t33.5 -56.5t50 -55.5t83.5 -25q37 0 73 15t65 41t46.5 60t17.5 73q0 69 -44 115q-15 16 -38 33 t-49 33.5t-51 31.5t-44 26q-31 20 -61.5 39.5t-62.5 39.5q-27 19 -54 39t-46.5 43.5t-31.5 52t-12 65.5q0 44 18.5 86t47 79t64 68.5t66.5 58.5q-31 23 -61 48t-53 53.5t-37 62.5t-14 77q0 65 27 120.5t71.5 95t102 62.5t119.5 23q54 0 102 -17.5t87 -54.5q15 -15 29 -34 t14 -42q0 -11 -9.5 -22t-23 -20t-28.5 -15t-24 -6q-17 0 -32 25t-35 55t-50 55t-78 25q-37 0 -66.5 -18t-49.5 -45.5t-30.5 -62t-10.5 -67.5q0 -44 24 -81q13 -21 39 -44t55.5 -44t58 -40.5t49.5 -32.5l102 -67q24 -16 47 -34t42.5 -39t31.5 -47t12 -57q0 -41 -22.5 -82.5 t-54.5 -80.5t-69 -73t-67 -60q37 -23 75 -48.5t68.5 -58t50 -71.5t19.5 -87zM596 464q0 52 -30 79t-66 53l-152 101q-21 -20 -45 -43t-44 -50t-33 -55.5t-13 -60.5q0 -24 10 -43t26.5 -34t36 -28t36.5 -24l142 -94q19 18 41 41t42.5 49t34.5 54t14 55z" />
<glyph unicode="&#xa8;" d="M646 720q0 -30 -20.5 -50.5t-50.5 -20.5q-27 0 -48.5 21.5t-21.5 49.5q0 29 20.5 49.5t49.5 20.5q30 0 50.5 -20.5t20.5 -49.5zM420 720q0 -30 -20.5 -50.5t-49.5 -20.5q-30 0 -50.5 20.5t-20.5 50.5q0 29 20.5 49.5t50.5 20.5q29 0 49.5 -20.5t20.5 -49.5z" />
<glyph unicode="&#xa9;" horiz-adv-x="1494" d="M1397 616q0 -133 -51 -251.5t-140 -207.5t-207 -139.5t-252 -50.5q-133 0 -251.5 50.5t-207 139.5t-139.5 207.5t-51 251.5q0 135 51 253.5t139 206.5t206 138.5t253 50.5t253.5 -50.5t206.5 -138.5t139 -206.5t51 -253.5zM1341 616q0 124 -46 232t-126.5 189.5t-189 129 t-232.5 47.5t-232 -47.5t-188.5 -129t-126.5 -189.5t-46 -232q0 -122 47 -231t127.5 -189.5t188.5 -128t230 -47.5q124 0 232.5 47.5t189 128t126.5 188.5t46 232zM1084 385q-61 -83 -133 -120t-178 -37q-83 0 -155 28.5t-124 80t-81.5 123t-29.5 156.5q0 89 28.5 161 t81.5 123t125 78.5t161 27.5q33 0 66.5 -3.5t66.5 -9.5q11 -1 21.5 -3t21.5 -2q24 0 33 17h26q13 -65 25 -131t21 -132h-28q-16 37 -36.5 85t-50.5 78q-29 31 -76.5 43t-87.5 12q-67 0 -116 -23t-81.5 -63t-47 -93.5t-14.5 -116.5q0 -68 20 -134t60 -117.5t97.5 -84 t132.5 -32.5q69 0 120 29.5t91 83.5l41 -24v0z" />
<glyph unicode="&#xaa;" horiz-adv-x="512" d="M451 932q-25 -11 -54 -20t-58 -9q-50 0 -61 46q-32 -20 -60.5 -33t-65.5 -13q-34 0 -62.5 15.5t-28.5 54.5q0 32 25 54t59 37t71 23t60 14v42q0 26 -5 46.5t-36 20.5q-37 0 -49 -15t-18.5 -32.5t-15 -32t-35.5 -14.5q-15 0 -27 10t-12 25q0 18 19.5 34.5t46 29.5 t54.5 19.5t44 6.5q32 0 71 -14.5t50 -46.5q5 -14 5 -30v-31q2 -39 2 -78.5t4 -78.5q2 -9 2.5 -13.5t11.5 -4.5q6 0 26.5 6t27.5 10l9 -28v0zM61 777v44h377v-44h-377zM276 1069q-17 -3 -37.5 -9t-38 -16t-30.5 -24.5t-13 -35.5q0 -37 34 -37q22 0 45 13t40 28v81z" />
<glyph unicode="&#xab;" horiz-adv-x="606" d="M507 20q-35 19 -72 43t-66.5 53.5t-49 65.5t-19.5 83q0 40 21 78t51.5 70.5t66.5 59.5t68 47l18 -26q-51 -48 -85.5 -105.5t-34.5 -129.5t33.5 -118.5t86.5 -88.5zM296 7q-39 19 -78.5 41t-73 51t-55 66t-21.5 85q0 50 21.5 91.5t55 77.5t74 64.5t77.5 52.5l18 -27 q-59 -52 -98.5 -111t-39.5 -141q0 -78 38 -128.5t100 -91.5z" />
<glyph unicode="&#xac;" d="M790 0v426h-729v68h803v-494h-74z" />
<glyph unicode="&#xad;" d="M52 586l-6 84l833 -6v-70z" />
<glyph unicode="&#xae;" horiz-adv-x="867" d="M807 1023q0 -78 -30 -145.5t-80.5 -117.5t-118 -78.5t-143.5 -28.5t-144.5 28.5t-119.5 78.5t-80.5 117.5t-29.5 145.5t29.5 145.5t80.5 117.5t118.5 78.5t145.5 28.5q77 0 145 -28.5t117.5 -78.5t79.5 -117.5t30 -145.5zM753 1023q0 67 -25 125t-68.5 102.5t-101.5 69.5 t-125 25t-124 -26t-100 -70.5t-67.5 -102.5t-24.5 -123q0 -67 24.5 -125t68 -101.5t101 -68.5t124.5 -25q66 0 123.5 25t101 68.5t68.5 101.5t25 125zM664 853q-18 -17 -33 -27t-41 -10q-65 0 -96.5 39t-51.5 92q-5 15 -10.5 30.5t-15.5 30.5q-13 21 -26.5 25.5t-37.5 4.5 v-120v-13.5t0.5 -18.5t1.5 -17.5t5 -10.5q4 -1 16 -2t15 -1v-28h-164v28h20t20 3q2 2 4 12.5t4 22.5t2 22v14v201q0 10 -2 37.5t-8 34.5l-7 2h-12.5t-11.5 2v28h148q24 0 52.5 -3.5t52 -15t39 -30.5t15.5 -51q0 -42 -21 -62.5t-60 -29.5q31 -19 47.5 -49.5t30.5 -59t30 -50 t47 -21.5q13 0 30 13l18 -22v0zM459 1134q0 35 -29.5 52.5t-61.5 17.5q-9 0 -15 -2q0 -9 -0.5 -18t-0.5 -18v-100h3q17 0 35.5 2.5t33 10t25 21.5t10.5 34z" />
<glyph unicode="&#xaf;" d="M279 679v81h367v-81h-367z" />
<glyph unicode="&#xb0;" d="M712 1006q0 -51 -20 -95.5t-54.5 -77t-80 -51t-95.5 -18.5q-49 0 -94.5 18.5t-80 51t-54.5 77t-20 95.5q0 52 20 96.5t54.5 77t80 51t94.5 18.5q50 0 95.5 -18.5t80 -52t54.5 -78t20 -94.5zM655 1006q0 39 -15 74.5t-41.5 60.5t-62 39.5t-74.5 14.5q-38 0 -73.5 -14.5 t-62 -39.5t-41.5 -60.5t-15 -74.5q0 -40 15 -74.5t41.5 -59.5t62 -39.5t73.5 -14.5q39 0 74.5 14.5t61 39.5t41.5 60.5t16 73.5z" />
<glyph unicode="&#xb1;" d="M500 627v-335h-74v335h-365v70h365v335h74v-335h364v-70h-364zM61 141v68h803v-68h-803z" />
<glyph unicode="&#xb2;" horiz-adv-x="555" d="M512 821q-22 -31 -37.5 -52.5t-26.5 -43.5t-20.5 -47t-22.5 -60l-35 -6q-4 6 -8.5 12.5t-8.5 11.5q-9 2 -18 3t-19 1h-260l-13 57q53 26 110.5 67t104.5 92.5t76.5 112.5t29.5 126q0 43 -23 81t-71 38q-35 0 -58 -22.5t-23 -57.5q0 -18 4.5 -35t4.5 -35q0 -22 -14 -40 t-38 -18q-28 0 -36 25t-8 46q0 35 17.5 65.5t44.5 53.5t60 37t66 14q37 0 68.5 -14t55.5 -39t37 -57.5t13 -67.5q0 -50 -32 -99t-77.5 -94t-94.5 -84t-84 -65h211q26 28 53.5 54.5t57.5 52.5l14 -13v0z" />
<glyph unicode="&#xb3;" horiz-adv-x="555" d="M450 821q0 -42 -18 -78t-47.5 -61t-68 -39t-79.5 -14q-22 0 -49 6.5t-52 18.5t-41.5 31.5t-16.5 47.5q0 14 6.5 31t26.5 17q22 0 35 -18.5t25 -41t30.5 -41t55.5 -18.5q28 0 46.5 13t29.5 34.5t15.5 46.5t4.5 47q0 26 -8 52.5t-24 48t-39 34.5t-53 13q-24 0 -40.5 -7.5 t-36.5 -18.5l-21 22l200 215h-83q-30 0 -47.5 -4.5t-30.5 -14t-23 -27t-23 -41.5l-22 9l59 150h285l-224 -248q9 2 28 2q39 0 75 -10t63.5 -30.5t44.5 -52t17 -74.5z" />
<glyph unicode="&#xb4;" d="M614 857q-59 -71 -133 -132t-150 -113l-20 19q63 52 116.5 113t86.5 137l100 -24v0z" />
<glyph unicode="&#xb5;" d="M738 0v189q-18 -41 -36.5 -72.5t-50.5 -62.5q-42 -41 -95 -60.5t-112 -19.5q-92 0 -153.5 36t-109.5 114v-427h-74v1187h74v-518q0 -53 5 -104t30 -99q36 -63 98.5 -95.5t133.5 -32.5q74 0 128.5 30.5t89.5 79.5t52.5 113t17.5 130v496h74v-884h-72z" />
<glyph unicode="&#xb6;" horiz-adv-x="982" d="M758 1173v-1362h-66v1362h-217v-1362h-68v764h-30q-72 0 -135 23.5t-109 65t-73 101.5t-27 136q0 68 26 131t76 111q59 54 138 72.5t156 18.5h428v-61h-99z" />
<glyph unicode="&#xb7;" horiz-adv-x="225" d="M226 616q0 -46 -33.5 -78.5t-79.5 -32.5t-79.5 31.5t-33.5 79.5t32.5 80.5t80.5 32.5q46 0 79.5 -33.5t33.5 -79.5z" />
<glyph unicode="&#xb8;" d="M553 -111q0 -24 -11 -48t-26.5 -48t-33.5 -46.5t-31 -40.5l-16 -24l-19 9q10 13 22 31.5t22 39t16.5 40.5t6.5 37q0 20 -12 41.5t-34 21.5q-15 0 -26 -8.5t-21 -19.5l-18 9q22 26 49 51t64 25q31 0 49.5 -19.5t18.5 -50.5z" />
<glyph unicode="&#xb9;" horiz-adv-x="555" d="M111 642v37q9 0 28.5 1t40 2.5t38 4.5t26.5 7q6 2 8.5 20.5t3.5 40.5t1 41.5v24.5v130t-5 129q0 2 -1 13t-2 23t-5 21.5t-9 9.5q-4 0 -20.5 -7.5t-38 -16.5t-41.5 -18.5t-30 -12.5l-9 35q56 26 105 53.5t99 64.5h26l18 -17q-2 -31 -3 -63.5t-1 -63.5v-83v-63.5t1 -99 t3 -97t6 -57.5q2 -7 17.5 -12t34 -6.5t36 -2.5t23.5 -1v-37h-350z" />
<glyph unicode="&#xba;" horiz-adv-x="434" d="M409 1073q0 -43 -17.5 -74t-45.5 -52.5t-65 -32.5t-76 -11q-77 0 -129 44.5t-52 123.5q0 41 17.5 72.5t45.5 53.5t64 33t73 11q78 0 131.5 -43.5t53.5 -124.5zM22 777v44h378v-44h-378zM313 1060q0 24 -5 50t-16 48t-30.5 36t-48.5 14q-52 0 -72.5 -37t-20.5 -81 q0 -23 5.5 -49.5t17.5 -49.5t32.5 -38t48.5 -15q24 0 41.5 11t27.5 28.5t15 40t5 42.5z" />
<glyph unicode="&#xbb;" horiz-adv-x="606" d="M536 294q0 -50 -21 -91.5t-54.5 -77.5t-74 -65t-77.5 -53l-17 28q58 50 98.5 110t40.5 142q0 77 -38 128t-101 92l17 29q39 -18 79.5 -39.5t73 -50t53.5 -65.5t21 -87zM307 279q0 -42 -21 -79t-52.5 -69.5t-68.5 -59.5t-67 -47l-17 26q49 48 85 105.5t36 129.5 q0 74 -33.5 120t-87.5 89l17 30q35 -19 73 -42t67.5 -52.5t49 -66.5t19.5 -84z" />
<glyph unicode="&#xbc;" horiz-adv-x="1245" d="M986 1221q-15 -43 -36 -82.5t-40 -80.5q-59 -127 -112.5 -256t-107.5 -260q-54 -137 -106.5 -274.5t-95.5 -280.5l-81 26q128 357 266 710q54 134 110.5 265t122.5 259l80 -26v0zM857 207h170v122l85 82v-431l-85 -84v241h-257l-10 24l413 466l37 -31zM111 642v37 q9 0 28.5 1t40 2.5t38 4.5t26.5 7q6 2 8.5 20.5t3.5 40.5t1 41.5v24.5v130t-5 129q0 2 -1 13t-2 23t-5 21.5t-9 9.5q-4 0 -20.5 -7.5t-38 -16.5t-41.5 -18.5t-30 -12.5l-9 35q56 26 105 53.5t99 64.5h26l18 -17q-2 -31 -3 -63.5t-1 -63.5v-83v-63.5t1 -99t3 -97t6 -57.5 q2 -7 17.5 -12t34 -6.5t36 -2.5t23.5 -1v-37h-350z" />
<glyph unicode="&#xbd;" horiz-adv-x="1245" d="M1202 181q-22 -31 -37.5 -52.5t-26.5 -43.5t-20.5 -47t-22.5 -60l-35 -6q-4 6 -8.5 12.5t-8.5 11.5q-9 2 -18 3t-19 1h-260l-13 57q55 26 111.5 67t103.5 92.5t76.5 111.5t29.5 127q0 43 -23 80t-71 37q-33 0 -57 -21.5t-24 -56.5q0 -19 4.5 -36.5t4.5 -35.5 q0 -22 -14 -39t-38 -17q-26 0 -35 24t-9 45q0 35 16.5 66.5t44.5 54.5t61 36t66 13q38 0 69 -14t55 -39t37 -57.5t13 -67.5t-12 -64.5t-31 -54.5t-43.5 -48t-48.5 -45q-37 -34 -75.5 -66t-79.5 -62h213q26 28 53.5 54.5t55.5 52.5l16 -13v0zM912 1221q-15 -43 -36 -82.5 t-40 -80.5q-59 -127 -112.5 -256t-107.5 -260q-54 -137 -106.5 -274.5t-95.5 -280.5l-81 26q128 357 266 710q54 134 110.5 265t122.5 259l80 -26v0zM111 642v37q9 0 28.5 1t40 2.5t38 4.5t26.5 7q6 2 8.5 20.5t3.5 40.5t1 41.5v24.5v130t-5 129q0 2 -1 13t-2 23t-5 21.5 t-9 9.5q-4 0 -20.5 -7.5t-38 -16.5t-41.5 -18.5t-30 -12.5l-9 35q56 26 105 53.5t99 64.5h26l18 -17q-2 -31 -3 -63.5t-1 -63.5v-83v-63.5t1 -99t3 -97t6 -57.5q2 -7 17.5 -12t34 -6.5t36 -2.5t23.5 -1v-37h-350z" />
<glyph unicode="&#xbe;" horiz-adv-x="1245" d="M986 1221q-15 -43 -36 -82.5t-40 -80.5q-59 -127 -112.5 -256t-107.5 -260q-54 -137 -106.5 -274.5t-95.5 -280.5l-79 26q65 179 130.5 356t135.5 354q54 134 110.5 265t120.5 259l80 -26v0zM857 207h170v122l85 82v-431l-85 -84v241h-257l-10 24l413 466l37 -31z M450 821q0 -42 -18 -78t-47.5 -61t-68 -39t-79.5 -14q-22 0 -49 6.5t-52 18.5t-41.5 31.5t-16.5 47.5q0 14 6.5 31t26.5 17q22 0 35 -18.5t25 -41t30.5 -41t55.5 -18.5q28 0 46.5 13t29.5 34.5t15.5 46.5t4.5 47q0 26 -8 52.5t-24 48t-39 34.5t-53 13q-24 0 -40.5 -7.5 t-36.5 -18.5l-21 22l200 215h-83q-30 0 -47.5 -4.5t-30.5 -14t-23 -27t-23 -41.5l-22 9l59 150h285l-224 -248q9 2 28 2q39 0 75 -10t63.5 -30.5t44.5 -52t17 -74.5z" />
<glyph unicode="&#xbf;" horiz-adv-x="736" d="M557 450q0 -37 -25 -62t-62 -25t-62 25t-25 62t25 61t62 24t62 -24t25 -61zM660 -524q0 -50 -20 -91.5t-54.5 -71t-79 -45t-92.5 -15.5q-59 0 -110.5 23t-90.5 62t-62 91.5t-23 111.5q0 50 15.5 93.5t40.5 84.5t55.5 78t60.5 73q37 49 75.5 98.5t64.5 105.5 q11 24 23 57.5t12 59.5q0 24 -9 48t-20 44l20 22q26 -35 50 -79.5t24 -88.5q0 -30 -12 -68.5t-28.5 -79.5t-35 -78t-33.5 -61q-24 -41 -51.5 -85t-52 -91.5t-40 -96.5t-15.5 -99q0 -37 8.5 -71t27 -60t47 -41.5t69.5 -15.5q48 0 85 25t37 78q0 28 -12 55t-12 52 q0 13 12 22.5t28.5 15t33 8.5t26.5 3q26 0 32 -26t6 -47z" />
<glyph unicode="&#xc0;" horiz-adv-x="1307" d="M744 1336q-84 39 -168 85t-152 107l94 41q48 -71 109 -120t133 -91zM710 0v43l95 5q16 0 34 2t32.5 8.5t24.5 18.5t10 32v11q0 8 -7 33.5t-11 33.5l-78 237q-48 2 -97 3.5t-97 1.5t-97 -1.5t-97 -3.5l-74 -217q-9 -24 -15 -50.5t-6 -52.5q0 -10 2 -18t8 -16 q9 -11 35 -16.5t54.5 -8t56.5 -2.5h41v-43h-524v43q54 1 94.5 4t71 16t53.5 42.5t46 85.5q20 53 40.5 107t38.5 107l235 698l-39 116l37 33q8 -1 13.5 -2t12.5 -1q26 0 54.5 9t52.5 18l333 -998q8 -21 18 -49.5t24 -57.5t29.5 -54t32.5 -37q30 -21 78 -25.5t83 -11.5v-43 h-598zM614 1005l-168 -513q37 -2 72 -3t70 -1h58q35 0 70 1t70 3z" />
<glyph unicode="&#xc1;" horiz-adv-x="1307" d="M823 1528q-70 -61 -153.5 -107t-166.5 -85l-16 22q72 41 134 90.5t108 120.5l94 -41v0zM710 0v43l95 5q16 0 34 2t32.5 8.5t24.5 18.5t10 32v11q0 8 -7 33.5t-11 33.5l-78 237q-48 2 -97 3.5t-97 1.5t-97 -1.5t-97 -3.5l-74 -217q-9 -24 -15 -50.5t-6 -52.5q0 -10 2 -18 t8 -16q9 -11 35 -16.5t54.5 -8t56.5 -2.5h41v-43h-524v43q54 1 94.5 4t71 16t53.5 42.5t46 85.5q20 53 40.5 107t38.5 107l235 698l-39 116l37 33q8 -1 13.5 -2t12.5 -1q26 0 54.5 9t52.5 18l333 -998q8 -21 18 -49.5t24 -57.5t29.5 -54t32.5 -37q30 -21 78 -25.5t83 -11.5 v-43h-598zM614 1005l-168 -513q37 -2 72 -3t70 -1h58q35 0 70 1t70 3z" />
<glyph unicode="&#xc2;" horiz-adv-x="1307" d="M814 1336q-17 9 -42.5 26.5t-51.5 38t-48.5 41.5t-31.5 38q-37 -39 -80.5 -75t-85.5 -69l-23 14q19 17 47.5 44t56.5 57.5t51 61t29 50.5h70v-13q0 -26 16.5 -52.5t40.5 -52.5t50 -48t45 -39zM710 0v43l95 5q16 0 34 2t32.5 8.5t24.5 18.5t10 32v11q0 8 -7 33.5t-11 33.5 l-78 237q-48 2 -97 3.5t-97 1.5t-97 -1.5t-97 -3.5l-74 -217q-9 -24 -15 -50.5t-6 -52.5q0 -10 2 -18t8 -16q9 -11 35 -16.5t54.5 -8t56.5 -2.5h41v-43h-524v43q54 1 94.5 4t71 16t53.5 42.5t46 85.5q20 53 40.5 107t38.5 107l235 698l-39 116l37 33q8 -1 13.5 -2t12.5 -1 q26 0 54.5 9t52.5 18l333 -998q8 -21 18 -49.5t24 -57.5t29.5 -54t32.5 -37q30 -21 78 -25.5t83 -11.5v-43h-598zM614 1005l-168 -513q37 -2 72 -3t70 -1h58q35 0 70 1t70 3z" />
<glyph unicode="&#xc3;" horiz-adv-x="1307" d="M862 1486q-20 -36 -50.5 -70t-75.5 -34q-52 0 -105.5 17.5t-95.5 17.5q-26 0 -39 -12t-24 -32l-24 15q24 40 53.5 71.5t81.5 31.5q42 0 92 -18.5t95 -18.5q26 0 40.5 13t27.5 33l24 -14v0zM710 0v43l95 5q16 0 34 2t32.5 8.5t24.5 18.5t10 32v11q0 8 -7 33.5t-11 33.5 l-78 237q-48 2 -97 3.5t-97 1.5t-97 -1.5t-97 -3.5l-74 -217q-9 -24 -15 -50.5t-6 -52.5q0 -10 2 -18t8 -16q9 -11 35 -16.5t54.5 -8t56.5 -2.5h41v-43h-524v43q54 1 94.5 4t71 16t53.5 42.5t46 85.5q20 53 40.5 107t38.5 107l235 698l-39 116l37 33q8 -1 13.5 -2t12.5 -1 q26 0 54.5 9t52.5 18l333 -998q8 -21 18 -49.5t24 -57.5t29.5 -54t32.5 -37q30 -21 78 -25.5t83 -11.5v-43h-598zM614 1005l-168 -513q37 -2 72 -3t70 -1h58q35 0 70 1t70 3z" />
<glyph unicode="&#xc4;" horiz-adv-x="1307" d="M849 1434q0 -30 -20.5 -50.5t-49.5 -20.5q-30 0 -50 20.5t-20 50.5q0 29 20 49.5t50 20.5q29 0 49.5 -20.5t20.5 -49.5zM579 1434q0 -30 -20.5 -50.5t-49.5 -20.5q-30 0 -50.5 20.5t-20.5 50.5q0 29 20.5 49.5t50.5 20.5q29 0 49.5 -20.5t20.5 -49.5zM710 0v43l95 5 q16 0 34 2t32.5 8.5t24.5 18.5t10 32v11q0 8 -7 33.5t-11 33.5l-78 237q-48 2 -97 3.5t-97 1.5t-97 -1.5t-97 -3.5l-74 -217q-9 -24 -15 -50.5t-6 -52.5q0 -10 2 -18t8 -16q9 -11 35 -16.5t54.5 -8t56.5 -2.5h41v-43h-524v43q54 1 94.5 4t71 16t53.5 42.5t46 85.5 q20 53 40.5 107t38.5 107l235 698l-39 116l37 33q8 -1 13.5 -2t12.5 -1q26 0 54.5 9t52.5 18l333 -998q8 -21 18 -49.5t24 -57.5t29.5 -54t32.5 -37q30 -21 78 -25.5t83 -11.5v-43h-598zM614 1005l-168 -513q37 -2 72 -3t70 -1h58q35 0 70 1t70 3z" />
<glyph unicode="&#xc5;" horiz-adv-x="1307" d="M784 1449q0 -30 -13 -55t-33 -43.5t-47 -28.5t-55 -10q-27 0 -54 10t-48.5 28.5t-33.5 43.5t-12 55q0 59 43.5 100.5t103.5 41.5q29 0 56 -11t47 -30.5t33 -45.5t13 -55zM710 0v43l95 5q16 0 34 2t32.5 8.5t24.5 18.5t10 32v11q0 8 -7 33.5t-11 33.5l-78 237 q-48 2 -97 3.5t-97 1.5t-97 -1.5t-97 -3.5l-74 -217q-9 -24 -15 -50.5t-6 -52.5q0 -10 2 -18t8 -16q9 -11 35 -16.5t54.5 -8t56.5 -2.5h41v-43h-524v43q54 1 94.5 4t71 16t53.5 42.5t46 85.5q20 53 40.5 107t38.5 107l235 698l-39 116l37 33q8 -1 13.5 -2t12.5 -1 q26 0 54.5 9t52.5 18l333 -998q8 -21 18 -49.5t24 -57.5t29.5 -54t32.5 -37q30 -21 78 -25.5t83 -11.5v-43h-598zM722 1458q0 37 -23.5 70t-63.5 33q-23 0 -38.5 -10t-25 -26.5t-14 -37t-4.5 -38.5q0 -37 19.5 -73.5t62.5 -36.5q22 0 38.5 11.5t27.5 29t16 37.5t5 41z M614 1005l-168 -513q37 -2 72 -3t70 -1h58q35 0 70 1t70 3z" />
<glyph unicode="&#xc6;" horiz-adv-x="1909" d="M1894 268q-46 -83 -85.5 -163.5t-76.5 -167.5h-37q-4 19 -7 32t-9.5 19t-17.5 9t-31 3h-846v43q8 0 33 1.5t52.5 4.5t52.5 7.5t33 10.5q11 7 16.5 42t8 77t3.5 79t1 49v110q-114 5 -226 5q-103 0 -209 -5l-148 -217q-7 -9 -16 -25t-18.5 -33.5t-16 -35t-6.5 -28.5 q0 -13 8 -20q7 -9 31 -13t51.5 -6.5t52.5 -2.5h37v-43h-524v43q63 1 104.5 5t75 18t64 42.5t69.5 82.5q39 53 77.5 106t75.5 108l500 748q-8 13 -31 20t-50 11t-52.5 5t-36.5 1v44h834l65 31l24 -31q-26 -65 -46.5 -128.5t-37.5 -130.5h-20q-7 37 -14.5 73t-28.5 69 q-14 24 -32.5 37t-41 18.5t-47.5 5.5h-49h-122q-50 0 -100 -5q-9 -46 -12.5 -89.5t-3.5 -90.5v-312h63q22 0 48 -1t51.5 1t50.5 7.5t44 20.5q9 7 19 21t18.5 30.5t15 32t12.5 27.5h46q-6 -56 -9.5 -103t-5.5 -93.5t-3 -94.5t-1 -103h-33q-4 12 -12 38t-18.5 54t-22.5 51 t-21 32q-7 6 -31.5 9.5t-52 5.5t-52.5 3t-34 1h-72v-367q0 -46 4.5 -90.5t11.5 -90.5q47 -13 92 -15.5t93 -2.5q89 0 157.5 13.5t127 42.5t111 73.5t111.5 106.5l22 -22v0zM984 1082l-388 -590q42 -2 82 -3t82 -1h65q39 0 79 1t80 3v590z" />
<glyph unicode="&#xc7;" horiz-adv-x="1270" d="M1212 222q-26 -39 -50 -68.5t-50 -53.5t-58.5 -44.5t-76.5 -38.5q-61 -26 -127 -38t-132 -12q-117 0 -217 34t-188 110q-121 100 -173.5 225t-52.5 280q0 146 44.5 265.5t127.5 204.5t201.5 132t266.5 47q54 0 107.5 -6.5t107.5 -15.5q18 -3 36.5 -6t37.5 -3q20 0 34 6.5 t25 24.5h28q22 -107 39.5 -211.5t32.5 -213.5h-28q-13 28 -28 66t-33.5 75.5t-37.5 73t-42 57.5q-26 26 -59 44.5t-70 30.5t-75 17.5t-73 5.5q-115 0 -196.5 -41t-135 -111t-78.5 -163.5t-25 -197.5q0 -114 33.5 -228t100 -204.5t163.5 -147t225 -56.5q87 0 164 35 q34 15 58 30.5t45 34t39.5 41t39.5 50.5l50 -30v0zM797 -163q0 -33 -16.5 -70t-41.5 -73t-52 -69.5t-45 -57.5l-24 13q13 17 28.5 41t28.5 50t21.5 52.5t8.5 48.5q0 26 -15 54t-44 28q-21 0 -34.5 -11t-26.5 -26l-24 13q27 33 62.5 66.5t83.5 33.5q40 0 65 -26t25 -67z" />
<glyph unicode="&#xc8;" horiz-adv-x="1222" d="M679 1336q-85 39 -167.5 84t-152.5 108l94 41q45 -71 107.5 -120.5t135.5 -90.5zM1208 268q-46 -83 -86 -163.5t-77 -167.5h-37q-3 19 -6 32t-9.5 19t-17.5 9t-31 3h-846v43q7 0 32 1.5t54 4.5t54 7.5t30 10.5q11 11 16.5 43t8.5 71t4 75t1 51v618q0 54 -2 110.5 t-17 109.5q-3 15 -13.5 22.5t-22.5 11t-26.5 3.5t-27.5 2l-61 6v44h816l64 31l24 -31q-26 -65 -45 -128.5t-38 -130.5h-20q-8 37 -15.5 73t-27.5 69q-15 24 -33.5 37t-40.5 18.5t-47 5.5h-49h-120q-52 0 -102 -5q-9 -46 -13 -89.5t-4 -90.5v-312h145q44 0 72 7.5t45.5 24 t30.5 43.5t29 64h46q-11 -100 -15.5 -197.5t-0.5 -196.5h-35q-4 12 -12.5 38t-18.5 54t-22 51t-21 32q-8 6 -32 9.5t-51.5 5.5t-52.5 3t-35 1h-72v-367q0 -46 5 -90.5t12 -90.5q46 -13 91.5 -15.5t93.5 -2.5q89 0 157.5 13.5t126.5 42.5t111 73.5t112 106.5l22 -22v0z" />
<glyph unicode="&#xc9;" horiz-adv-x="1222" d="M757 1528q-67 -59 -153 -107t-167 -85l-17 22q72 41 135 90.5t107 120.5l95 -41v0zM1208 268q-46 -83 -86 -163.5t-77 -167.5h-37q-3 19 -6 32t-9.5 19t-17.5 9t-31 3h-846v43q7 0 32 1.5t54 4.5t54 7.5t30 10.5q11 11 16.5 43t8.5 71t4 75t1 51v618q0 54 -2 110.5 t-17 109.5q-3 15 -13.5 22.5t-22.5 11t-26.5 3.5t-27.5 2l-61 6v44h816l64 31l24 -31q-26 -65 -45 -128.5t-38 -130.5h-20q-8 37 -15.5 73t-27.5 69q-15 24 -33.5 37t-40.5 18.5t-47 5.5h-49h-120q-52 0 -102 -5q-9 -46 -13 -89.5t-4 -90.5v-312h145q44 0 72 7.5t45.5 24 t30.5 43.5t29 64h46q-11 -100 -15.5 -197.5t-0.5 -196.5h-35q-4 12 -12.5 38t-18.5 54t-22 51t-21 32q-8 6 -32 9.5t-51.5 5.5t-52.5 3t-35 1h-72v-367q0 -46 5 -90.5t12 -90.5q46 -13 91.5 -15.5t93.5 -2.5q89 0 157.5 13.5t126.5 42.5t111 73.5t112 106.5l22 -22v0z" />
<glyph unicode="&#xca;" horiz-adv-x="1222" d="M747 1336q-16 9 -42 26.5t-52 38t-48 41.5t-31 38q-41 -41 -82 -75t-85 -69l-20 14q16 17 45 45t56.5 58.5t50.5 60t29 49.5h70v-13q0 -26 9.5 -41.5t24.5 -35.5q25 -32 55.5 -60.5t62.5 -54.5zM1208 268q-46 -83 -86 -163.5t-77 -167.5h-37q-3 19 -6 32t-9.5 19t-17.5 9 t-31 3h-846v43q7 0 32 1.5t54 4.5t54 7.5t30 10.5q11 11 16.5 43t8.5 71t4 75t1 51v618q0 54 -2 110.5t-17 109.5q-3 15 -13.5 22.5t-22.5 11t-26.5 3.5t-27.5 2l-61 6v44h816l64 31l24 -31q-26 -65 -45 -128.5t-38 -130.5h-20q-8 37 -15.5 73t-27.5 69q-15 24 -33.5 37 t-40.5 18.5t-47 5.5h-49h-120q-52 0 -102 -5q-9 -46 -13 -89.5t-4 -90.5v-312h145q44 0 72 7.5t45.5 24t30.5 43.5t29 64h46q-11 -100 -15.5 -197.5t-0.5 -196.5h-35q-4 12 -12.5 38t-18.5 54t-22 51t-21 32q-8 6 -32 9.5t-51.5 5.5t-52.5 3t-35 1h-72v-367q0 -46 5 -90.5 t12 -90.5q46 -13 91.5 -15.5t93.5 -2.5q89 0 157.5 13.5t126.5 42.5t111 73.5t112 106.5l22 -22v0z" />
<glyph unicode="&#xcb;" horiz-adv-x="1222" d="M771 1434q0 -30 -20 -50.5t-50 -20.5q-28 0 -49 21.5t-21 49.5q0 29 20.5 49.5t49.5 20.5q30 0 50 -20.5t20 -49.5zM546 1434q0 -30 -20.5 -50.5t-50.5 -20.5q-29 0 -49.5 20.5t-20.5 50.5q0 29 20.5 49.5t49.5 20.5q30 0 50.5 -20.5t20.5 -49.5zM1208 268 q-46 -83 -86 -163.5t-77 -167.5h-37q-3 19 -6 32t-9.5 19t-17.5 9t-31 3h-846v43q7 0 32 1.5t54 4.5t54 7.5t30 10.5q11 11 16.5 43t8.5 71t4 75t1 51v618q0 54 -2 110.5t-17 109.5q-3 15 -13.5 22.5t-22.5 11t-26.5 3.5t-27.5 2l-61 6v44h816l64 31l24 -31 q-26 -65 -45 -128.5t-38 -130.5h-20q-8 37 -15.5 73t-27.5 69q-15 24 -33.5 37t-40.5 18.5t-47 5.5h-49h-120q-52 0 -102 -5q-9 -46 -13 -89.5t-4 -90.5v-312h145q44 0 72 7.5t45.5 24t30.5 43.5t29 64h46q-11 -100 -15.5 -197.5t-0.5 -196.5h-35q-4 12 -12.5 38t-18.5 54 t-22 51t-21 32q-8 6 -32 9.5t-51.5 5.5t-52.5 3t-35 1h-72v-367q0 -46 5 -90.5t12 -90.5q46 -13 91.5 -15.5t93.5 -2.5q89 0 157.5 13.5t126.5 42.5t111 73.5t112 106.5l22 -22v0z" />
<glyph unicode="&#xcc;" horiz-adv-x="775" d="M483 1336q-83 39 -165.5 85t-152.5 107l94 41q44 -71 107 -120.5t135 -90.5zM43 0v43q1 0 33.5 0.5t72.5 3.5t75 7.5t44 12.5q11 9 16.5 40.5t8.5 69.5t4 71t1 48v636q0 52 -2 108.5t-17 104.5q-3 13 -8 18.5t-18 9.5q-51 15 -104 15t-106 2v44h712v-44h-41t-77.5 -3 t-80.5 -7.5t-49 -13.5q-9 -10 -14 -31t-6 -32q-8 -43 -9 -83.5t-1 -83.5v-636q0 -50 2 -106.5t17 -104.5q4 -15 7.5 -19.5t18.5 -8.5q18 -7 50.5 -11t67.5 -5t66.5 -1.5t48.5 -0.5v-43h-712z" />
<glyph unicode="&#xcd;" horiz-adv-x="775" d="M562 1528q-66 -59 -152 -107t-168 -85l-16 22q70 41 135 90.5t107 120.5l94 -41v0zM43 0v43q1 0 33.5 0.5t72.5 3.5t75 7.5t44 12.5q11 9 16.5 40.5t8.5 69.5t4 71t1 48v636q0 52 -2 108.5t-17 104.5q-3 13 -8 18.5t-18 9.5q-51 15 -104 15t-106 2v44h712v-44h-41 t-77.5 -3t-80.5 -7.5t-49 -13.5q-9 -10 -14 -31t-6 -32q-8 -43 -9 -83.5t-1 -83.5v-636q0 -50 2 -106.5t17 -104.5q4 -15 7.5 -19.5t18.5 -8.5q18 -7 50.5 -11t67.5 -5t66.5 -1.5t48.5 -0.5v-43h-712z" />
<glyph unicode="&#xce;" horiz-adv-x="775" d="M553 1336q-17 9 -42.5 26.5t-51.5 38t-48.5 41.5t-31.5 38q-39 -39 -81.5 -74t-84.5 -70l-21 14q17 17 45.5 45t56.5 58.5t51 60t29 49.5h70v-13q0 -26 9 -41.5t24 -35.5q26 -32 56.5 -60.5t62.5 -54.5zM43 0v43q1 0 33.5 0.5t72.5 3.5t75 7.5t44 12.5q11 9 16.5 40.5 t8.5 69.5t4 71t1 48v636q0 52 -2 108.5t-17 104.5q-3 13 -8 18.5t-18 9.5q-51 15 -104 15t-106 2v44h712v-44h-41t-77.5 -3t-80.5 -7.5t-49 -13.5q-9 -10 -14 -31t-6 -32q-8 -43 -9 -83.5t-1 -83.5v-636q0 -50 2 -106.5t17 -104.5q4 -15 7.5 -19.5t18.5 -8.5q18 -7 50.5 -11 t67.5 -5t66.5 -1.5t48.5 -0.5v-43h-712z" />
<glyph unicode="&#xcf;" horiz-adv-x="775" d="M577 1434q0 -30 -20.5 -50.5t-49.5 -20.5q-28 0 -49 21.5t-21 49.5q0 29 20 49.5t50 20.5q29 0 49.5 -20.5t20.5 -49.5zM352 1434q0 -30 -20.5 -50.5t-50.5 -20.5q-29 0 -49.5 20.5t-20.5 50.5q0 29 20.5 49.5t49.5 20.5q30 0 50.5 -20.5t20.5 -49.5zM43 0v43 q1 0 33.5 0.5t72.5 3.5t75 7.5t44 12.5q11 9 16.5 40.5t8.5 69.5t4 71t1 48v636q0 52 -2 108.5t-17 104.5q-3 13 -8 18.5t-18 9.5q-51 15 -104 15t-106 2v44h712v-44h-41t-77.5 -3t-80.5 -7.5t-49 -13.5q-9 -10 -14 -31t-6 -32q-8 -43 -9 -83.5t-1 -83.5v-636 q0 -50 2 -106.5t17 -104.5q4 -15 7.5 -19.5t18.5 -8.5q18 -7 50.5 -11t67.5 -5t66.5 -1.5t48.5 -0.5v-43h-712z" />
<glyph unicode="&#xd0;" horiz-adv-x="1509" d="M1428 607q0 -82 -20 -164t-61 -155t-99 -133.5t-134 -97.5q-39 -20 -87 -31t-98 -16.5t-100 -7.5t-93 -2h-730v43q48 1 95 2t95 5q20 2 47 6.5t40 24.5q7 15 12 48.5t6.5 71.5t2.5 72t1 51v322h-216v48l216 3v213v53t-2.5 76t-8 74t-15.5 47q-9 11 -40.5 17.5t-68.5 9.5 t-71 3.5t-49 0.5v43h592q67 0 133.5 -2t132 -12t127.5 -31.5t119 -58.5q134 -87 204 -226.5t70 -296.5zM1208 616q0 72 -13 145t-42.5 141.5t-75 125t-109.5 95.5q-65 37 -148.5 48t-157.5 11q-77 0 -155 -11q-15 -50 -17 -98q-5 -93 -6 -185t-1 -185q50 2 99 4t99 2 q61 0 122 -6l-35 -68q-71 3 -143 4t-142 3v-209q0 -48 1 -93.5t3 -93.5q1 -46 2 -91.5t14 -89.5q54 -4 109.5 -6t109.5 -2q40 0 79 2t76 9.5t71 22t68 40.5q51 41 87.5 98.5t59.5 122t34 133t11 131.5z" />
<glyph unicode="&#xd1;" horiz-adv-x="1605" d="M1010 1486q-20 -36 -50.5 -70t-75.5 -34q-52 0 -105.5 17.5t-95.5 17.5q-26 0 -39 -12t-24 -32l-24 15q24 40 53.5 71.5t81.5 31.5q42 0 92 -18.5t95 -18.5q26 0 40.5 13t27.5 33l24 -14v0zM1606 1190q-54 -4 -109.5 -8.5t-108.5 -10.5q-28 -4 -37.5 -22.5t-14.5 -42.5 q-6 -26 -8.5 -51t-4.5 -50q-6 -78 -7.5 -154t-3.5 -154l-8 -508q-2 -111 0 -220h-46q-18 35 -40.5 61t-48.5 55l-692 779l-6 -270t-3 -270v-108.5t20 -104.5q17 -41 43 -49t67 -12q25 -2 48.5 -3t49.5 -4v-43h-607v43h50.5t57.5 1.5t55.5 5.5t49.5 13q27 11 44 36t25 55.5 t11 62t3 57.5q3 150 8 296t5 296v43.5t-4 32t-13 29.5t-28 35l-75 87q-25 26 -42.5 41t-48.5 28q-45 18 -92 22t-95 6v44h403q206 -237 408.5 -467.5t415.5 -459.5q3 135 6 268.5t3 268.5v64.5t-3 79.5t-7.5 78.5t-11.5 60.5q-10 26 -22 33t-38 13q-42 9 -86.5 12t-87.5 5 v44h626v-44v0z" />
<glyph unicode="&#xd2;" horiz-adv-x="1552" d="M866 1336q-80 37 -168 85t-152 107l94 41q46 -71 108 -120.5t134 -90.5zM1465 609q0 -137 -59 -254.5t-156 -203.5t-222 -135t-257 -49q-133 0 -257 47t-219 132t-151.5 201.5t-56.5 255.5t54.5 260t147 211t215.5 140.5t262 50.5q135 0 261 -50.5t223 -138.5t156 -208.5 t59 -258.5zM1234 653q0 102 -31.5 202t-90.5 180.5t-147 130t-199 49.5q-118 0 -201.5 -58t-136 -148t-77.5 -197t-25 -207t25 -204.5t77.5 -189.5t136 -139.5t201.5 -54.5q79 0 147.5 29.5t124 79.5t95.5 114.5t64 136.5q20 60 28.5 120t8.5 121v35z" />
<glyph unicode="&#xd3;" horiz-adv-x="1552" d="M945 1528q-70 -61 -152.5 -106.5t-167.5 -85.5l-18 22q74 41 135 90.5t109 120.5l94 -41v0zM1465 609q0 -137 -59 -254.5t-156 -203.5t-222 -135t-257 -49q-133 0 -257 47t-219 132t-151.5 201.5t-56.5 255.5t54.5 260t147 211t215.5 140.5t262 50.5q135 0 261 -50.5 t223 -138.5t156 -208.5t59 -258.5zM1234 653q0 102 -31.5 202t-90.5 180.5t-147 130t-199 49.5q-118 0 -201.5 -58t-136 -148t-77.5 -197t-25 -207t25 -204.5t77.5 -189.5t136 -139.5t201.5 -54.5q79 0 147.5 29.5t124 79.5t95.5 114.5t64 136.5q20 60 28.5 120t8.5 121v35z " />
<glyph unicode="&#xd4;" horiz-adv-x="1552" d="M936 1336q-17 9 -42.5 26.5t-51.5 38t-48.5 41.5t-31.5 38q-37 -41 -81.5 -76t-86.5 -68l-20 14q18 17 46.5 44t56.5 57.5t51 61t29 50.5h70q0 -3 -1 -6t-1 -7q0 -26 17.5 -52.5t41.5 -52.5t50 -49t45 -38zM1465 609q0 -137 -59 -254.5t-156 -203.5t-222 -135t-257 -49 q-133 0 -257 47t-219 132t-151.5 201.5t-56.5 255.5t54.5 260t147 211t215.5 140.5t262 50.5q135 0 261 -50.5t223 -138.5t156 -208.5t59 -258.5zM1234 653q0 102 -31.5 202t-90.5 180.5t-147 130t-199 49.5q-118 0 -201.5 -58t-136 -148t-77.5 -197t-25 -207t25 -204.5 t77.5 -189.5t136 -139.5t201.5 -54.5q79 0 147.5 29.5t124 79.5t95.5 114.5t64 136.5q20 60 28.5 120t8.5 121v35z" />
<glyph unicode="&#xd5;" horiz-adv-x="1552" d="M982 1486q-20 -36 -50.5 -70t-74.5 -34q-52 0 -106 17.5t-96 17.5q-26 0 -39 -12t-24 -32l-24 15q24 40 53.5 71.5t81.5 31.5q43 0 92.5 -18.5t94.5 -18.5q26 0 40.5 13t27.5 33l24 -14v0zM1465 609q0 -137 -59 -254.5t-156 -203.5t-222 -135t-257 -49q-133 0 -257 47 t-219 132t-151.5 201.5t-56.5 255.5t54.5 260t147 211t215.5 140.5t262 50.5q135 0 261 -50.5t223 -138.5t156 -208.5t59 -258.5zM1234 653q0 102 -31.5 202t-90.5 180.5t-147 130t-199 49.5q-118 0 -201.5 -58t-136 -148t-77.5 -197t-25 -207t25 -204.5t77.5 -189.5 t136 -139.5t201.5 -54.5q79 0 147.5 29.5t124 79.5t95.5 114.5t64 136.5q20 60 28.5 120t8.5 121v35z" />
<glyph unicode="&#xd6;" horiz-adv-x="1552" d="M982 1434q0 -30 -20 -50.5t-50 -20.5t-50 20.5t-20 50.5q0 29 20 49.5t50 20.5t50 -20.5t20 -49.5zM710 1434q0 -30 -20 -50.5t-50 -20.5t-50 20.5t-20 50.5q0 29 20 49.5t50 20.5t50 -20.5t20 -49.5zM1465 609q0 -137 -59 -254.5t-156 -203.5t-222 -135t-257 -49 q-133 0 -257 47t-219 132t-151.5 201.5t-56.5 255.5t54.5 260t147 211t215.5 140.5t262 50.5q135 0 261 -50.5t223 -138.5t156 -208.5t59 -258.5zM1234 653q0 102 -31.5 202t-90.5 180.5t-147 130t-199 49.5q-118 0 -201.5 -58t-136 -148t-77.5 -197t-25 -207t25 -204.5 t77.5 -189.5t136 -139.5t201.5 -54.5q79 0 147.5 29.5t124 79.5t95.5 114.5t64 136.5q20 60 28.5 120t8.5 121v35z" />
<glyph unicode="&#xd7;" d="M747 303l-270 267l-277 -272l-43 59l270 261l-270 264l56 63l270 -273l242 238l48 -48l-242 -239l266 -270z" />
<glyph unicode="&#xd8;" horiz-adv-x="1441" d="M1230 1043q84 -85 132 -201.5t48 -234.5q0 -137 -59.5 -253.5t-157.5 -202.5t-223 -135t-254 -49q-131 0 -257 48t-224 137l-170 -152h-93l219 196q-80 85 -120 188t-40 219q0 141 55 262t148 210t216.5 139.5t261.5 50.5q135 0 246 -50.5t222 -124.5l6 -4l164 148h91z M1079 1005q-73 92 -159 151t-210 59q-75 0 -139 -27.5t-114 -74t-87 -107.5t-59 -129q-21 -65 -31 -133.5t-10 -138.5q0 -74 13 -145.5t37 -141.5l762 683zM1178 649q0 80 -13.5 154t-50.5 144l-768 -688q0 -2 1 -3t1 -3q59 -107 148 -171.5t214 -64.5q80 0 146.5 29.5 t120 79.5t93.5 113.5t64 134.5q44 133 44 275z" />
<glyph unicode="&#xd9;" horiz-adv-x="1472" d="M888 1336q-80 37 -167.5 85t-152.5 107l94 41q47 -71 108.5 -120.5t134.5 -90.5zM1473 1190q-21 0 -52.5 0.5t-65.5 0t-63.5 -7t-46.5 -21.5q-13 -11 -18.5 -37t-7.5 -55.5t-2 -56.5v-44v-397v-49t-2 -49q-3 -110 -37.5 -202.5t-96.5 -160.5t-151.5 -106t-202.5 -38 q-91 0 -173 30.5t-145 96.5q-45 48 -70.5 103t-37.5 113t-15 120t-3 125v353q0 60 -2 120t-18 117q-4 15 -7 19.5t-17 8.5q-48 15 -98 15t-98 2v44h660v-44q-11 0 -41.5 -1t-64 -4t-63 -7.5t-38.5 -11.5q-9 -10 -14 -31t-7 -32q-7 -43 -8 -86.5t-1 -85.5v-441q0 -44 3 -90.5 t12 -90.5q22 -109 100 -171t189 -62q70 0 144 28.5t124 78.5q35 35 56.5 79.5t32.5 91.5t13.5 97t2.5 98v385q0 43 -1.5 87.5t-11.5 86.5q-13 58 -54.5 70t-91.5 12h-89v44h578v-44v0z" />
<glyph unicode="&#xda;" horiz-adv-x="1472" d="M1029 1528q-67 -59 -153 -107t-167 -85l-17 22q72 42 133 91t109 120l95 -41v0zM1473 1190q-21 0 -52.5 0.5t-65.5 0t-63.5 -7t-46.5 -21.5q-13 -11 -18.5 -37t-7.5 -55.5t-2 -56.5v-44v-397v-49t-2 -49q-3 -110 -37.5 -202.5t-96.5 -160.5t-151.5 -106t-202.5 -38 q-91 0 -173 30.5t-145 96.5q-45 48 -70.5 103t-37.5 113t-15 120t-3 125v353q0 60 -2 120t-18 117q-4 15 -7 19.5t-17 8.5q-48 15 -98 15t-98 2v44h660v-44q-11 0 -41.5 -1t-64 -4t-63 -7.5t-38.5 -11.5q-9 -10 -14 -31t-7 -32q-7 -43 -8 -86.5t-1 -85.5v-441q0 -44 3 -90.5 t12 -90.5q22 -109 100 -171t189 -62q70 0 144 28.5t124 78.5q35 35 56.5 79.5t32.5 91.5t13.5 97t2.5 98v385q0 43 -1.5 87.5t-11.5 86.5q-13 58 -54.5 70t-91.5 12h-89v44h578v-44v0z" />
<glyph unicode="&#xdb;" horiz-adv-x="1472" d="M958 1336q-16 9 -42 26.5t-52 38t-48 41.5t-32 38q-37 -41 -81 -76t-87 -68l-20 14q18 17 47 44t56.5 57.5t50.5 61t29 50.5h70q0 -3 -1 -6t-1 -7q0 -26 17.5 -52.5t42 -52.5t50 -49t44.5 -38zM1473 1190q-21 0 -52.5 0.5t-65.5 0t-63.5 -7t-46.5 -21.5 q-13 -11 -18.5 -37t-7.5 -55.5t-2 -56.5v-44v-397v-49t-2 -49q-3 -110 -37.5 -202.5t-96.5 -160.5t-151.5 -106t-202.5 -38q-91 0 -173 30.5t-145 96.5q-45 48 -70.5 103t-37.5 113t-15 120t-3 125v353q0 60 -2 120t-18 117q-4 15 -7 19.5t-17 8.5q-48 15 -98 15t-98 2v44 h660v-44q-11 0 -41.5 -1t-64 -4t-63 -7.5t-38.5 -11.5q-9 -10 -14 -31t-7 -32q-7 -43 -8 -86.5t-1 -85.5v-441q0 -44 3 -90.5t12 -90.5q22 -109 100 -171t189 -62q70 0 144 28.5t124 78.5q35 35 56.5 79.5t32.5 91.5t13.5 97t2.5 98v385q0 43 -1.5 87.5t-11.5 86.5 q-13 58 -54.5 70t-91.5 12h-89v44h578v-44v0z" />
<glyph unicode="&#xdc;" horiz-adv-x="1472" d="M995 1434q0 -30 -20 -50.5t-50 -20.5t-50 20.5t-20 50.5q0 29 20 49.5t50 20.5t50 -20.5t20 -49.5zM725 1434q0 -30 -20.5 -50.5t-49.5 -20.5q-30 0 -50 20.5t-20 50.5q0 29 20 49.5t50 20.5q29 0 49.5 -20.5t20.5 -49.5zM1473 1190q-21 0 -52.5 0.5t-65.5 0t-63.5 -7 t-46.5 -21.5q-13 -11 -18.5 -37t-7.5 -55.5t-2 -56.5v-44v-397v-49t-2 -49q-3 -110 -37.5 -202.5t-96.5 -160.5t-151.5 -106t-202.5 -38q-91 0 -173 30.5t-145 96.5q-45 48 -70.5 103t-37.5 113t-15 120t-3 125v353q0 60 -2 120t-18 117q-4 15 -7 19.5t-17 8.5 q-48 15 -98 15t-98 2v44h660v-44q-11 0 -41.5 -1t-64 -4t-63 -7.5t-38.5 -11.5q-9 -10 -14 -31t-7 -32q-7 -43 -8 -86.5t-1 -85.5v-441q0 -44 3 -90.5t12 -90.5q22 -109 100 -171t189 -62q70 0 144 28.5t124 78.5q35 35 56.5 79.5t32.5 91.5t13.5 97t2.5 98v385 q0 43 -1.5 87.5t-11.5 86.5q-13 58 -54.5 70t-91.5 12h-89v44h578v-44v0z" />
<glyph unicode="&#xdd;" horiz-adv-x="1258" d="M982 1528q-26 -26 -66.5 -53.5t-86 -53.5t-89.5 -48.5t-78 -36.5l-16 22q64 37 132.5 91.5t109.5 119.5l94 -41v0zM1284 1191h-53t-53.5 -4.5t-50 -13.5t-41.5 -30q-32 -35 -74.5 -101.5t-85 -141.5t-79.5 -147t-59 -117q-13 -27 -22 -48.5t-15.5 -42.5t-9.5 -44.5 t-3 -54.5v-122v-54t3 -74t8.5 -73t14.5 -49q7 -11 32 -16.5t55 -8.5t57.5 -4.5t38.5 -1.5v-43h-614v43l118 7q21 2 49.5 6.5t37.5 24.5q11 23 16 73.5t6 107t1 108.5v76q0 61 -18 100t-49 90l-181 308q-13 22 -30.5 52.5t-39 62t-44.5 58t-45 39.5q-37 22 -86.5 28t-91.5 7 v43h620v-43q-11 0 -40 -1.5t-57.5 -7t-50.5 -17t-22 -29.5q0 -22 17.5 -63t41.5 -84.5t47 -82t34 -57.5l133 -227l150 273q11 23 28.5 53.5t34.5 63.5t29 66.5t12 59.5q0 9 -1 16.5t-7 14.5q-7 8 -28.5 11.5t-46.5 6.5t-48 3.5t-32 0.5v43h494v-43v0z" />
<glyph unicode="&#xde;" horiz-adv-x="1171" d="M1092 612q0 -64 -31.5 -127t-81.5 -102q-65 -52 -153 -68.5t-167 -16.5q-45 0 -88.5 2t-87.5 5q0 -53 2 -108t16 -108q10 -32 36.5 -34.5t54.5 -4.5l170 -7v-43h-712v43l146 7q20 2 49 6.5t38 24.5q7 17 12 50.5t7.5 69.5t2.5 69v54v586v53t-2.5 76t-7.5 74t-14 47 q-9 15 -38.5 18.5t-46.5 5.5l-146 7v43h712v-43l-170 -7q-28 -2 -54.5 -4.5t-36.5 -34.5q-13 -44 -14.5 -93t-3.5 -96h119t127 -6t122 -24t107 -53q61 -44 97.5 -113.5t36.5 -147.5zM895 622q0 62 -25 115t-68.5 92t-98.5 60t-117 21q-25 0 -51 -2t-52 -5v-548 q20 -2 41.5 -3.5t41.5 -1.5q61 0 120.5 11t109.5 52q48 37 73.5 93t25.5 116z" />
<glyph unicode="&#xdf;" horiz-adv-x="823" d="M770 244q0 -48 -18 -92.5t-48.5 -80.5t-72 -57t-91.5 -21q-46 0 -90.5 9t-88.5 24l-4 148h20q11 -26 23.5 -51t28 -45.5t37.5 -33.5t56 -13q63 0 100 42t37 103q0 66 -45.5 115t-100 91t-100 83.5t-45.5 91.5q0 48 29.5 85t59.5 72q30 33 46.5 58t31.5 68q26 74 26 148 q0 28 -4 60t-16 60t-34 46.5t-57 18.5q-37 0 -65 -20.5t-49.5 -51t-34 -66.5t-18.5 -66q-15 -81 -22.5 -163.5t-7.5 -165.5v-335q0 -77 4 -152t8 -153h-254v33q50 4 96 11q26 6 27 21t1 39v74q0 87 -1 187.5t3.5 204t17.5 202.5t41 184q15 47 41 91.5t61 80.5t79.5 58 t97.5 22q89 0 137 -58t48 -144q0 -24 -3.5 -47t-8.5 -47q-10 -35 -20 -53.5t-36 -42.5q-20 -19 -41.5 -39t-39 -42.5t-29.5 -48.5t-12 -55q0 -35 22 -67.5t55.5 -62t72.5 -59t72 -61t55.5 -65t22.5 -72.5z" />
<glyph unicode="&#xe0;" horiz-adv-x="649" d="M372 612q-78 54 -151 113t-132 132l100 24q33 -76 86.5 -137t116.5 -113zM644 28q-37 -17 -80.5 -31t-84.5 -14q-46 0 -63.5 25t-21.5 68q-44 -37 -98 -65t-113 -28q-52 0 -89.5 25t-37.5 83q0 39 17.5 65.5t45 45t61 31.5t64.5 22q37 13 75 24t75 21v79q0 24 -2 46.5 t-9 40t-23 28.5t-46 11q-61 0 -84 -25t-33 -55.5t-20.5 -55.5t-46.5 -25q-21 0 -35.5 15t-14.5 35q0 11 5.5 20.5t12.5 18.5q19 20 46.5 38.5t60 32.5t65 22.5t59.5 8.5q32 0 63.5 -7.5t57 -23.5t43.5 -41t19 -60q2 -16 2 -32v-32q2 -67 3 -133.5t5 -133.5q2 -22 7.5 -32 t29.5 -10q16 0 38.5 10t38.5 16l8 -28v0zM394 270q-30 -5 -67 -16.5t-70 -30.5t-55.5 -46t-22.5 -66q0 -31 17 -51.5t50 -20.5q39 0 79.5 24t68.5 50v157z" />
<glyph unicode="&#xe1;" horiz-adv-x="649" d="M503 857q-59 -71 -133 -132t-150 -113l-20 19q63 52 116.5 113t86.5 137l100 -24v0zM644 28q-37 -17 -80.5 -31t-84.5 -14q-46 0 -63.5 25t-21.5 68q-44 -37 -98 -65t-113 -28q-52 0 -89.5 25t-37.5 83q0 39 17.5 65.5t45 45t61 31.5t64.5 22q37 13 75 24t75 21v79 q0 24 -2 46.5t-9 40t-23 28.5t-46 11q-61 0 -84 -25t-33 -55.5t-20.5 -55.5t-46.5 -25q-21 0 -35.5 15t-14.5 35q0 11 5.5 20.5t12.5 18.5q19 20 46.5 38.5t60 32.5t65 22.5t59.5 8.5q32 0 63.5 -7.5t57 -23.5t43.5 -41t19 -60q2 -16 2 -32v-32q2 -67 3 -133.5t5 -133.5 q2 -22 7.5 -32t29.5 -10q16 0 38.5 10t38.5 16l8 -28v0zM394 270q-30 -5 -67 -16.5t-70 -30.5t-55.5 -46t-22.5 -66q0 -31 17 -51.5t50 -20.5q39 0 79.5 24t68.5 50v157z" />
<glyph unicode="&#xe2;" horiz-adv-x="649" d="M472 612q-17 13 -41 31.5t-47 41t-42.5 45.5t-27.5 43q-5 -9 -25.5 -32t-44.5 -49t-47 -48t-32 -32l-19 17q19 20 44.5 52.5t50.5 67t45.5 68.5t26.5 60h61q-2 -6 -2 -12.5v-11.5q0 -28 14.5 -57.5t36 -58t45.5 -54.5t43 -45zM644 28q-37 -17 -80.5 -31t-84.5 -14 q-46 0 -63.5 25t-21.5 68q-44 -37 -98 -65t-113 -28q-52 0 -89.5 25t-37.5 83q0 39 17.5 65.5t45 45t61 31.5t64.5 22q37 13 75 24t75 21v79q0 24 -2 46.5t-9 40t-23 28.5t-46 11q-61 0 -84 -25t-33 -55.5t-20.5 -55.5t-46.5 -25q-21 0 -35.5 15t-14.5 35q0 11 5.5 20.5 t12.5 18.5q19 20 46.5 38.5t60 32.5t65 22.5t59.5 8.5q32 0 63.5 -7.5t57 -23.5t43.5 -41t19 -60q2 -16 2 -32v-32q2 -67 3 -133.5t5 -133.5q2 -22 7.5 -32t29.5 -10q16 0 38.5 10t38.5 16l8 -28v0zM394 270q-30 -5 -67 -16.5t-70 -30.5t-55.5 -46t-22.5 -66q0 -31 17 -51.5 t50 -20.5q39 0 79.5 24t68.5 50v157z" />
<glyph unicode="&#xe3;" horiz-adv-x="649" d="M535 775q-21 -35 -51.5 -69t-74.5 -34q-52 0 -105.5 17.5t-96.5 17.5q-26 0 -39 -12t-24 -33l-24 15q24 41 54 72.5t81 31.5q43 0 93 -18.5t94 -18.5q26 0 41 13t28 33l24 -15v0zM644 28q-37 -17 -80.5 -31t-84.5 -14q-46 0 -63.5 25t-21.5 68q-44 -37 -98 -65t-113 -28 q-52 0 -89.5 25t-37.5 83q0 39 17.5 65.5t45 45t61 31.5t64.5 22q37 13 75 24t75 21v79q0 24 -2 46.5t-9 40t-23 28.5t-46 11q-61 0 -84 -25t-33 -55.5t-20.5 -55.5t-46.5 -25q-21 0 -35.5 15t-14.5 35q0 11 5.5 20.5t12.5 18.5q19 20 46.5 38.5t60 32.5t65 22.5t59.5 8.5 q32 0 63.5 -7.5t57 -23.5t43.5 -41t19 -60q2 -16 2 -32v-32q2 -67 3 -133.5t5 -133.5q2 -22 7.5 -32t29.5 -10q16 0 38.5 10t38.5 16l8 -28v0zM394 270q-30 -5 -67 -16.5t-70 -30.5t-55.5 -46t-22.5 -66q0 -31 17 -51.5t50 -20.5q39 0 79.5 24t68.5 50v157z" />
<glyph unicode="&#xe4;" horiz-adv-x="649" d="M490 720q0 -30 -20 -50.5t-50 -20.5t-50 20.5t-20 50.5q0 29 20 49.5t50 20.5t50 -20.5t20 -49.5zM263 720q0 -30 -20.5 -50.5t-50.5 -20.5q-29 0 -49.5 20.5t-20.5 50.5q0 29 20.5 49.5t49.5 20.5q30 0 50.5 -20.5t20.5 -49.5zM644 28q-37 -17 -80.5 -31t-84.5 -14 q-46 0 -63.5 25t-21.5 68q-44 -37 -98 -65t-113 -28q-52 0 -89.5 25t-37.5 83q0 39 17.5 65.5t45 45t61 31.5t64.5 22q37 13 75 24t75 21v79q0 24 -2 46.5t-9 40t-23 28.5t-46 11q-61 0 -84 -25t-33 -55.5t-20.5 -55.5t-46.5 -25q-21 0 -35.5 15t-14.5 35q0 11 5.5 20.5 t12.5 18.5q19 20 46.5 38.5t60 32.5t65 22.5t59.5 8.5q32 0 63.5 -7.5t57 -23.5t43.5 -41t19 -60q2 -16 2 -32v-32q2 -67 3 -133.5t5 -133.5q2 -22 7.5 -32t29.5 -10q16 0 38.5 10t38.5 16l8 -28v0zM394 270q-30 -5 -67 -16.5t-70 -30.5t-55.5 -46t-22.5 -66q0 -31 17 -51.5 t50 -20.5q39 0 79.5 24t68.5 50v157z" />
<glyph unicode="&#xe5;" horiz-adv-x="649" d="M472 738q0 -29 -13 -54t-33.5 -43.5t-47 -29t-54.5 -10.5t-55 10.5t-48 29t-33 43.5t-12 54q0 59 43.5 101t102.5 42q30 0 56.5 -11.5t47 -30.5t33.5 -45t13 -56zM644 28q-37 -17 -80.5 -31t-84.5 -14q-46 0 -63.5 25t-21.5 68q-44 -37 -98 -65t-113 -28q-52 0 -89.5 25 t-37.5 83q0 39 17.5 65.5t45 45t61 31.5t64.5 22q37 13 75 24t75 21v79q0 24 -2 46.5t-9 40t-23 28.5t-46 11q-61 0 -84 -25t-33 -55.5t-20.5 -55.5t-46.5 -25q-21 0 -35.5 15t-14.5 35q0 11 5.5 20.5t12.5 18.5q19 20 46.5 38.5t60 32.5t65 22.5t59.5 8.5q32 0 63.5 -7.5 t57 -23.5t43.5 -41t19 -60q2 -16 2 -32v-32q2 -67 3 -133.5t5 -133.5q2 -22 7.5 -32t29.5 -10q16 0 38.5 10t38.5 16l8 -28v0zM409 747q0 37 -23 70.5t-64 33.5q-22 0 -38 -10t-25 -27t-14 -37t-5 -39q0 -37 19.5 -73t62.5 -36q22 0 38.5 11t28 28.5t16 38t4.5 40.5z M394 270q-30 -5 -67 -16.5t-70 -30.5t-55.5 -46t-22.5 -66q0 -31 17 -51.5t50 -20.5q39 0 79.5 24t68.5 50v157z" />
<glyph unicode="&#xe6;" horiz-adv-x="941" d="M914 83q-56 -48 -117 -74t-135 -26q-144 0 -240 111q-54 -42 -108.5 -76.5t-126.5 -34.5q-54 0 -93.5 25t-39.5 84q0 47 36 80t86 56.5t102.5 38t87.5 25.5l30 10q-2 14 -2 39t-1 52t-3.5 50t-8.5 36q-9 19 -28.5 22.5t-36.5 3.5q-37 0 -58 -6.5t-34 -21.5t-20.5 -37 t-18.5 -53q-6 -15 -21.5 -27t-32.5 -12q-24 0 -36 14.5t-12 37.5q0 18 11 30t24 23q48 37 95.5 59.5t108.5 22.5q30 0 54 -4t43 -12t37.5 -22t39.5 -35q35 41 74.5 57.5t93.5 16.5q43 0 81 -12t69 -39q44 -39 55.5 -82.5t14.5 -100.5l-364 9q0 -52 11 -102t36 -89t65 -63 t101 -24q51 0 87.5 19.5t74.5 51.5l19 -21v0zM764 350q0 29 -5.5 58t-19.5 51t-36 35t-57 13q-39 0 -63 -15t-38 -40t-18.5 -55.5t-4.5 -63.5l242 17v0zM409 120q-6 37 -8.5 73t-4.5 73q-32 -5 -69 -15.5t-69 -28t-54.5 -45t-22.5 -66.5q0 -74 71 -74q40 0 82.5 28.5 t74.5 54.5z" />
<glyph unicode="&#xe7;" horiz-adv-x="617" d="M579 44q-48 -29 -98 -45t-107 -16q-58 0 -115 18.5t-102.5 53t-74 84.5t-28.5 113q0 62 25 114t66.5 89t96 58.5t115.5 21.5q24 0 60 -5.5t71.5 -19.5t60.5 -35.5t25 -54.5q0 -20 -12.5 -29.5t-30.5 -9.5q-26 0 -43.5 19.5t-37 42.5t-45.5 42.5t-66 19.5 q-87 0 -124 -54.5t-37 -134.5q0 -51 13.5 -103t43.5 -93.5t72.5 -67.5t101.5 -26q44 0 83 13t80 31l7 -26v0zM435 -111q0 -24 -11 -48t-27 -48t-33.5 -46.5t-30.5 -40.5l-17 -24l-18 9q9 13 21 31.5t22.5 39t16.5 40.5t6 37q0 20 -12 41.5t-34 21.5q-15 0 -26 -8.5 t-20 -19.5l-19 9q23 26 49.5 51t63.5 25q32 0 50.5 -19.5t18.5 -50.5z" />
<glyph unicode="&#xe8;" horiz-adv-x="597" d="M390 612q-77 54 -150.5 113t-132.5 132l100 24q33 -76 87 -137t117 -113zM179 309q0 -50 11.5 -99t36.5 -88t64.5 -63t98.5 -24q43 0 80 15t74 39l15 -21q-54 -37 -111.5 -61t-123.5 -24q-54 0 -103 18.5t-86 52t-59 79.5t-22 102q0 52 20 105.5t56 97t85.5 70.5 t104.5 27q104 0 167.5 -65t82.5 -163zM435 353q-4 26 -13 53t-24 49t-37 37t-52 15q-37 0 -61 -16t-40 -40.5t-22.5 -56t-6.5 -63.5q128 8 256 22z" />
<glyph unicode="&#xe9;" horiz-adv-x="597" d="M509 857q-59 -71 -133 -132t-150 -113l-21 19q63 52 117 113t87 137l100 -24v0zM179 309q0 -50 11.5 -99t36.5 -88t64.5 -63t98.5 -24q43 0 80 15t74 39l15 -21q-54 -37 -111.5 -61t-123.5 -24q-54 0 -103 18.5t-86 52t-59 79.5t-22 102q0 52 20 105.5t56 97t85.5 70.5 t104.5 27q104 0 167.5 -65t82.5 -163zM435 353q-4 26 -13 53t-24 49t-37 37t-52 15q-37 0 -61 -16t-40 -40.5t-22.5 -56t-6.5 -63.5q128 8 256 22z" />
<glyph unicode="&#xea;" horiz-adv-x="597" d="M464 612q-16 13 -40 31.5t-47.5 41t-43 45.5t-26.5 43q-5 -9 -25.5 -32t-44.5 -49t-47.5 -48t-32.5 -32l-18 17q18 20 44 52.5t51 67t45.5 68.5t25.5 60h61q-2 -6 -2 -12.5v-11.5q0 -28 15 -57.5t36.5 -58t45.5 -54.5t42 -45zM179 309q0 -50 11.5 -99t36.5 -88t64.5 -63 t98.5 -24q43 0 80 15t74 39l15 -21q-54 -37 -111.5 -61t-123.5 -24q-54 0 -103 18.5t-86 52t-59 79.5t-22 102q0 52 20 105.5t56 97t85.5 70.5t104.5 27q104 0 167.5 -65t82.5 -163zM435 353q-4 26 -13 53t-24 49t-37 37t-52 15q-37 0 -61 -16t-40 -40.5t-22.5 -56 t-6.5 -63.5q128 8 256 22z" />
<glyph unicode="&#xeb;" horiz-adv-x="597" d="M503 720q0 -30 -20.5 -50.5t-49.5 -20.5q-28 0 -49 21.5t-21 49.5q0 29 20 49.5t50 20.5q29 0 49.5 -20.5t20.5 -49.5zM278 720q0 -30 -20.5 -50.5t-50.5 -20.5q-29 0 -49.5 20.5t-20.5 50.5q0 29 20.5 49.5t49.5 20.5q30 0 50.5 -20.5t20.5 -49.5zM179 309 q0 -50 11.5 -99t36.5 -88t64.5 -63t98.5 -24q43 0 80 15t74 39l15 -21q-54 -37 -111.5 -61t-123.5 -24q-54 0 -103 18.5t-86 52t-59 79.5t-22 102q0 52 20 105.5t56 97t85.5 70.5t104.5 27q104 0 167.5 -65t82.5 -163zM435 353q-4 26 -13 53t-24 49t-37 37t-52 15 q-37 0 -61 -16t-40 -40.5t-22.5 -56t-6.5 -63.5q128 8 256 22z" />
<glyph unicode="&#xec;" horiz-adv-x="392" d="M266 612q-77 54 -150 113t-133 132l100 24q34 -76 87.5 -137t116.5 -113zM46 0v33h21t26.5 1t25.5 5t18 11q5 7 8 28.5t4 45.5t1 46v32v203q0 9 -3 17.5t-14 8.5q-20 0 -41.5 -7.5t-41.5 -12.5l-7 27q59 21 113.5 43t109.5 54l21 -21q-17 -46 -20.5 -80t-3.5 -82 q0 -65 3.5 -129t3.5 -129q0 -9 1 -24.5t8 -25.5q4 -5 15 -7t24 -3t25 -1h18v-33h-315z" />
<glyph unicode="&#xed;" horiz-adv-x="392" d="M385 857q-59 -71 -133 -132t-150 -113l-21 19q63 52 117 113t87 137l100 -24v0zM46 0v33h21t26.5 1t25.5 5t18 11q5 7 8 28.5t4 45.5t1 46v32v203q0 9 -3 17.5t-14 8.5q-20 0 -41.5 -7.5t-41.5 -12.5l-7 27q59 21 113.5 43t109.5 54l21 -21q-17 -46 -20.5 -80t-3.5 -82 q0 -65 3.5 -129t3.5 -129q0 -9 1 -24.5t8 -25.5q4 -5 15 -7t24 -3t25 -1h18v-33h-315z" />
<glyph unicode="&#xee;" horiz-adv-x="392" d="M340 612q-16 13 -40 31.5t-47.5 41t-42.5 45.5t-27 43q-5 -9 -25.5 -32t-44.5 -49t-47 -48t-33 -32l-18 17q18 20 44 52.5t51 67t45.5 68.5t25.5 60h61q-2 -6 -2 -12.5v-11.5q0 -28 15 -57.5t36.5 -58t45.5 -54.5t42 -45zM46 0v33h21t26.5 1t25.5 5t18 11q5 7 8 28.5 t4 45.5t1 46v32v203q0 9 -3 17.5t-14 8.5q-20 0 -41.5 -7.5t-41.5 -12.5l-7 27q59 21 113.5 43t109.5 54l21 -21q-17 -46 -20.5 -80t-3.5 -82q0 -65 3.5 -129t3.5 -129q0 -9 1 -24.5t8 -25.5q4 -5 15 -7t24 -3t25 -1h18v-33h-315z" />
<glyph unicode="&#xef;" horiz-adv-x="392" d="M379 720q0 -30 -20 -50.5t-50 -20.5q-28 0 -49 21.5t-21 49.5q0 29 20 49.5t50 20.5t50 -20.5t20 -49.5zM154 720q0 -30 -20.5 -50.5t-50.5 -20.5q-29 0 -49.5 20.5t-20.5 50.5q0 29 20.5 49.5t49.5 20.5q30 0 50.5 -20.5t20.5 -49.5zM46 0v33h21t26.5 1t25.5 5t18 11 q5 7 8 28.5t4 45.5t1 46v32v203q0 9 -3 17.5t-14 8.5q-20 0 -41.5 -7.5t-41.5 -12.5l-7 27q59 21 113.5 43t109.5 54l21 -21q-17 -46 -20.5 -80t-3.5 -82q0 -65 3.5 -129t3.5 -129q0 -9 1 -24.5t8 -25.5q4 -5 15 -7t24 -3t25 -1h18v-33h-315z" />
<glyph unicode="&#xf0;" horiz-adv-x="690" d="M636 255q0 -64 -25.5 -115t-69 -85.5t-99 -53t-116.5 -18.5q-126 0 -200 76t-74 200q0 63 25 115t66.5 88t97 55t114.5 19q48 0 89 -12q-52 135 -106.5 266t-115.5 263q-35 -17 -67.5 -35.5t-65.5 -38.5l-17 27q33 21 67.5 40.5t65.5 41.5q-20 40 -38.5 79t-38.5 78 l37 30l44 -78t46 -78q37 24 72.5 44.5t72.5 40.5l11 -55q-35 -15 -68.5 -31.5t-66.5 -35.5q85 -131 150.5 -273.5t128.5 -284.5q30 -65 55.5 -131t25.5 -138zM511 246q0 39 -8.5 84.5t-29 84t-53.5 63.5t-81 25q-45 0 -76.5 -19.5t-50 -50t-26.5 -68.5t-8 -76q0 -39 9 -86.5 t29.5 -87t53.5 -67.5t83 -28q47 0 77.5 21.5t48 54t25 72t7.5 78.5z" />
<glyph unicode="&#xf1;" horiz-adv-x="760" d="M590 775q-20 -35 -50.5 -69t-75.5 -34q-51 0 -105 17.5t-96 17.5q-26 0 -39 -12t-24 -33l-24 15q24 41 53.5 72.5t81.5 31.5q42 0 92 -18.5t95 -18.5q26 0 40.5 13t27.5 33l24 -15v0zM427 0v33q15 0 43 1t37 16q5 9 9 38t6 62t2 63.5v43.5q0 28 -2 64t-13 69.5 t-32.5 55.5t-60.5 22q-18 0 -38.5 -8.5t-41 -20.5t-38 -26.5t-30.5 -25.5q-5 -109 -5 -217v-23.5t1 -38t2.5 -37t5.5 -21.5t15 -6.5t24 -4.5t24 -4t17 -2v-33h-309v33q20 2 37.5 3t37.5 3q19 2 23.5 9.5t6.5 23.5q6 91 6 185q0 37 0.5 87t-4.5 85q-2 6 -4 13.5t-9 7.5 q-15 0 -43.5 -12t-43.5 -18l-7 26q49 22 98.5 44t98.5 45l26 -24v-82q47 35 97.5 70.5t111.5 35.5q76 0 118.5 -50t42.5 -122v-49q0 -16 -1.5 -32.5t-1.5 -33.5v-69q0 -20 1 -41t1 -42q0 -29 5.5 -42t16.5 -18t28.5 -4t43.5 1v-33h-302z" />
<glyph unicode="&#xf2;" horiz-adv-x="690" d="M414 612q-77 54 -150 113t-133 132l100 24q34 -76 87.5 -137t116.5 -113zM636 261q0 -67 -25 -118t-67.5 -87t-98 -54.5t-118.5 -18.5q-55 0 -105 17t-87 48.5t-59 76.5t-22 104v28q0 63 24 115t65.5 88t96 55.5t115.5 19.5q124 0 202.5 -73.5t78.5 -200.5zM511 240 q0 39 -8.5 85.5t-28 85.5t-53 64.5t-82.5 25.5q-45 0 -76.5 -18.5t-50 -49t-26.5 -68.5t-8 -76q0 -39 9 -86.5t29.5 -87t53.5 -67.5t83 -28q45 0 75.5 20.5t48 52t26 71.5t8.5 76z" />
<glyph unicode="&#xf3;" horiz-adv-x="690" d="M535 857q-60 -71 -134 -132t-149 -113l-21 19q63 52 116.5 113t87.5 137l100 -24v0zM636 261q0 -67 -25 -118t-67.5 -87t-98 -54.5t-118.5 -18.5q-55 0 -105 17t-87 48.5t-59 76.5t-22 104v28q0 63 24 115t65.5 88t96 55.5t115.5 19.5q124 0 202.5 -73.5t78.5 -200.5z M511 240q0 39 -8.5 85.5t-28 85.5t-53 64.5t-82.5 25.5q-45 0 -76.5 -18.5t-50 -49t-26.5 -68.5t-8 -76q0 -39 9 -86.5t29.5 -87t53.5 -67.5t83 -28q45 0 75.5 20.5t48 52t26 71.5t8.5 76z" />
<glyph unicode="&#xf4;" horiz-adv-x="690" d="M490 612q-16 13 -40 31.5t-47.5 41t-43 45.5t-26.5 43q-6 -9 -26 -32t-44 -49t-47.5 -48t-32.5 -32l-18 17q18 20 44 52.5t51 67t45.5 68.5t25.5 60h61q-2 -6 -2 -12.5v-11.5q0 -28 15 -57.5t36 -58t45.5 -54.5t42.5 -45zM636 261q0 -67 -25 -118t-67.5 -87t-98 -54.5 t-118.5 -18.5q-55 0 -105 17t-87 48.5t-59 76.5t-22 104v28q0 63 24 115t65.5 88t96 55.5t115.5 19.5q124 0 202.5 -73.5t78.5 -200.5zM511 240q0 39 -8.5 85.5t-28 85.5t-53 64.5t-82.5 25.5q-45 0 -76.5 -18.5t-50 -49t-26.5 -68.5t-8 -76q0 -39 9 -86.5t29.5 -87 t53.5 -67.5t83 -28q45 0 75.5 20.5t48 52t26 71.5t8.5 76z" />
<glyph unicode="&#xf5;" horiz-adv-x="690" d="M553 775q-20 -35 -50.5 -69t-75.5 -34q-51 0 -105 17.5t-96 17.5q-26 0 -39 -12t-24 -33l-24 15q24 41 53.5 72.5t81.5 31.5q42 0 92 -18.5t95 -18.5q26 0 40.5 13t27.5 33l24 -15v0zM636 261q0 -67 -25 -118t-67.5 -87t-98 -54.5t-118.5 -18.5q-55 0 -105 17t-87 48.5 t-59 76.5t-22 104v28q0 63 24 115t65.5 88t96 55.5t115.5 19.5q124 0 202.5 -73.5t78.5 -200.5zM511 240q0 39 -8.5 85.5t-28 85.5t-53 64.5t-82.5 25.5q-45 0 -76.5 -18.5t-50 -49t-26.5 -68.5t-8 -76q0 -39 9 -86.5t29.5 -87t53.5 -67.5t83 -28q45 0 75.5 20.5t48 52 t26 71.5t8.5 76z" />
<glyph unicode="&#xf6;" horiz-adv-x="690" d="M529 720q0 -30 -20.5 -50.5t-49.5 -20.5q-30 0 -50.5 20.5t-20.5 50.5q0 29 20.5 49.5t50.5 20.5q29 0 49.5 -20.5t20.5 -49.5zM302 720q0 -30 -20.5 -50.5t-50.5 -20.5q-29 0 -49.5 20.5t-20.5 50.5q0 29 20.5 49.5t49.5 20.5q30 0 50.5 -20.5t20.5 -49.5zM636 261 q0 -67 -25 -118t-67.5 -87t-98 -54.5t-118.5 -18.5q-55 0 -105 17t-87 48.5t-59 76.5t-22 104v28q0 63 24 115t65.5 88t96 55.5t115.5 19.5q124 0 202.5 -73.5t78.5 -200.5zM511 240q0 39 -8.5 85.5t-28 85.5t-53 64.5t-82.5 25.5q-45 0 -76.5 -18.5t-50 -49t-26.5 -68.5 t-8 -76q0 -39 9 -86.5t29.5 -87t53.5 -67.5t83 -28q45 0 75.5 20.5t48 52t26 71.5t8.5 76z" />
<glyph unicode="&#xf7;" d="M527 958q0 -26 -19.5 -45t-45.5 -19q-25 0 -44.5 19t-19.5 45t19.5 45.5t44.5 19.5q26 0 45.5 -19.5t19.5 -45.5zM61 574v70h803v-70h-803zM527 259q0 -26 -19.5 -45.5t-45.5 -19.5q-25 0 -44.5 19.5t-19.5 45.5t19.5 45.5t44.5 19.5q26 0 45.5 -19.5t19.5 -45.5z" />
<glyph unicode="&#xf8;" horiz-adv-x="699" d="M583 438q31 -38 44 -82.5t13 -94.5q0 -67 -25 -118t-67.5 -87t-98 -54.5t-118.5 -18.5q-57 0 -105 17.5t-91 56.5l-65 -57h-68l103 91q-25 37 -36.5 80.5t-11.5 87.5q0 63 25 114t67 87t96.5 55.5t113.5 19.5q52 0 101 -14t89 -49l54 48h72zM477 416q-22 39 -55.5 62 t-79.5 23q-44 0 -74.5 -18.5t-49 -49t-27 -68.5t-8.5 -76q0 -32 3 -59.5t12 -57.5l279 244v0zM514 246q0 33 -4.5 63.5t-13.5 62.5l-281 -244q20 -45 56 -76.5t88 -31.5q46 0 75.5 21.5t47.5 55t25 73t7 76.5z" />
<glyph unicode="&#xf9;" horiz-adv-x="758" d="M472 612q-78 54 -151 113t-132 132l100 24q33 -76 86.5 -137t116.5 -113zM727 80q-9 -8 -27.5 -22t-40 -27.5t-41.5 -24t-30 -10.5h-26q-20 0 -31 4t-15.5 12t-5.5 20t-3 31q0 5 -1 11t-1 11q-43 -48 -85.5 -75t-108.5 -27q-43 0 -74.5 5t-53.5 20.5t-33 43.5t-11 72 q0 68 6.5 135.5t6.5 136.5q0 20 -5 37t-30 17q-15 0 -29 -5t-29 -12l-11 18l174 84l59 -11q-11 -93 -19.5 -184.5t-8.5 -185.5q0 -49 19.5 -86t79.5 -37q33 0 62.5 18t51.5 42q39 42 41 83.5t2 97.5q0 39 -2 77t-2 77q0 44 7.5 64.5t24 27.5t43.5 6.5t66 -0.5 q-13 -80 -20.5 -157t-7.5 -158v-31t2 -49t8.5 -45.5t20.5 -20.5q15 0 34.5 14t28.5 21l15 -18v0z" />
<glyph unicode="&#xfa;" horiz-adv-x="758" d="M627 857q-59 -71 -133 -132t-150 -113l-20 19q63 52 116.5 113t86.5 137l100 -24v0zM727 80q-9 -8 -27.5 -22t-40 -27.5t-41.5 -24t-30 -10.5h-26q-20 0 -31 4t-15.5 12t-5.5 20t-3 31q0 5 -1 11t-1 11q-43 -48 -85.5 -75t-108.5 -27q-43 0 -74.5 5t-53.5 20.5t-33 43.5 t-11 72q0 68 6.5 135.5t6.5 136.5q0 20 -5 37t-30 17q-15 0 -29 -5t-29 -12l-11 18l174 84l59 -11q-11 -93 -19.5 -184.5t-8.5 -185.5q0 -49 19.5 -86t79.5 -37q33 0 62.5 18t51.5 42q39 42 41 83.5t2 97.5q0 39 -2 77t-2 77q0 44 7.5 64.5t24 27.5t43.5 6.5t66 -0.5 q-13 -80 -20.5 -157t-7.5 -158v-31t2 -49t8.5 -45.5t20.5 -20.5q15 0 34.5 14t28.5 21l15 -18v0z" />
<glyph unicode="&#xfb;" horiz-adv-x="758" d="M559 612q-17 13 -41 31.5t-47 41t-42.5 45.5t-27.5 43q-5 -9 -25.5 -32t-44.5 -49t-47 -48t-32 -32l-19 17q19 20 44.5 52.5t50.5 67t45.5 68.5t26.5 60h61q-2 -6 -2 -12.5v-11.5q0 -28 14.5 -57.5t36 -58t45.5 -54.5t43 -45zM727 80q-9 -8 -27.5 -22t-40 -27.5 t-41.5 -24t-30 -10.5h-26q-20 0 -31 4t-15.5 12t-5.5 20t-3 31q0 5 -1 11t-1 11q-43 -48 -85.5 -75t-108.5 -27q-43 0 -74.5 5t-53.5 20.5t-33 43.5t-11 72q0 68 6.5 135.5t6.5 136.5q0 20 -5 37t-30 17q-15 0 -29 -5t-29 -12l-11 18l174 84l59 -11q-11 -93 -19.5 -184.5 t-8.5 -185.5q0 -49 19.5 -86t79.5 -37q33 0 62.5 18t51.5 42q39 42 41 83.5t2 97.5q0 39 -2 77t-2 77q0 44 7.5 64.5t24 27.5t43.5 6.5t66 -0.5q-13 -80 -20.5 -157t-7.5 -158v-31t2 -49t8.5 -45.5t20.5 -20.5q15 0 34.5 14t28.5 21l15 -18v0z" />
<glyph unicode="&#xfc;" horiz-adv-x="758" d="M596 720q0 -30 -20.5 -50.5t-50.5 -20.5q-29 0 -49.5 20.5t-20.5 50.5q0 29 20.5 49.5t49.5 20.5q30 0 50.5 -20.5t20.5 -49.5zM368 720q0 -30 -20.5 -50.5t-49.5 -20.5q-30 0 -50 20.5t-20 50.5q0 29 20 49.5t50 20.5q29 0 49.5 -20.5t20.5 -49.5zM727 80 q-9 -8 -27.5 -22t-40 -27.5t-41.5 -24t-30 -10.5h-26q-20 0 -31 4t-15.5 12t-5.5 20t-3 31q0 5 -1 11t-1 11q-43 -48 -85.5 -75t-108.5 -27q-43 0 -74.5 5t-53.5 20.5t-33 43.5t-11 72q0 68 6.5 135.5t6.5 136.5q0 20 -5 37t-30 17q-15 0 -29 -5t-29 -12l-11 18l174 84 l59 -11q-11 -93 -19.5 -184.5t-8.5 -185.5q0 -49 19.5 -86t79.5 -37q33 0 62.5 18t51.5 42q39 42 41 83.5t2 97.5q0 39 -2 77t-2 77q0 44 7.5 64.5t24 27.5t43.5 6.5t66 -0.5q-13 -80 -20.5 -157t-7.5 -158v-31t2 -49t8.5 -45.5t20.5 -20.5q15 0 34.5 14t28.5 21l15 -18v0z " />
<glyph unicode="&#xfd;" horiz-adv-x="773" d="M722 857q-21 -28 -56 -62.5t-76 -68.5t-80.5 -63.5t-69.5 -50.5l-20 19q30 24 59.5 52.5t57 60t50 66.5t35.5 71l100 -24v0zM797 487q-51 0 -77 -6.5t-42 -22.5t-27 -43t-31 -69l-291 -594q-5 -11 -16 -35t-23 -52t-20.5 -53t-8.5 -36q0 -16 19.5 -23.5t44.5 -10.5t49 -2 t33 1v-33h-396v33q17 2 39 3t45 5.5t43.5 11t33.5 19.5q9 9 16.5 21t15.5 25l107 196q7 15 21 38t27 49t22 51t9 42q0 16 -7 32t-17 31l-166 307q-22 41 -40.5 64t-42 35t-54 14t-76.5 2v33h405v-33h-18t-28 -1t-27 -3t-17 -6q-6 -3 -6 -16q0 -10 4.5 -22.5t11 -27.5t14 -28 t11.5 -20l131 -237l102 244q7 17 16.5 43.5t9.5 45.5q0 13 -11 19.5t-27 8t-31.5 1t-25.5 -0.5v33h296v-33v0z" />
<glyph unicode="&#xfe;" horiz-adv-x="782" d="M727 261q0 -59 -21.5 -110t-58.5 -87t-87.5 -56.5t-109.5 -20.5q-60 0 -99.5 20.5t-80.5 62.5q0 -48 -2 -94t-2 -94q0 -17 1 -66t3 -102.5t5 -99t8 -56.5q4 -9 25 -14t46 -7.5t48.5 -4.5t30.5 -2v-33h-422v33q7 0 25 1t37 3t37 5.5t23 9.5q6 5 8.5 29t4.5 52t2 53v34v157 q0 34 2 66t2 66v843q0 35 -1 70.5t-1 70.5v33t-1 51t-3 50t-5 30q-6 8 -15 8q-6 0 -18 -4.5t-24 -11t-23 -13t-17 -8.5l-11 28q58 31 115 61.5t117 61.5l18 -14q-15 -30 -16 -62.5t-1 -63.5l2 -692q32 48 82 70t105 22q61 0 111 -20t86 -57t55.5 -88t19.5 -110zM601 246 q0 39 -8 84.5t-28.5 84t-53 63.5t-82.5 25q-46 0 -76.5 -19.5t-49 -50t-26 -68.5t-7.5 -76q0 -39 8.5 -86.5t28.5 -87t53.5 -67.5t83.5 -28q46 0 76.5 21.5t48 54t25 72t7.5 78.5z" />
<glyph unicode="&#xff;" horiz-adv-x="799" d="M625 720q0 -30 -20 -50.5t-50 -20.5q-28 0 -49 21.5t-21 49.5q0 29 20 49.5t50 20.5t50 -20.5t20 -49.5zM400 720q0 -30 -20.5 -50.5t-50.5 -20.5q-29 0 -49.5 20.5t-20.5 50.5q0 29 20.5 49.5t49.5 20.5q30 0 50.5 -20.5t20.5 -49.5zM799 487q-52 0 -77.5 -6.5 t-41.5 -21.5t-27 -42t-33 -71l-289 -594q-5 -11 -16.5 -35t-23.5 -52t-20 -53t-8 -36q0 -14 19.5 -22.5t44.5 -11.5t49 -3h33v-31h-396v31q52 6 109 17q35 7 51 23t32 47q26 48 53 98t53 98q7 15 21 38t27 48t22 50t9 44q0 16 -7 32t-17 31l-164 307q-23 41 -42 64t-42.5 34 t-55 14t-75.5 3v33h405v-33q-7 0 -23 0.5t-32.5 -1t-28.5 -7t-12 -18.5q0 -10 4.5 -22.5t11 -27.5t14 -28t11.5 -20l131 -239l102 244q7 19 17.5 44.5t10.5 46.5q0 13 -12 19.5t-28 8t-31.5 1t-25.5 -0.5v33h298v-33v0z" />
<glyph unicode="&#x152;" horiz-adv-x="1914" d="M1900 268q-46 -83 -86 -163.5t-77 -167.5h-37q-4 19 -6.5 31t-8 19t-17.5 10t-33 3h-642q-16 -7 -46.5 -13.5t-63 -10.5t-64 -6.5t-49.5 -2.5q-134 0 -257 48t-218 132t-151.5 200.5t-56.5 255.5q0 144 55.5 265.5t150.5 210t221 137.5t267 49q37 0 74 -1.5t74 -9.5 q3 -2 17 -4.5t29 -6.5q17 -5 37 -9h623l65 31l24 -31q-26 -65 -46 -128.5t-37 -130.5h-20q-8 37 -15.5 73t-27.5 69q-28 49 -74 55t-96 6h-122q-52 0 -102 -5q-17 -106 -17 -213v-279h65h100t94 28q10 7 20 21t18.5 30.5t15 32t11.5 27.5h46q-5 -56 -9 -103t-5.5 -93.5 t-2.5 -94.5t-1 -103h-33q-4 12 -12.5 38t-18.5 54t-22 51t-21 32q-8 6 -32 9.5t-51 5.5t-52 3t-36 1h-74v-296q0 -128 17 -252q48 -11 93.5 -14.5t93.5 -3.5q89 0 157.5 13.5t126.5 42.5t111 73.5t112 106.5l22 -22v0zM990 908v59t-2 73t-8.5 70t-17.5 54q-48 29 -92.5 40 t-99.5 11q-121 0 -205 -58t-136.5 -147t-77.5 -197t-25 -208q0 -102 25 -206.5t77.5 -189.5t136.5 -138.5t203 -53.5q59 0 104.5 13t93.5 48q9 16 14.5 49.5t7.5 69.5t2 71v56v584z" />
<glyph unicode="&#x153;" horiz-adv-x="1071" d="M1042 78q-52 -54 -113 -74.5t-133 -20.5q-76 0 -140 25t-108 90q-37 -67 -91 -91t-128 -24q-55 0 -105 17.5t-88 51t-60 80.5t-22 105q0 66 25.5 121t68.5 94.5t100 61.5t122 22q72 0 128.5 -24.5t99.5 -85.5q38 61 81.5 85t116.5 24q46 0 87.5 -15t73 -42.5t49 -66.5 t17.5 -89v-26l-387 7q2 -31 5 -61.5t12 -62.5q20 -70 78.5 -109t128.5 -39q52 0 86 16t77 45l19 -14v0zM892 372q0 55 -27 92t-86 37q-41 0 -68 -13.5t-42.5 -37.5t-23 -55.5t-9.5 -67.5l256 17v28zM531 187q0 44 -11 98.5t-35 103t-63 80.5t-93 32q-70 0 -108 -43.5 t-38 -111.5q0 -30 4.5 -66t14 -74t23.5 -72t30 -58q21 -30 52.5 -44.5t68.5 -14.5q77 0 116 49t39 121z" />
<glyph unicode="&#x178;" horiz-adv-x="1307" d="M899 1434q0 -30 -20.5 -50.5t-49.5 -20.5q-28 0 -49.5 21.5t-21.5 49.5q0 29 20.5 49.5t50.5 20.5q29 0 49.5 -20.5t20.5 -49.5zM673 1434q0 -30 -20 -50.5t-50 -20.5q-29 0 -49.5 20.5t-20.5 50.5q0 29 20.5 49.5t49.5 20.5q30 0 50 -20.5t20 -49.5zM1308 1190 q-15 0 -38 -1t-48 -4t-47 -6.5t-35 -9.5q-21 -9 -52.5 -51.5t-67.5 -102t-75 -127.5t-72 -132t-57 -116t-33 -74q-12 -31 -15.5 -60t-3.5 -60v-137v-51.5t2 -59.5t5.5 -58.5t11.5 -50.5q3 -13 7 -18.5t18 -9.5q37 -13 81.5 -14t83.5 -4v-43h-616v43q7 0 36 1.5t62 4.5 t63 6.5t37 11.5q11 11 16.5 44t8.5 72t4 75t1 51v150q0 52 -19.5 92.5t-45.5 83.5l-183 309q-13 20 -26 41t-28 42q-35 52 -59 84t-52 49t-66.5 22.5t-105.5 7.5v44h620v-44q-11 0 -40 -2t-57.5 -7.5t-50.5 -16t-22 -28.5q0 -20 19 -63t43 -87t47.5 -83t32.5 -54l131 -227 q37 68 74 136.5t74 136.5q11 23 29.5 52.5t35.5 62.5t29 66.5t12 61.5q0 18 -9.5 28.5t-24 15t-31.5 5.5t-31 1l-67 2v44h494v-44v0z" />
<glyph unicode="&#x2c6;" d="M607 612q-17 13 -41 31.5t-47 41t-42.5 45.5t-26.5 43q-6 -9 -26.5 -32t-44.5 -49t-47 -48t-32 -32l-19 17q19 20 45 52.5t50.5 67t45 68.5t26.5 60h61q-2 -6 -2 -12.5v-11.5q0 -28 14.5 -57.5t36 -58t45.5 -54.5t43 -45z" />
<glyph unicode="&#x2dc;" d="M670 775q-21 -35 -51.5 -69t-74.5 -34q-52 0 -105.5 17.5t-96.5 17.5q-26 0 -39 -12t-24 -33l-24 15q24 41 54 72.5t81 31.5q43 0 93 -18.5t94 -18.5q26 0 41 13t28 33l24 -15v0z" />
<glyph unicode="&#x2000;" horiz-adv-x="795" />
<glyph unicode="&#x2001;" horiz-adv-x="1591" />
<glyph unicode="&#x2002;" horiz-adv-x="795" />
<glyph unicode="&#x2003;" horiz-adv-x="1591" />
<glyph unicode="&#x2004;" horiz-adv-x="530" />
<glyph unicode="&#x2005;" horiz-adv-x="397" />
<glyph unicode="&#x2006;" horiz-adv-x="265" />
<glyph unicode="&#x2007;" horiz-adv-x="265" />
<glyph unicode="&#x2008;" horiz-adv-x="198" />
<glyph unicode="&#x2009;" horiz-adv-x="318" />
<glyph unicode="&#x200a;" horiz-adv-x="88" />
<glyph unicode="&#x2010;" horiz-adv-x="477" d="M381 224h-276l-49 -65l-32 20l76 143h268l52 63l33 -22z" />
<glyph unicode="&#x2011;" horiz-adv-x="477" d="M381 224h-276l-49 -65l-32 20l76 143h268l52 63l33 -22z" />
<glyph unicode="&#x2012;" horiz-adv-x="477" d="M381 224h-276l-49 -65l-32 20l76 143h268l52 63l33 -22z" />
<glyph unicode="&#x2013;" d="M61 574v70h803v-70h-803z" />
<glyph unicode="&#x2014;" horiz-adv-x="1011" d="M916 224h-811l-49 -65l-32 20l76 143h801l54 63l33 -22z" />
<glyph unicode="&#x2018;" horiz-adv-x="451" d="M353 1251q-53 -43 -91 -90t-38 -121q0 -11 3.5 -27t10 -30.5t17 -26t24.5 -11.5q10 0 21 5.5t20 9.5l13 6l15 -17q-32 -20 -76 -40.5t-83 -20.5q-41 0 -66 33.5t-25 70.5q0 44 25 84.5t62 76t78.5 64t75.5 48.5l14 -14v0z" />
<glyph unicode="&#x2019;" horiz-adv-x="451" d="M353 1162q0 -43 -25.5 -83.5t-62.5 -76.5t-79 -66t-73 -48l-15 17q54 42 92 88.5t38 122.5q0 11 -4 26.5t-11.5 30.5t-17.5 26t-23 11q-7 0 -25.5 -8.5t-28.5 -11.5l-14 14q29 21 75.5 41t83.5 20q42 0 66 -32t24 -71z" />
<glyph unicode="&#x201a;" horiz-adv-x="451" d="M353 54q0 -43 -25 -83.5t-62 -76.5t-78.5 -66t-74.5 -48l-15 16q54 43 92 89.5t38 120.5q0 11 -4 26.5t-10.5 31.5t-17.5 26t-24 10q-9 0 -21 -4.5t-20 -8.5l-13 -6l-14 15q35 21 75.5 41t83.5 20q40 0 65 -33t25 -70z" />
<glyph unicode="&#x201c;" horiz-adv-x="754" d="M657 1251q-54 -43 -92 -90t-38 -121q0 -11 3 -27t10.5 -31.5t17.5 -26t25 -10.5q11 0 27.5 7.5t25.5 13.5l15 -17q-31 -18 -76.5 -39.5t-82.5 -21.5q-41 0 -66 33.5t-25 70.5q0 44 25 84.5t62 76t79 64t75 48.5l15 -14v0zM353 1251q-53 -43 -91 -90t-38 -121 q0 -11 3.5 -27t10 -30.5t17 -26t24.5 -11.5q10 0 21 5.5t20 9.5l13 6l15 -17q-32 -20 -76 -40.5t-83 -20.5q-41 0 -66 33.5t-25 70.5q0 44 25 84.5t62 76t78.5 64t75.5 48.5l14 -14v0z" />
<glyph unicode="&#x201d;" horiz-adv-x="754" d="M657 1162q0 -43 -26 -83.5t-63 -76.5t-78.5 -66t-73.5 -48l-15 17q54 42 92 88.5t38 122.5q0 48 -35 83q-6 3 -8.5 7t-12.5 4q-7 0 -25.5 -8.5t-27.5 -11.5l-15 14q31 23 75.5 42t83.5 19q41 0 66 -33t25 -70zM353 1162q0 -43 -25.5 -83.5t-62.5 -76.5t-79 -66t-73 -48 l-15 17q54 42 92 88.5t38 122.5q0 11 -4 26.5t-11.5 30.5t-17.5 26t-23 11q-7 0 -25.5 -8.5t-28.5 -11.5l-14 14q29 21 75.5 41t83.5 20q42 0 66 -32t24 -71z" />
<glyph unicode="&#x201e;" horiz-adv-x="754" d="M657 54q0 -43 -26 -83.5t-63 -76.5t-78.5 -66t-73.5 -48l-15 16q54 43 92 89.5t38 120.5q0 11 -3.5 26.5t-10 31.5t-18 26t-24.5 10t-27.5 -7.5t-25.5 -11.5l-15 15q37 22 77 41.5t82 19.5q41 0 66 -33t25 -70zM353 54q0 -43 -25 -83.5t-62 -76.5t-78.5 -66t-74.5 -48 l-15 16q54 43 92 89.5t38 120.5q0 11 -4 26.5t-10.5 31.5t-17.5 26t-24 10q-9 0 -21 -4.5t-20 -8.5l-13 -6l-14 15q35 21 75.5 41t83.5 20q40 0 65 -33t25 -70z" />
<glyph unicode="&#x2022;" horiz-adv-x="1233" d="M871 629q0 -52 -19.5 -99t-54.5 -82t-81 -56.5t-98 -21.5q-54 0 -100 20.5t-81.5 56.5t-54.5 82t-19 100q0 52 19 99t54.5 83t81.5 56.5t100 20.5q52 0 98 -21.5t81 -56.5t54.5 -82t19.5 -99z" />
<glyph unicode="&#x2026;" horiz-adv-x="1446" d="M1293 70q0 -37 -25 -62t-62 -25t-62 25t-25 62t25 62t62 25t62 -25t25 -62zM810 70q0 -37 -25 -62t-62 -25t-62 25t-25 62t25 62t62 25t62 -25t25 -62zM327 70q0 -37 -24.5 -62t-62.5 -25q-36 0 -60.5 26t-24.5 61t24.5 61t60.5 26q38 0 62.5 -25t24.5 -62z" />
<glyph unicode="&#x202f;" horiz-adv-x="318" />
<glyph unicode="&#x2039;" horiz-adv-x="394" d="M296 7q-39 19 -78.5 41t-73 51t-55 66t-21.5 85q0 50 21.5 91.5t55 77.5t74 64.5t77.5 52.5l18 -27q-59 -52 -98.5 -111t-39.5 -141q0 -78 38 -128.5t100 -91.5z" />
<glyph unicode="&#x203a;" horiz-adv-x="394" d="M326 294q0 -50 -21.5 -91.5t-55 -77.5t-74 -65t-77.5 -53l-17 28q58 50 98.5 110t40.5 142q0 77 -38 128t-101 92l17 29q39 -18 79.5 -39.5t73 -51t54 -66.5t21.5 -85z" />
<glyph unicode="&#x205f;" horiz-adv-x="397" />
<glyph unicode="&#x2122;" horiz-adv-x="1831" d="M1417 531v24q6 0 29 -1t47 0t43.5 6.5t19.5 18.5q0 19 -4.5 36.5t-8.5 35.5q-22 100 -45.5 199t-39.5 201l-200 -502q-63 134 -124 266t-131 262l-45 -367q-3 -20 -5 -43t-2 -44q0 -11 2.5 -25.5t12.5 -23.5q7 -8 23.5 -11.5t36 -5.5t37 -2h27.5v-24h-387v24q11 0 36 2 t51 4.5t49 8t32 13.5q19 16 24.5 51.5t9.5 59.5l46 301q4 24 7.5 49t3.5 49q0 54 -37 87q-26 24 -64 26t-69 2l4 26q25 -2 52 -3t53 -1q31 0 63.5 2t64.5 4l38 -67q63 -105 117 -216t107 -220l46 122t47 122l59 157q6 15 13 29.5t11 29.5q4 11 7.5 21.5t7.5 21.5 q54 0 103.5 2t103.5 7l6 -26q-26 -4 -52 -7.5t-52 -10.5q-15 -4 -29 -7.5t-14 -22.5v-2q0 -35 9.5 -90.5t21.5 -114t24 -108t18 -73.5q11 -50 22 -99t29 -98q10 -25 29 -28t44 -3h70v-24h-398zM703 1245q-9 -46 -14 -89.5t-8 -91.5l-11 -4q-13 67 -41 104.5t-102 37.5h-118 q-4 -40 -7.5 -80t-3.5 -80v-339q0 -28 1 -62t10 -60q5 -15 21 -18.5t31 -3.5l88 -4v-24h-394v24h24.5t38 2t38 4.5t23.5 6.5q6 4 9.5 25t5.5 46t2 47.5v29.5v311q0 44 -2 87.5t-5 87.5h-117q-35 0 -58 -9t-38 -26.5t-25 -42.5t-20 -55l-16 6q7 44 14.5 87.5t14.5 88.5l24 7 q19 -18 27.5 -21t34.5 -3h492q22 0 33 3.5t26 20.5l22 -13v0z" />
<glyph unicode="&#x25fc;" horiz-adv-x="518" d="M0 518h518v-518h-518v518z" />
</font>
</defs>
</svg>
